G04 #@! TF.GenerationSoftware,KiCad,Pcbnew,(5.1.5)-3*
G04 #@! TF.CreationDate,2019-12-31T17:34:34+04:00*
G04 #@! TF.ProjectId,stm32f042_devboard,73746d33-3266-4303-9432-5f646576626f,1*
G04 #@! TF.SameCoordinates,Original*
G04 #@! TF.FileFunction,Legend,Bot*
G04 #@! TF.FilePolarity,Positive*
%FSLAX46Y46*%
G04 Gerber Fmt 4.6, Leading zero omitted, Abs format (unit mm)*
G04 Created by KiCad (PCBNEW (5.1.5)-3) date 2019-12-31 17:34:34*
%MOMM*%
%LPD*%
G04 APERTURE LIST*
%ADD10C,0.076200*%
%ADD11C,0.120000*%
G04 APERTURE END LIST*
D10*
X138363476Y-79796519D02*
X138315095Y-79820709D01*
X138218333Y-79820709D01*
X138169952Y-79796519D01*
X138145761Y-79748138D01*
X138145761Y-79723947D01*
X138169952Y-79675566D01*
X138218333Y-79651376D01*
X138290904Y-79651376D01*
X138339285Y-79627185D01*
X138363476Y-79578804D01*
X138363476Y-79554614D01*
X138339285Y-79506233D01*
X138290904Y-79482042D01*
X138218333Y-79482042D01*
X138169952Y-79506233D01*
X138000619Y-79482042D02*
X137807095Y-79482042D01*
X137928047Y-79312709D02*
X137928047Y-79748138D01*
X137903857Y-79796519D01*
X137855476Y-79820709D01*
X137807095Y-79820709D01*
X137637761Y-79820709D02*
X137637761Y-79482042D01*
X137637761Y-79530423D02*
X137613571Y-79506233D01*
X137565190Y-79482042D01*
X137492619Y-79482042D01*
X137444238Y-79506233D01*
X137420047Y-79554614D01*
X137420047Y-79820709D01*
X137420047Y-79554614D02*
X137395857Y-79506233D01*
X137347476Y-79482042D01*
X137274904Y-79482042D01*
X137226523Y-79506233D01*
X137202333Y-79554614D01*
X137202333Y-79820709D01*
X137008809Y-79312709D02*
X136694333Y-79312709D01*
X136863666Y-79506233D01*
X136791095Y-79506233D01*
X136742714Y-79530423D01*
X136718523Y-79554614D01*
X136694333Y-79602995D01*
X136694333Y-79723947D01*
X136718523Y-79772328D01*
X136742714Y-79796519D01*
X136791095Y-79820709D01*
X136936238Y-79820709D01*
X136984619Y-79796519D01*
X137008809Y-79772328D01*
X136500809Y-79361090D02*
X136476619Y-79336900D01*
X136428238Y-79312709D01*
X136307285Y-79312709D01*
X136258904Y-79336900D01*
X136234714Y-79361090D01*
X136210523Y-79409471D01*
X136210523Y-79457852D01*
X136234714Y-79530423D01*
X136525000Y-79820709D01*
X136210523Y-79820709D01*
X136065380Y-79482042D02*
X135871857Y-79482042D01*
X135992809Y-79820709D02*
X135992809Y-79385280D01*
X135968619Y-79336900D01*
X135920238Y-79312709D01*
X135871857Y-79312709D01*
X135605761Y-79312709D02*
X135557380Y-79312709D01*
X135509000Y-79336900D01*
X135484809Y-79361090D01*
X135460619Y-79409471D01*
X135436428Y-79506233D01*
X135436428Y-79627185D01*
X135460619Y-79723947D01*
X135484809Y-79772328D01*
X135509000Y-79796519D01*
X135557380Y-79820709D01*
X135605761Y-79820709D01*
X135654142Y-79796519D01*
X135678333Y-79772328D01*
X135702523Y-79723947D01*
X135726714Y-79627185D01*
X135726714Y-79506233D01*
X135702523Y-79409471D01*
X135678333Y-79361090D01*
X135654142Y-79336900D01*
X135605761Y-79312709D01*
X135001000Y-79482042D02*
X135001000Y-79820709D01*
X135121952Y-79288519D02*
X135242904Y-79651376D01*
X134928428Y-79651376D01*
X134759095Y-79361090D02*
X134734904Y-79336900D01*
X134686523Y-79312709D01*
X134565571Y-79312709D01*
X134517190Y-79336900D01*
X134493000Y-79361090D01*
X134468809Y-79409471D01*
X134468809Y-79457852D01*
X134493000Y-79530423D01*
X134783285Y-79820709D01*
X134468809Y-79820709D01*
X134323666Y-79482042D02*
X134130142Y-79482042D01*
X134251095Y-79820709D02*
X134251095Y-79385280D01*
X134226904Y-79336900D01*
X134178523Y-79312709D01*
X134130142Y-79312709D01*
X133960809Y-79627185D02*
X133573761Y-79627185D01*
X133114142Y-79820709D02*
X133114142Y-79312709D01*
X133114142Y-79796519D02*
X133162523Y-79820709D01*
X133259285Y-79820709D01*
X133307666Y-79796519D01*
X133331857Y-79772328D01*
X133356047Y-79723947D01*
X133356047Y-79578804D01*
X133331857Y-79530423D01*
X133307666Y-79506233D01*
X133259285Y-79482042D01*
X133162523Y-79482042D01*
X133114142Y-79506233D01*
X132678714Y-79796519D02*
X132727095Y-79820709D01*
X132823857Y-79820709D01*
X132872238Y-79796519D01*
X132896428Y-79748138D01*
X132896428Y-79554614D01*
X132872238Y-79506233D01*
X132823857Y-79482042D01*
X132727095Y-79482042D01*
X132678714Y-79506233D01*
X132654523Y-79554614D01*
X132654523Y-79602995D01*
X132896428Y-79651376D01*
X132485190Y-79482042D02*
X132364238Y-79820709D01*
X132243285Y-79482042D01*
X132049761Y-79820709D02*
X132049761Y-79312709D01*
X132049761Y-79506233D02*
X132001380Y-79482042D01*
X131904619Y-79482042D01*
X131856238Y-79506233D01*
X131832047Y-79530423D01*
X131807857Y-79578804D01*
X131807857Y-79723947D01*
X131832047Y-79772328D01*
X131856238Y-79796519D01*
X131904619Y-79820709D01*
X132001380Y-79820709D01*
X132049761Y-79796519D01*
X131517571Y-79820709D02*
X131565952Y-79796519D01*
X131590142Y-79772328D01*
X131614333Y-79723947D01*
X131614333Y-79578804D01*
X131590142Y-79530423D01*
X131565952Y-79506233D01*
X131517571Y-79482042D01*
X131445000Y-79482042D01*
X131396619Y-79506233D01*
X131372428Y-79530423D01*
X131348238Y-79578804D01*
X131348238Y-79723947D01*
X131372428Y-79772328D01*
X131396619Y-79796519D01*
X131445000Y-79820709D01*
X131517571Y-79820709D01*
X130912809Y-79820709D02*
X130912809Y-79554614D01*
X130937000Y-79506233D01*
X130985380Y-79482042D01*
X131082142Y-79482042D01*
X131130523Y-79506233D01*
X130912809Y-79796519D02*
X130961190Y-79820709D01*
X131082142Y-79820709D01*
X131130523Y-79796519D01*
X131154714Y-79748138D01*
X131154714Y-79699757D01*
X131130523Y-79651376D01*
X131082142Y-79627185D01*
X130961190Y-79627185D01*
X130912809Y-79602995D01*
X130670904Y-79820709D02*
X130670904Y-79482042D01*
X130670904Y-79578804D02*
X130646714Y-79530423D01*
X130622523Y-79506233D01*
X130574142Y-79482042D01*
X130525761Y-79482042D01*
X130138714Y-79820709D02*
X130138714Y-79312709D01*
X130138714Y-79796519D02*
X130187095Y-79820709D01*
X130283857Y-79820709D01*
X130332238Y-79796519D01*
X130356428Y-79772328D01*
X130380619Y-79723947D01*
X130380619Y-79578804D01*
X130356428Y-79530423D01*
X130332238Y-79506233D01*
X130283857Y-79482042D01*
X130187095Y-79482042D01*
X130138714Y-79506233D01*
X137287000Y-80658909D02*
X137287000Y-80320242D01*
X137287000Y-80150909D02*
X137311190Y-80175100D01*
X137287000Y-80199290D01*
X137262809Y-80175100D01*
X137287000Y-80150909D01*
X137287000Y-80199290D01*
X137045095Y-80658909D02*
X137045095Y-80320242D01*
X137045095Y-80368623D02*
X137020904Y-80344433D01*
X136972523Y-80320242D01*
X136899952Y-80320242D01*
X136851571Y-80344433D01*
X136827380Y-80392814D01*
X136827380Y-80658909D01*
X136827380Y-80392814D02*
X136803190Y-80344433D01*
X136754809Y-80320242D01*
X136682238Y-80320242D01*
X136633857Y-80344433D01*
X136609666Y-80392814D01*
X136609666Y-80658909D01*
X136150047Y-80658909D02*
X136150047Y-80392814D01*
X136174238Y-80344433D01*
X136222619Y-80320242D01*
X136319380Y-80320242D01*
X136367761Y-80344433D01*
X136150047Y-80634719D02*
X136198428Y-80658909D01*
X136319380Y-80658909D01*
X136367761Y-80634719D01*
X136391952Y-80586338D01*
X136391952Y-80537957D01*
X136367761Y-80489576D01*
X136319380Y-80465385D01*
X136198428Y-80465385D01*
X136150047Y-80441195D01*
X135908142Y-80320242D02*
X135908142Y-80658909D01*
X135908142Y-80368623D02*
X135883952Y-80344433D01*
X135835571Y-80320242D01*
X135763000Y-80320242D01*
X135714619Y-80344433D01*
X135690428Y-80392814D01*
X135690428Y-80658909D01*
X135569476Y-80707290D02*
X135182428Y-80707290D01*
X135085666Y-80199290D02*
X135061476Y-80175100D01*
X135013095Y-80150909D01*
X134892142Y-80150909D01*
X134843761Y-80175100D01*
X134819571Y-80199290D01*
X134795380Y-80247671D01*
X134795380Y-80296052D01*
X134819571Y-80368623D01*
X135109857Y-80658909D01*
X134795380Y-80658909D01*
X134480904Y-80150909D02*
X134432523Y-80150909D01*
X134384142Y-80175100D01*
X134359952Y-80199290D01*
X134335761Y-80247671D01*
X134311571Y-80344433D01*
X134311571Y-80465385D01*
X134335761Y-80562147D01*
X134359952Y-80610528D01*
X134384142Y-80634719D01*
X134432523Y-80658909D01*
X134480904Y-80658909D01*
X134529285Y-80634719D01*
X134553476Y-80610528D01*
X134577666Y-80562147D01*
X134601857Y-80465385D01*
X134601857Y-80344433D01*
X134577666Y-80247671D01*
X134553476Y-80199290D01*
X134529285Y-80175100D01*
X134480904Y-80150909D01*
X134118047Y-80199290D02*
X134093857Y-80175100D01*
X134045476Y-80150909D01*
X133924523Y-80150909D01*
X133876142Y-80175100D01*
X133851952Y-80199290D01*
X133827761Y-80247671D01*
X133827761Y-80296052D01*
X133851952Y-80368623D01*
X134142238Y-80658909D01*
X133827761Y-80658909D01*
X133513285Y-80150909D02*
X133464904Y-80150909D01*
X133416523Y-80175100D01*
X133392333Y-80199290D01*
X133368142Y-80247671D01*
X133343952Y-80344433D01*
X133343952Y-80465385D01*
X133368142Y-80562147D01*
X133392333Y-80610528D01*
X133416523Y-80634719D01*
X133464904Y-80658909D01*
X133513285Y-80658909D01*
X133561666Y-80634719D01*
X133585857Y-80610528D01*
X133610047Y-80562147D01*
X133634238Y-80465385D01*
X133634238Y-80344433D01*
X133610047Y-80247671D01*
X133585857Y-80199290D01*
X133561666Y-80175100D01*
X133513285Y-80150909D01*
X133029476Y-80150909D02*
X132981095Y-80150909D01*
X132932714Y-80175100D01*
X132908523Y-80199290D01*
X132884333Y-80247671D01*
X132860142Y-80344433D01*
X132860142Y-80465385D01*
X132884333Y-80562147D01*
X132908523Y-80610528D01*
X132932714Y-80634719D01*
X132981095Y-80658909D01*
X133029476Y-80658909D01*
X133077857Y-80634719D01*
X133102047Y-80610528D01*
X133126238Y-80562147D01*
X133150428Y-80465385D01*
X133150428Y-80344433D01*
X133126238Y-80247671D01*
X133102047Y-80199290D01*
X133077857Y-80175100D01*
X133029476Y-80150909D01*
X132376333Y-80658909D02*
X132666619Y-80658909D01*
X132521476Y-80658909D02*
X132521476Y-80150909D01*
X132569857Y-80223480D01*
X132618238Y-80271861D01*
X132666619Y-80296052D01*
X132158619Y-80610528D02*
X132134428Y-80634719D01*
X132158619Y-80658909D01*
X132182809Y-80634719D01*
X132158619Y-80610528D01*
X132158619Y-80658909D01*
X131819952Y-80150909D02*
X131771571Y-80150909D01*
X131723190Y-80175100D01*
X131699000Y-80199290D01*
X131674809Y-80247671D01*
X131650619Y-80344433D01*
X131650619Y-80465385D01*
X131674809Y-80562147D01*
X131699000Y-80610528D01*
X131723190Y-80634719D01*
X131771571Y-80658909D01*
X131819952Y-80658909D01*
X131868333Y-80634719D01*
X131892523Y-80610528D01*
X131916714Y-80562147D01*
X131940904Y-80465385D01*
X131940904Y-80344433D01*
X131916714Y-80247671D01*
X131892523Y-80199290D01*
X131868333Y-80175100D01*
X131819952Y-80150909D01*
X131166809Y-80658909D02*
X131457095Y-80658909D01*
X131311952Y-80658909D02*
X131311952Y-80150909D01*
X131360333Y-80223480D01*
X131408714Y-80271861D01*
X131457095Y-80296052D01*
D11*
X146741000Y-94687000D02*
X146291000Y-94287000D01*
X146291000Y-94287000D02*
X146291000Y-95087000D01*
X146291000Y-95087000D02*
X146741000Y-94687000D01*
X152341000Y-99837000D02*
X149541000Y-99837000D01*
X149541000Y-99837000D02*
X149541000Y-100137000D01*
X149541000Y-100137000D02*
X147991000Y-100137000D01*
X152341000Y-92137000D02*
X149541000Y-92137000D01*
X149541000Y-91837000D02*
X149541000Y-92137000D01*
X149541000Y-91837000D02*
X147991000Y-91837000D01*
X143618000Y-94016000D02*
X143618000Y-88006000D01*
X136798000Y-91766000D02*
X136798000Y-88006000D01*
X143618000Y-88006000D02*
X142358000Y-88006000D01*
X136798000Y-88006000D02*
X138058000Y-88006000D01*
X134672000Y-84453252D02*
X134672000Y-83930748D01*
X136092000Y-84453252D02*
X136092000Y-83930748D01*
X132386000Y-84453252D02*
X132386000Y-83930748D01*
X133806000Y-84453252D02*
X133806000Y-83930748D01*
X133620252Y-96214000D02*
X133097748Y-96214000D01*
X133620252Y-94794000D02*
X133097748Y-94794000D01*
X133620252Y-93674000D02*
X133097748Y-93674000D01*
X133620252Y-92254000D02*
X133097748Y-92254000D01*
D10*
X146025809Y-99144666D02*
X146388666Y-99144666D01*
X146461238Y-99120476D01*
X146509619Y-99072095D01*
X146533809Y-98999523D01*
X146533809Y-98951142D01*
X146533809Y-99652666D02*
X146533809Y-99362380D01*
X146533809Y-99507523D02*
X146025809Y-99507523D01*
X146098380Y-99459142D01*
X146146761Y-99410761D01*
X146170952Y-99362380D01*
X143866809Y-88131952D02*
X144278047Y-88131952D01*
X144326428Y-88156142D01*
X144350619Y-88180333D01*
X144374809Y-88228714D01*
X144374809Y-88325476D01*
X144350619Y-88373857D01*
X144326428Y-88398047D01*
X144278047Y-88422238D01*
X143866809Y-88422238D01*
X143915190Y-88639952D02*
X143891000Y-88664142D01*
X143866809Y-88712523D01*
X143866809Y-88833476D01*
X143891000Y-88881857D01*
X143915190Y-88906047D01*
X143963571Y-88930238D01*
X144011952Y-88930238D01*
X144084523Y-88906047D01*
X144374809Y-88615761D01*
X144374809Y-88930238D01*
X135466666Y-82096428D02*
X135490857Y-82120619D01*
X135563428Y-82144809D01*
X135611809Y-82144809D01*
X135684380Y-82120619D01*
X135732761Y-82072238D01*
X135756952Y-82023857D01*
X135781142Y-81927095D01*
X135781142Y-81854523D01*
X135756952Y-81757761D01*
X135732761Y-81709380D01*
X135684380Y-81661000D01*
X135611809Y-81636809D01*
X135563428Y-81636809D01*
X135490857Y-81661000D01*
X135466666Y-81685190D01*
X135031238Y-81806142D02*
X135031238Y-82144809D01*
X135152190Y-81612619D02*
X135273142Y-81975476D01*
X134958666Y-81975476D01*
X133180666Y-82096428D02*
X133204857Y-82120619D01*
X133277428Y-82144809D01*
X133325809Y-82144809D01*
X133398380Y-82120619D01*
X133446761Y-82072238D01*
X133470952Y-82023857D01*
X133495142Y-81927095D01*
X133495142Y-81854523D01*
X133470952Y-81757761D01*
X133446761Y-81709380D01*
X133398380Y-81661000D01*
X133325809Y-81636809D01*
X133277428Y-81636809D01*
X133204857Y-81661000D01*
X133180666Y-81685190D01*
X133011333Y-81636809D02*
X132696857Y-81636809D01*
X132866190Y-81830333D01*
X132793619Y-81830333D01*
X132745238Y-81854523D01*
X132721047Y-81878714D01*
X132696857Y-81927095D01*
X132696857Y-82048047D01*
X132721047Y-82096428D01*
X132745238Y-82120619D01*
X132793619Y-82144809D01*
X132938761Y-82144809D01*
X132987142Y-82120619D01*
X133011333Y-82096428D01*
X131245428Y-95419333D02*
X131269619Y-95395142D01*
X131293809Y-95322571D01*
X131293809Y-95274190D01*
X131269619Y-95201619D01*
X131221238Y-95153238D01*
X131172857Y-95129047D01*
X131076095Y-95104857D01*
X131003523Y-95104857D01*
X130906761Y-95129047D01*
X130858380Y-95153238D01*
X130810000Y-95201619D01*
X130785809Y-95274190D01*
X130785809Y-95322571D01*
X130810000Y-95395142D01*
X130834190Y-95419333D01*
X130834190Y-95612857D02*
X130810000Y-95637047D01*
X130785809Y-95685428D01*
X130785809Y-95806380D01*
X130810000Y-95854761D01*
X130834190Y-95878952D01*
X130882571Y-95903142D01*
X130930952Y-95903142D01*
X131003523Y-95878952D01*
X131293809Y-95588666D01*
X131293809Y-95903142D01*
X131245428Y-92879333D02*
X131269619Y-92855142D01*
X131293809Y-92782571D01*
X131293809Y-92734190D01*
X131269619Y-92661619D01*
X131221238Y-92613238D01*
X131172857Y-92589047D01*
X131076095Y-92564857D01*
X131003523Y-92564857D01*
X130906761Y-92589047D01*
X130858380Y-92613238D01*
X130810000Y-92661619D01*
X130785809Y-92734190D01*
X130785809Y-92782571D01*
X130810000Y-92855142D01*
X130834190Y-92879333D01*
X131293809Y-93363142D02*
X131293809Y-93072857D01*
X131293809Y-93218000D02*
X130785809Y-93218000D01*
X130858380Y-93169619D01*
X130906761Y-93121238D01*
X130930952Y-93072857D01*
M02*
