G04 #@! TF.GenerationSoftware,KiCad,Pcbnew,(5.1.5)-3*
G04 #@! TF.CreationDate,2019-12-31T17:34:34+04:00*
G04 #@! TF.ProjectId,stm32f042_devboard,73746d33-3266-4303-9432-5f646576626f,1*
G04 #@! TF.SameCoordinates,Original*
G04 #@! TF.FileFunction,Soldermask,Bot*
G04 #@! TF.FilePolarity,Negative*
%FSLAX46Y46*%
G04 Gerber Fmt 4.6, Leading zero omitted, Abs format (unit mm)*
G04 Created by KiCad (PCBNEW (5.1.5)-3) date 2019-12-31 17:34:34*
%MOMM*%
%LPD*%
G04 APERTURE LIST*
%ADD10C,0.100000*%
G04 APERTURE END LIST*
D10*
G36*
X138061000Y-101231000D02*
G01*
X136259000Y-101231000D01*
X136259000Y-99429000D01*
X138061000Y-99429000D01*
X138061000Y-101231000D01*
G37*
G36*
X139806312Y-99432495D02*
G01*
X139962812Y-99463624D01*
X140126784Y-99531544D01*
X140274354Y-99630147D01*
X140399853Y-99755646D01*
X140498456Y-99903216D01*
X140566376Y-100067188D01*
X140601000Y-100241259D01*
X140601000Y-100418741D01*
X140566376Y-100592812D01*
X140498456Y-100756784D01*
X140399853Y-100904354D01*
X140274354Y-101029853D01*
X140126784Y-101128456D01*
X139962812Y-101196376D01*
X139813512Y-101226073D01*
X139788742Y-101231000D01*
X139611258Y-101231000D01*
X139586488Y-101226073D01*
X139437188Y-101196376D01*
X139273216Y-101128456D01*
X139125646Y-101029853D01*
X139000147Y-100904354D01*
X138901544Y-100756784D01*
X138833624Y-100592812D01*
X138799000Y-100418741D01*
X138799000Y-100241259D01*
X138833624Y-100067188D01*
X138901544Y-99903216D01*
X139000147Y-99755646D01*
X139125646Y-99630147D01*
X139273216Y-99531544D01*
X139437188Y-99463624D01*
X139593688Y-99432495D01*
X139611258Y-99429000D01*
X139788742Y-99429000D01*
X139806312Y-99432495D01*
G37*
G36*
X142346312Y-99432495D02*
G01*
X142502812Y-99463624D01*
X142666784Y-99531544D01*
X142814354Y-99630147D01*
X142939853Y-99755646D01*
X143038456Y-99903216D01*
X143106376Y-100067188D01*
X143141000Y-100241259D01*
X143141000Y-100418741D01*
X143106376Y-100592812D01*
X143038456Y-100756784D01*
X142939853Y-100904354D01*
X142814354Y-101029853D01*
X142666784Y-101128456D01*
X142502812Y-101196376D01*
X142353512Y-101226073D01*
X142328742Y-101231000D01*
X142151258Y-101231000D01*
X142126488Y-101226073D01*
X141977188Y-101196376D01*
X141813216Y-101128456D01*
X141665646Y-101029853D01*
X141540147Y-100904354D01*
X141441544Y-100756784D01*
X141373624Y-100592812D01*
X141339000Y-100418741D01*
X141339000Y-100241259D01*
X141373624Y-100067188D01*
X141441544Y-99903216D01*
X141540147Y-99755646D01*
X141665646Y-99630147D01*
X141813216Y-99531544D01*
X141977188Y-99463624D01*
X142133688Y-99432495D01*
X142151258Y-99429000D01*
X142328742Y-99429000D01*
X142346312Y-99432495D01*
G37*
G36*
X129171000Y-99961000D02*
G01*
X127369000Y-99961000D01*
X127369000Y-98159000D01*
X129171000Y-98159000D01*
X129171000Y-99961000D01*
G37*
G36*
X148038818Y-97814696D02*
G01*
X148091300Y-97830617D01*
X148115333Y-97835398D01*
X148127586Y-97836000D01*
X148522000Y-97836000D01*
X148522000Y-97886001D01*
X148524402Y-97910387D01*
X148531515Y-97933836D01*
X148543066Y-97955447D01*
X148558611Y-97974389D01*
X148577553Y-97989934D01*
X148599164Y-98001485D01*
X148622613Y-98008598D01*
X148646999Y-98011000D01*
X150353838Y-98011000D01*
X150378224Y-98008598D01*
X150390124Y-98005617D01*
X150403678Y-98001505D01*
X150510340Y-97991000D01*
X150931660Y-97991000D01*
X150967213Y-97994502D01*
X151038321Y-98001505D01*
X151175172Y-98043019D01*
X151175175Y-98043020D01*
X151301294Y-98110432D01*
X151411843Y-98201157D01*
X151502568Y-98311706D01*
X151569980Y-98437825D01*
X151569981Y-98437828D01*
X151611495Y-98574679D01*
X151625512Y-98717000D01*
X151611495Y-98859321D01*
X151596385Y-98909130D01*
X151569980Y-98996175D01*
X151502568Y-99122294D01*
X151411843Y-99232843D01*
X151301294Y-99323568D01*
X151175175Y-99390980D01*
X151175172Y-99390981D01*
X151038321Y-99432495D01*
X150954746Y-99440726D01*
X150930714Y-99445506D01*
X150908075Y-99454884D01*
X150895928Y-99463000D01*
X149566999Y-99463000D01*
X149542613Y-99465402D01*
X149519164Y-99472515D01*
X149497553Y-99484066D01*
X149478611Y-99499611D01*
X149463066Y-99518553D01*
X149451515Y-99540164D01*
X149444402Y-99563613D01*
X149442000Y-99587999D01*
X149442000Y-99950500D01*
X148568421Y-99950500D01*
X148562836Y-99947515D01*
X148539387Y-99940402D01*
X148515001Y-99938000D01*
X146920000Y-99938000D01*
X146920000Y-98442659D01*
X146919398Y-98430407D01*
X146917093Y-98407000D01*
X146919398Y-98383593D01*
X146920000Y-98371341D01*
X146920000Y-97836000D01*
X147314414Y-97836000D01*
X147338800Y-97833598D01*
X147350700Y-97830617D01*
X147403182Y-97814696D01*
X147491481Y-97806000D01*
X147950519Y-97806000D01*
X148038818Y-97814696D01*
G37*
G36*
X152292000Y-97713000D02*
G01*
X149690000Y-97713000D01*
X149690000Y-96181000D01*
X152292000Y-96181000D01*
X152292000Y-97713000D01*
G37*
G36*
X149442000Y-92406001D02*
G01*
X149444402Y-92430387D01*
X149451515Y-92453836D01*
X149463066Y-92475447D01*
X149478611Y-92494389D01*
X149497553Y-92509934D01*
X149519164Y-92521485D01*
X149542613Y-92528598D01*
X149566999Y-92531000D01*
X150941050Y-92531000D01*
X150942613Y-92531474D01*
X150954745Y-92533274D01*
X151038321Y-92541505D01*
X151175172Y-92583019D01*
X151175175Y-92583020D01*
X151301294Y-92650432D01*
X151411843Y-92741157D01*
X151502568Y-92851706D01*
X151569980Y-92977825D01*
X151569981Y-92977828D01*
X151611495Y-93114679D01*
X151625512Y-93257000D01*
X151611495Y-93399321D01*
X151569981Y-93536172D01*
X151569980Y-93536175D01*
X151502568Y-93662294D01*
X151411843Y-93772843D01*
X151301294Y-93863568D01*
X151175175Y-93930980D01*
X151175172Y-93930981D01*
X151038321Y-93972495D01*
X150954746Y-93980726D01*
X150943314Y-93983000D01*
X149566999Y-93983000D01*
X149542613Y-93985402D01*
X149519164Y-93992515D01*
X149504225Y-94000500D01*
X148666999Y-94000500D01*
X148642613Y-94002902D01*
X148619164Y-94010015D01*
X148597553Y-94021566D01*
X148578611Y-94037111D01*
X148563066Y-94056053D01*
X148551515Y-94077664D01*
X148544402Y-94101113D01*
X148542000Y-94125499D01*
X148542000Y-94311001D01*
X148544402Y-94335387D01*
X148551515Y-94358836D01*
X148563066Y-94380447D01*
X148578611Y-94399389D01*
X148597553Y-94414934D01*
X148619164Y-94426485D01*
X148642613Y-94433598D01*
X148666999Y-94436000D01*
X148717000Y-94436000D01*
X148717000Y-97538000D01*
X146965000Y-97538000D01*
X146965000Y-94312999D01*
X146962598Y-94288613D01*
X146955485Y-94265164D01*
X146943934Y-94243553D01*
X146940000Y-94238759D01*
X146940000Y-93740621D01*
X146937598Y-93716235D01*
X146934617Y-93704335D01*
X146928696Y-93684818D01*
X146917093Y-93567000D01*
X146928696Y-93449182D01*
X146934617Y-93429665D01*
X146939398Y-93405632D01*
X146940000Y-93393379D01*
X146940000Y-92086000D01*
X148515001Y-92086000D01*
X148539387Y-92083598D01*
X148562836Y-92076485D01*
X148568421Y-92073500D01*
X149442000Y-92073500D01*
X149442000Y-92406001D01*
G37*
G36*
X128383512Y-95623927D02*
G01*
X128532812Y-95653624D01*
X128696784Y-95721544D01*
X128844354Y-95820147D01*
X128969853Y-95945646D01*
X129068456Y-96093216D01*
X129136376Y-96257188D01*
X129171000Y-96431259D01*
X129171000Y-96608741D01*
X129136376Y-96782812D01*
X129068456Y-96946784D01*
X128969853Y-97094354D01*
X128844354Y-97219853D01*
X128696784Y-97318456D01*
X128532812Y-97386376D01*
X128383512Y-97416073D01*
X128358742Y-97421000D01*
X128181258Y-97421000D01*
X128156488Y-97416073D01*
X128007188Y-97386376D01*
X127843216Y-97318456D01*
X127695646Y-97219853D01*
X127570147Y-97094354D01*
X127471544Y-96946784D01*
X127403624Y-96782812D01*
X127369000Y-96608741D01*
X127369000Y-96431259D01*
X127403624Y-96257188D01*
X127471544Y-96093216D01*
X127570147Y-95945646D01*
X127695646Y-95820147D01*
X127843216Y-95721544D01*
X128007188Y-95653624D01*
X128156488Y-95623927D01*
X128181258Y-95619000D01*
X128358742Y-95619000D01*
X128383512Y-95623927D01*
G37*
G36*
X134847674Y-94757465D02*
G01*
X134885367Y-94768899D01*
X134920103Y-94787466D01*
X134950548Y-94812452D01*
X134975534Y-94842897D01*
X134994101Y-94877633D01*
X135005535Y-94915326D01*
X135010000Y-94960661D01*
X135010000Y-96047339D01*
X135005535Y-96092674D01*
X134994101Y-96130367D01*
X134975534Y-96165103D01*
X134950548Y-96195548D01*
X134920103Y-96220534D01*
X134885367Y-96239101D01*
X134847674Y-96250535D01*
X134802339Y-96255000D01*
X133965661Y-96255000D01*
X133920326Y-96250535D01*
X133882633Y-96239101D01*
X133847897Y-96220534D01*
X133817452Y-96195548D01*
X133792466Y-96165103D01*
X133773899Y-96130367D01*
X133762465Y-96092674D01*
X133758000Y-96047339D01*
X133758000Y-94960661D01*
X133762465Y-94915326D01*
X133773899Y-94877633D01*
X133792466Y-94842897D01*
X133817452Y-94812452D01*
X133847897Y-94787466D01*
X133882633Y-94768899D01*
X133920326Y-94757465D01*
X133965661Y-94753000D01*
X134802339Y-94753000D01*
X134847674Y-94757465D01*
G37*
G36*
X132797674Y-94757465D02*
G01*
X132835367Y-94768899D01*
X132870103Y-94787466D01*
X132900548Y-94812452D01*
X132925534Y-94842897D01*
X132944101Y-94877633D01*
X132955535Y-94915326D01*
X132960000Y-94960661D01*
X132960000Y-96047339D01*
X132955535Y-96092674D01*
X132944101Y-96130367D01*
X132925534Y-96165103D01*
X132900548Y-96195548D01*
X132870103Y-96220534D01*
X132835367Y-96239101D01*
X132797674Y-96250535D01*
X132752339Y-96255000D01*
X131915661Y-96255000D01*
X131870326Y-96250535D01*
X131832633Y-96239101D01*
X131797897Y-96220534D01*
X131767452Y-96195548D01*
X131742466Y-96165103D01*
X131723899Y-96130367D01*
X131712465Y-96092674D01*
X131708000Y-96047339D01*
X131708000Y-94960661D01*
X131712465Y-94915326D01*
X131723899Y-94877633D01*
X131742466Y-94842897D01*
X131767452Y-94812452D01*
X131797897Y-94787466D01*
X131832633Y-94768899D01*
X131870326Y-94757465D01*
X131915661Y-94753000D01*
X132752339Y-94753000D01*
X132797674Y-94757465D01*
G37*
G36*
X152292000Y-95793000D02*
G01*
X149690000Y-95793000D01*
X149690000Y-94261000D01*
X152292000Y-94261000D01*
X152292000Y-95793000D01*
G37*
G36*
X128383512Y-93083927D02*
G01*
X128532812Y-93113624D01*
X128696784Y-93181544D01*
X128844354Y-93280147D01*
X128969853Y-93405646D01*
X129068456Y-93553216D01*
X129136376Y-93717188D01*
X129171000Y-93891259D01*
X129171000Y-94068741D01*
X129136376Y-94242812D01*
X129068456Y-94406784D01*
X128969853Y-94554354D01*
X128844354Y-94679853D01*
X128696784Y-94778456D01*
X128532812Y-94846376D01*
X128394124Y-94873962D01*
X128358742Y-94881000D01*
X128181258Y-94881000D01*
X128145876Y-94873962D01*
X128007188Y-94846376D01*
X127843216Y-94778456D01*
X127695646Y-94679853D01*
X127570147Y-94554354D01*
X127471544Y-94406784D01*
X127403624Y-94242812D01*
X127369000Y-94068741D01*
X127369000Y-93891259D01*
X127403624Y-93717188D01*
X127471544Y-93553216D01*
X127570147Y-93405646D01*
X127695646Y-93280147D01*
X127843216Y-93181544D01*
X128007188Y-93113624D01*
X128156488Y-93083927D01*
X128181258Y-93079000D01*
X128358742Y-93079000D01*
X128383512Y-93083927D01*
G37*
G36*
X143309000Y-94117000D02*
G01*
X141707000Y-94117000D01*
X141707000Y-92015000D01*
X143309000Y-92015000D01*
X143309000Y-94117000D01*
G37*
G36*
X138709000Y-94117000D02*
G01*
X137107000Y-94117000D01*
X137107000Y-92015000D01*
X138709000Y-92015000D01*
X138709000Y-94117000D01*
G37*
G36*
X141009000Y-94117000D02*
G01*
X139407000Y-94117000D01*
X139407000Y-92015000D01*
X141009000Y-92015000D01*
X141009000Y-94117000D01*
G37*
G36*
X134847674Y-92217465D02*
G01*
X134885367Y-92228899D01*
X134920103Y-92247466D01*
X134950548Y-92272452D01*
X134975534Y-92302897D01*
X134994101Y-92337633D01*
X135005535Y-92375326D01*
X135010000Y-92420661D01*
X135010000Y-93507339D01*
X135005535Y-93552674D01*
X134994101Y-93590367D01*
X134975534Y-93625103D01*
X134950548Y-93655548D01*
X134920103Y-93680534D01*
X134885367Y-93699101D01*
X134847674Y-93710535D01*
X134802339Y-93715000D01*
X133965661Y-93715000D01*
X133920326Y-93710535D01*
X133882633Y-93699101D01*
X133847897Y-93680534D01*
X133817452Y-93655548D01*
X133792466Y-93625103D01*
X133773899Y-93590367D01*
X133762465Y-93552674D01*
X133758000Y-93507339D01*
X133758000Y-92420661D01*
X133762465Y-92375326D01*
X133773899Y-92337633D01*
X133792466Y-92302897D01*
X133817452Y-92272452D01*
X133847897Y-92247466D01*
X133882633Y-92228899D01*
X133920326Y-92217465D01*
X133965661Y-92213000D01*
X134802339Y-92213000D01*
X134847674Y-92217465D01*
G37*
G36*
X132797674Y-92217465D02*
G01*
X132835367Y-92228899D01*
X132870103Y-92247466D01*
X132900548Y-92272452D01*
X132925534Y-92302897D01*
X132944101Y-92337633D01*
X132955535Y-92375326D01*
X132960000Y-92420661D01*
X132960000Y-93507339D01*
X132955535Y-93552674D01*
X132944101Y-93590367D01*
X132925534Y-93625103D01*
X132900548Y-93655548D01*
X132870103Y-93680534D01*
X132835367Y-93699101D01*
X132797674Y-93710535D01*
X132752339Y-93715000D01*
X131915661Y-93715000D01*
X131870326Y-93710535D01*
X131832633Y-93699101D01*
X131797897Y-93680534D01*
X131767452Y-93655548D01*
X131742466Y-93625103D01*
X131723899Y-93590367D01*
X131712465Y-93552674D01*
X131708000Y-93507339D01*
X131708000Y-92420661D01*
X131712465Y-92375326D01*
X131723899Y-92337633D01*
X131742466Y-92302897D01*
X131767452Y-92272452D01*
X131797897Y-92247466D01*
X131832633Y-92228899D01*
X131870326Y-92217465D01*
X131915661Y-92213000D01*
X132752339Y-92213000D01*
X132797674Y-92217465D01*
G37*
G36*
X128383512Y-90543927D02*
G01*
X128532812Y-90573624D01*
X128696784Y-90641544D01*
X128844354Y-90740147D01*
X128969853Y-90865646D01*
X129068456Y-91013216D01*
X129136376Y-91177188D01*
X129171000Y-91351259D01*
X129171000Y-91528741D01*
X129136376Y-91702812D01*
X129068456Y-91866784D01*
X128969853Y-92014354D01*
X128844354Y-92139853D01*
X128696784Y-92238456D01*
X128532812Y-92306376D01*
X128394124Y-92333962D01*
X128358742Y-92341000D01*
X128181258Y-92341000D01*
X128145876Y-92333962D01*
X128007188Y-92306376D01*
X127843216Y-92238456D01*
X127695646Y-92139853D01*
X127570147Y-92014354D01*
X127471544Y-91866784D01*
X127403624Y-91702812D01*
X127369000Y-91528741D01*
X127369000Y-91351259D01*
X127403624Y-91177188D01*
X127471544Y-91013216D01*
X127570147Y-90865646D01*
X127695646Y-90740147D01*
X127843216Y-90641544D01*
X128007188Y-90573624D01*
X128156488Y-90543927D01*
X128181258Y-90539000D01*
X128358742Y-90539000D01*
X128383512Y-90543927D01*
G37*
G36*
X152031000Y-89801000D02*
G01*
X150229000Y-89801000D01*
X150229000Y-87999000D01*
X152031000Y-87999000D01*
X152031000Y-89801000D01*
G37*
G36*
X128383512Y-88003927D02*
G01*
X128532812Y-88033624D01*
X128696784Y-88101544D01*
X128844354Y-88200147D01*
X128969853Y-88325646D01*
X129068456Y-88473216D01*
X129136376Y-88637188D01*
X129171000Y-88811259D01*
X129171000Y-88988741D01*
X129136376Y-89162812D01*
X129068456Y-89326784D01*
X128969853Y-89474354D01*
X128844354Y-89599853D01*
X128696784Y-89698456D01*
X128532812Y-89766376D01*
X128383512Y-89796073D01*
X128358742Y-89801000D01*
X128181258Y-89801000D01*
X128156488Y-89796073D01*
X128007188Y-89766376D01*
X127843216Y-89698456D01*
X127695646Y-89599853D01*
X127570147Y-89474354D01*
X127471544Y-89326784D01*
X127403624Y-89162812D01*
X127369000Y-88988741D01*
X127369000Y-88811259D01*
X127403624Y-88637188D01*
X127471544Y-88473216D01*
X127570147Y-88325646D01*
X127695646Y-88200147D01*
X127843216Y-88101544D01*
X128007188Y-88033624D01*
X128156488Y-88003927D01*
X128181258Y-87999000D01*
X128358742Y-87999000D01*
X128383512Y-88003927D01*
G37*
G36*
X142159000Y-87817000D02*
G01*
X138257000Y-87817000D01*
X138257000Y-85715000D01*
X142159000Y-85715000D01*
X142159000Y-87817000D01*
G37*
G36*
X128383512Y-85463927D02*
G01*
X128532812Y-85493624D01*
X128696784Y-85561544D01*
X128844354Y-85660147D01*
X128969853Y-85785646D01*
X129068456Y-85933216D01*
X129136376Y-86097188D01*
X129171000Y-86271259D01*
X129171000Y-86448741D01*
X129136376Y-86622812D01*
X129068456Y-86786784D01*
X128969853Y-86934354D01*
X128844354Y-87059853D01*
X128696784Y-87158456D01*
X128532812Y-87226376D01*
X128383512Y-87256073D01*
X128358742Y-87261000D01*
X128181258Y-87261000D01*
X128156488Y-87256073D01*
X128007188Y-87226376D01*
X127843216Y-87158456D01*
X127695646Y-87059853D01*
X127570147Y-86934354D01*
X127471544Y-86786784D01*
X127403624Y-86622812D01*
X127369000Y-86448741D01*
X127369000Y-86271259D01*
X127403624Y-86097188D01*
X127471544Y-85933216D01*
X127570147Y-85785646D01*
X127695646Y-85660147D01*
X127843216Y-85561544D01*
X128007188Y-85493624D01*
X128156488Y-85463927D01*
X128181258Y-85459000D01*
X128358742Y-85459000D01*
X128383512Y-85463927D01*
G37*
G36*
X151243512Y-85463927D02*
G01*
X151392812Y-85493624D01*
X151556784Y-85561544D01*
X151704354Y-85660147D01*
X151829853Y-85785646D01*
X151928456Y-85933216D01*
X151996376Y-86097188D01*
X152031000Y-86271259D01*
X152031000Y-86448741D01*
X151996376Y-86622812D01*
X151928456Y-86786784D01*
X151829853Y-86934354D01*
X151704354Y-87059853D01*
X151556784Y-87158456D01*
X151392812Y-87226376D01*
X151243512Y-87256073D01*
X151218742Y-87261000D01*
X151041258Y-87261000D01*
X151016488Y-87256073D01*
X150867188Y-87226376D01*
X150703216Y-87158456D01*
X150555646Y-87059853D01*
X150430147Y-86934354D01*
X150331544Y-86786784D01*
X150263624Y-86622812D01*
X150229000Y-86448741D01*
X150229000Y-86271259D01*
X150263624Y-86097188D01*
X150331544Y-85933216D01*
X150430147Y-85785646D01*
X150555646Y-85660147D01*
X150703216Y-85561544D01*
X150867188Y-85493624D01*
X151016488Y-85463927D01*
X151041258Y-85459000D01*
X151218742Y-85459000D01*
X151243512Y-85463927D01*
G37*
G36*
X135970674Y-84595465D02*
G01*
X136008367Y-84606899D01*
X136043103Y-84625466D01*
X136073548Y-84650452D01*
X136098534Y-84680897D01*
X136117101Y-84715633D01*
X136128535Y-84753326D01*
X136133000Y-84798661D01*
X136133000Y-85635339D01*
X136128535Y-85680674D01*
X136117101Y-85718367D01*
X136098534Y-85753103D01*
X136073548Y-85783548D01*
X136043103Y-85808534D01*
X136008367Y-85827101D01*
X135970674Y-85838535D01*
X135925339Y-85843000D01*
X134838661Y-85843000D01*
X134793326Y-85838535D01*
X134755633Y-85827101D01*
X134720897Y-85808534D01*
X134690452Y-85783548D01*
X134665466Y-85753103D01*
X134646899Y-85718367D01*
X134635465Y-85680674D01*
X134631000Y-85635339D01*
X134631000Y-84798661D01*
X134635465Y-84753326D01*
X134646899Y-84715633D01*
X134665466Y-84680897D01*
X134690452Y-84650452D01*
X134720897Y-84625466D01*
X134755633Y-84606899D01*
X134793326Y-84595465D01*
X134838661Y-84591000D01*
X135925339Y-84591000D01*
X135970674Y-84595465D01*
G37*
G36*
X133684674Y-84595465D02*
G01*
X133722367Y-84606899D01*
X133757103Y-84625466D01*
X133787548Y-84650452D01*
X133812534Y-84680897D01*
X133831101Y-84715633D01*
X133842535Y-84753326D01*
X133847000Y-84798661D01*
X133847000Y-85635339D01*
X133842535Y-85680674D01*
X133831101Y-85718367D01*
X133812534Y-85753103D01*
X133787548Y-85783548D01*
X133757103Y-85808534D01*
X133722367Y-85827101D01*
X133684674Y-85838535D01*
X133639339Y-85843000D01*
X132552661Y-85843000D01*
X132507326Y-85838535D01*
X132469633Y-85827101D01*
X132434897Y-85808534D01*
X132404452Y-85783548D01*
X132379466Y-85753103D01*
X132360899Y-85718367D01*
X132349465Y-85680674D01*
X132345000Y-85635339D01*
X132345000Y-84798661D01*
X132349465Y-84753326D01*
X132360899Y-84715633D01*
X132379466Y-84680897D01*
X132404452Y-84650452D01*
X132434897Y-84625466D01*
X132469633Y-84606899D01*
X132507326Y-84595465D01*
X132552661Y-84591000D01*
X133639339Y-84591000D01*
X133684674Y-84595465D01*
G37*
G36*
X151243512Y-82923927D02*
G01*
X151392812Y-82953624D01*
X151556784Y-83021544D01*
X151704354Y-83120147D01*
X151829853Y-83245646D01*
X151928456Y-83393216D01*
X151996376Y-83557188D01*
X152031000Y-83731259D01*
X152031000Y-83908741D01*
X151996376Y-84082812D01*
X151928456Y-84246784D01*
X151829853Y-84394354D01*
X151704354Y-84519853D01*
X151556784Y-84618456D01*
X151392812Y-84686376D01*
X151245723Y-84715633D01*
X151218742Y-84721000D01*
X151041258Y-84721000D01*
X151014277Y-84715633D01*
X150867188Y-84686376D01*
X150703216Y-84618456D01*
X150555646Y-84519853D01*
X150430147Y-84394354D01*
X150331544Y-84246784D01*
X150263624Y-84082812D01*
X150229000Y-83908741D01*
X150229000Y-83731259D01*
X150263624Y-83557188D01*
X150331544Y-83393216D01*
X150430147Y-83245646D01*
X150555646Y-83120147D01*
X150703216Y-83021544D01*
X150867188Y-82953624D01*
X151016488Y-82923927D01*
X151041258Y-82919000D01*
X151218742Y-82919000D01*
X151243512Y-82923927D01*
G37*
G36*
X128383512Y-82923927D02*
G01*
X128532812Y-82953624D01*
X128696784Y-83021544D01*
X128844354Y-83120147D01*
X128969853Y-83245646D01*
X129068456Y-83393216D01*
X129136376Y-83557188D01*
X129171000Y-83731259D01*
X129171000Y-83908741D01*
X129136376Y-84082812D01*
X129068456Y-84246784D01*
X128969853Y-84394354D01*
X128844354Y-84519853D01*
X128696784Y-84618456D01*
X128532812Y-84686376D01*
X128385723Y-84715633D01*
X128358742Y-84721000D01*
X128181258Y-84721000D01*
X128154277Y-84715633D01*
X128007188Y-84686376D01*
X127843216Y-84618456D01*
X127695646Y-84519853D01*
X127570147Y-84394354D01*
X127471544Y-84246784D01*
X127403624Y-84082812D01*
X127369000Y-83908741D01*
X127369000Y-83731259D01*
X127403624Y-83557188D01*
X127471544Y-83393216D01*
X127570147Y-83245646D01*
X127695646Y-83120147D01*
X127843216Y-83021544D01*
X128007188Y-82953624D01*
X128156488Y-82923927D01*
X128181258Y-82919000D01*
X128358742Y-82919000D01*
X128383512Y-82923927D01*
G37*
G36*
X135970674Y-82545465D02*
G01*
X136008367Y-82556899D01*
X136043103Y-82575466D01*
X136073548Y-82600452D01*
X136098534Y-82630897D01*
X136117101Y-82665633D01*
X136128535Y-82703326D01*
X136133000Y-82748661D01*
X136133000Y-83585339D01*
X136128535Y-83630674D01*
X136117101Y-83668367D01*
X136098534Y-83703103D01*
X136073548Y-83733548D01*
X136043103Y-83758534D01*
X136008367Y-83777101D01*
X135970674Y-83788535D01*
X135925339Y-83793000D01*
X134838661Y-83793000D01*
X134793326Y-83788535D01*
X134755633Y-83777101D01*
X134720897Y-83758534D01*
X134690452Y-83733548D01*
X134665466Y-83703103D01*
X134646899Y-83668367D01*
X134635465Y-83630674D01*
X134631000Y-83585339D01*
X134631000Y-82748661D01*
X134635465Y-82703326D01*
X134646899Y-82665633D01*
X134665466Y-82630897D01*
X134690452Y-82600452D01*
X134720897Y-82575466D01*
X134755633Y-82556899D01*
X134793326Y-82545465D01*
X134838661Y-82541000D01*
X135925339Y-82541000D01*
X135970674Y-82545465D01*
G37*
G36*
X133684674Y-82545465D02*
G01*
X133722367Y-82556899D01*
X133757103Y-82575466D01*
X133787548Y-82600452D01*
X133812534Y-82630897D01*
X133831101Y-82665633D01*
X133842535Y-82703326D01*
X133847000Y-82748661D01*
X133847000Y-83585339D01*
X133842535Y-83630674D01*
X133831101Y-83668367D01*
X133812534Y-83703103D01*
X133787548Y-83733548D01*
X133757103Y-83758534D01*
X133722367Y-83777101D01*
X133684674Y-83788535D01*
X133639339Y-83793000D01*
X132552661Y-83793000D01*
X132507326Y-83788535D01*
X132469633Y-83777101D01*
X132434897Y-83758534D01*
X132404452Y-83733548D01*
X132379466Y-83703103D01*
X132360899Y-83668367D01*
X132349465Y-83630674D01*
X132345000Y-83585339D01*
X132345000Y-82748661D01*
X132349465Y-82703326D01*
X132360899Y-82665633D01*
X132379466Y-82630897D01*
X132404452Y-82600452D01*
X132434897Y-82575466D01*
X132469633Y-82556899D01*
X132507326Y-82545465D01*
X132552661Y-82541000D01*
X133639339Y-82541000D01*
X133684674Y-82545465D01*
G37*
G36*
X151243512Y-80383927D02*
G01*
X151392812Y-80413624D01*
X151556784Y-80481544D01*
X151704354Y-80580147D01*
X151829853Y-80705646D01*
X151928456Y-80853216D01*
X151996376Y-81017188D01*
X152031000Y-81191259D01*
X152031000Y-81368741D01*
X151996376Y-81542812D01*
X151928456Y-81706784D01*
X151829853Y-81854354D01*
X151704354Y-81979853D01*
X151556784Y-82078456D01*
X151392812Y-82146376D01*
X151243512Y-82176073D01*
X151218742Y-82181000D01*
X151041258Y-82181000D01*
X151016488Y-82176073D01*
X150867188Y-82146376D01*
X150703216Y-82078456D01*
X150555646Y-81979853D01*
X150430147Y-81854354D01*
X150331544Y-81706784D01*
X150263624Y-81542812D01*
X150229000Y-81368741D01*
X150229000Y-81191259D01*
X150263624Y-81017188D01*
X150331544Y-80853216D01*
X150430147Y-80705646D01*
X150555646Y-80580147D01*
X150703216Y-80481544D01*
X150867188Y-80413624D01*
X151016488Y-80383927D01*
X151041258Y-80379000D01*
X151218742Y-80379000D01*
X151243512Y-80383927D01*
G37*
G36*
X128383512Y-80383927D02*
G01*
X128532812Y-80413624D01*
X128696784Y-80481544D01*
X128844354Y-80580147D01*
X128969853Y-80705646D01*
X129068456Y-80853216D01*
X129136376Y-81017188D01*
X129171000Y-81191259D01*
X129171000Y-81368741D01*
X129136376Y-81542812D01*
X129068456Y-81706784D01*
X128969853Y-81854354D01*
X128844354Y-81979853D01*
X128696784Y-82078456D01*
X128532812Y-82146376D01*
X128383512Y-82176073D01*
X128358742Y-82181000D01*
X128181258Y-82181000D01*
X128156488Y-82176073D01*
X128007188Y-82146376D01*
X127843216Y-82078456D01*
X127695646Y-81979853D01*
X127570147Y-81854354D01*
X127471544Y-81706784D01*
X127403624Y-81542812D01*
X127369000Y-81368741D01*
X127369000Y-81191259D01*
X127403624Y-81017188D01*
X127471544Y-80853216D01*
X127570147Y-80705646D01*
X127695646Y-80580147D01*
X127843216Y-80481544D01*
X128007188Y-80413624D01*
X128156488Y-80383927D01*
X128181258Y-80379000D01*
X128358742Y-80379000D01*
X128383512Y-80383927D01*
G37*
G36*
X128383512Y-77843927D02*
G01*
X128532812Y-77873624D01*
X128696784Y-77941544D01*
X128844354Y-78040147D01*
X128969853Y-78165646D01*
X129068456Y-78313216D01*
X129136376Y-78477188D01*
X129171000Y-78651259D01*
X129171000Y-78828741D01*
X129136376Y-79002812D01*
X129068456Y-79166784D01*
X128969853Y-79314354D01*
X128844354Y-79439853D01*
X128696784Y-79538456D01*
X128532812Y-79606376D01*
X128383512Y-79636073D01*
X128358742Y-79641000D01*
X128181258Y-79641000D01*
X128156488Y-79636073D01*
X128007188Y-79606376D01*
X127843216Y-79538456D01*
X127695646Y-79439853D01*
X127570147Y-79314354D01*
X127471544Y-79166784D01*
X127403624Y-79002812D01*
X127369000Y-78828741D01*
X127369000Y-78651259D01*
X127403624Y-78477188D01*
X127471544Y-78313216D01*
X127570147Y-78165646D01*
X127695646Y-78040147D01*
X127843216Y-77941544D01*
X128007188Y-77873624D01*
X128156488Y-77843927D01*
X128181258Y-77839000D01*
X128358742Y-77839000D01*
X128383512Y-77843927D01*
G37*
G36*
X139813512Y-76573927D02*
G01*
X139962812Y-76603624D01*
X140126784Y-76671544D01*
X140274354Y-76770147D01*
X140399853Y-76895646D01*
X140498456Y-77043216D01*
X140566376Y-77207188D01*
X140601000Y-77381259D01*
X140601000Y-77558741D01*
X140566376Y-77732812D01*
X140498456Y-77896784D01*
X140399853Y-78044354D01*
X140274354Y-78169853D01*
X140126784Y-78268456D01*
X139962812Y-78336376D01*
X139813512Y-78366073D01*
X139788742Y-78371000D01*
X139611258Y-78371000D01*
X139586488Y-78366073D01*
X139437188Y-78336376D01*
X139273216Y-78268456D01*
X139125646Y-78169853D01*
X139000147Y-78044354D01*
X138901544Y-77896784D01*
X138833624Y-77732812D01*
X138799000Y-77558741D01*
X138799000Y-77381259D01*
X138833624Y-77207188D01*
X138901544Y-77043216D01*
X139000147Y-76895646D01*
X139125646Y-76770147D01*
X139273216Y-76671544D01*
X139437188Y-76603624D01*
X139586488Y-76573927D01*
X139611258Y-76569000D01*
X139788742Y-76569000D01*
X139813512Y-76573927D01*
G37*
G36*
X138061000Y-78371000D02*
G01*
X136259000Y-78371000D01*
X136259000Y-76569000D01*
X138061000Y-76569000D01*
X138061000Y-78371000D01*
G37*
G36*
X142353512Y-76573927D02*
G01*
X142502812Y-76603624D01*
X142666784Y-76671544D01*
X142814354Y-76770147D01*
X142939853Y-76895646D01*
X143038456Y-77043216D01*
X143106376Y-77207188D01*
X143141000Y-77381259D01*
X143141000Y-77558741D01*
X143106376Y-77732812D01*
X143038456Y-77896784D01*
X142939853Y-78044354D01*
X142814354Y-78169853D01*
X142666784Y-78268456D01*
X142502812Y-78336376D01*
X142353512Y-78366073D01*
X142328742Y-78371000D01*
X142151258Y-78371000D01*
X142126488Y-78366073D01*
X141977188Y-78336376D01*
X141813216Y-78268456D01*
X141665646Y-78169853D01*
X141540147Y-78044354D01*
X141441544Y-77896784D01*
X141373624Y-77732812D01*
X141339000Y-77558741D01*
X141339000Y-77381259D01*
X141373624Y-77207188D01*
X141441544Y-77043216D01*
X141540147Y-76895646D01*
X141665646Y-76770147D01*
X141813216Y-76671544D01*
X141977188Y-76603624D01*
X142126488Y-76573927D01*
X142151258Y-76569000D01*
X142328742Y-76569000D01*
X142353512Y-76573927D01*
G37*
M02*
