G04 #@! TF.GenerationSoftware,KiCad,Pcbnew,(5.1.5)-2*
G04 #@! TF.CreationDate,2019-12-31T22:23:39+04:00*
G04 #@! TF.ProjectId,stm32f042_devboard,73746d33-3266-4303-9432-5f646576626f,1*
G04 #@! TF.SameCoordinates,Original*
G04 #@! TF.FileFunction,Legend,Top*
G04 #@! TF.FilePolarity,Positive*
%FSLAX46Y46*%
G04 Gerber Fmt 4.6, Leading zero omitted, Abs format (unit mm)*
G04 Created by KiCad (PCBNEW (5.1.5)-2) date 2019-12-31 22:23:39*
%MOMM*%
%LPD*%
G04 APERTURE LIST*
%ADD10C,0.076200*%
%ADD11C,0.120000*%
%ADD12C,0.150000*%
G04 APERTURE END LIST*
D10*
X141949714Y-98361500D02*
X141913428Y-98343357D01*
X141859000Y-98343357D01*
X141804571Y-98361500D01*
X141768285Y-98397785D01*
X141750142Y-98434071D01*
X141732000Y-98506642D01*
X141732000Y-98561071D01*
X141750142Y-98633642D01*
X141768285Y-98669928D01*
X141804571Y-98706214D01*
X141859000Y-98724357D01*
X141895285Y-98724357D01*
X141949714Y-98706214D01*
X141967857Y-98688071D01*
X141967857Y-98561071D01*
X141895285Y-98561071D01*
X142131142Y-98724357D02*
X142131142Y-98343357D01*
X142348857Y-98724357D01*
X142348857Y-98343357D01*
X142530285Y-98724357D02*
X142530285Y-98343357D01*
X142621000Y-98343357D01*
X142675428Y-98361500D01*
X142711714Y-98397785D01*
X142729857Y-98434071D01*
X142748000Y-98506642D01*
X142748000Y-98561071D01*
X142729857Y-98633642D01*
X142711714Y-98669928D01*
X142675428Y-98706214D01*
X142621000Y-98724357D01*
X142530285Y-98724357D01*
X137087428Y-98343357D02*
X136906000Y-98343357D01*
X136887857Y-98524785D01*
X136906000Y-98506642D01*
X136942285Y-98488500D01*
X137033000Y-98488500D01*
X137069285Y-98506642D01*
X137087428Y-98524785D01*
X137105571Y-98561071D01*
X137105571Y-98651785D01*
X137087428Y-98688071D01*
X137069285Y-98706214D01*
X137033000Y-98724357D01*
X136942285Y-98724357D01*
X136906000Y-98706214D01*
X136887857Y-98688071D01*
X137214428Y-98343357D02*
X137341428Y-98724357D01*
X137468428Y-98343357D01*
X149542500Y-86069714D02*
X149560642Y-86033428D01*
X149560642Y-85979000D01*
X149542500Y-85924571D01*
X149506214Y-85888285D01*
X149469928Y-85870142D01*
X149397357Y-85852000D01*
X149342928Y-85852000D01*
X149270357Y-85870142D01*
X149234071Y-85888285D01*
X149197785Y-85924571D01*
X149179642Y-85979000D01*
X149179642Y-86015285D01*
X149197785Y-86069714D01*
X149215928Y-86087857D01*
X149342928Y-86087857D01*
X149342928Y-86015285D01*
X149179642Y-86251142D02*
X149560642Y-86251142D01*
X149179642Y-86468857D01*
X149560642Y-86468857D01*
X149179642Y-86650285D02*
X149560642Y-86650285D01*
X149560642Y-86741000D01*
X149542500Y-86795428D01*
X149506214Y-86831714D01*
X149469928Y-86849857D01*
X149397357Y-86868000D01*
X149342928Y-86868000D01*
X149270357Y-86849857D01*
X149234071Y-86831714D01*
X149197785Y-86795428D01*
X149179642Y-86741000D01*
X149179642Y-86650285D01*
X149560642Y-80717571D02*
X149560642Y-80953428D01*
X149415500Y-80826428D01*
X149415500Y-80880857D01*
X149397357Y-80917142D01*
X149379214Y-80935285D01*
X149342928Y-80953428D01*
X149252214Y-80953428D01*
X149215928Y-80935285D01*
X149197785Y-80917142D01*
X149179642Y-80880857D01*
X149179642Y-80772000D01*
X149197785Y-80735714D01*
X149215928Y-80717571D01*
X149215928Y-81116714D02*
X149197785Y-81134857D01*
X149179642Y-81116714D01*
X149197785Y-81098571D01*
X149215928Y-81116714D01*
X149179642Y-81116714D01*
X149560642Y-81261857D02*
X149560642Y-81497714D01*
X149415500Y-81370714D01*
X149415500Y-81425142D01*
X149397357Y-81461428D01*
X149379214Y-81479571D01*
X149342928Y-81497714D01*
X149252214Y-81497714D01*
X149215928Y-81479571D01*
X149197785Y-81461428D01*
X149179642Y-81425142D01*
X149179642Y-81316285D01*
X149197785Y-81280000D01*
X149215928Y-81261857D01*
X149560642Y-81606571D02*
X149179642Y-81733571D01*
X149560642Y-81860571D01*
X147809857Y-80309357D02*
X147592142Y-80309357D01*
X147701000Y-80309357D02*
X147701000Y-79928357D01*
X147664714Y-79982785D01*
X147628428Y-80019071D01*
X147592142Y-80037214D01*
X139046857Y-79311500D02*
X139228285Y-79311500D01*
X139010571Y-79420357D02*
X139137571Y-79039357D01*
X139264571Y-79420357D01*
X139391571Y-79420357D02*
X139391571Y-79039357D01*
X139482285Y-79039357D01*
X139536714Y-79057500D01*
X139573000Y-79093785D01*
X139591142Y-79130071D01*
X139609285Y-79202642D01*
X139609285Y-79257071D01*
X139591142Y-79329642D01*
X139573000Y-79365928D01*
X139536714Y-79402214D01*
X139482285Y-79420357D01*
X139391571Y-79420357D01*
X139990285Y-79384071D02*
X139972142Y-79402214D01*
X139917714Y-79420357D01*
X139881428Y-79420357D01*
X139827000Y-79402214D01*
X139790714Y-79365928D01*
X139772571Y-79329642D01*
X139754428Y-79257071D01*
X139754428Y-79202642D01*
X139772571Y-79130071D01*
X139790714Y-79093785D01*
X139827000Y-79057500D01*
X139881428Y-79039357D01*
X139917714Y-79039357D01*
X139972142Y-79057500D01*
X139990285Y-79075642D01*
X140226142Y-79039357D02*
X140262428Y-79039357D01*
X140298714Y-79057500D01*
X140316857Y-79075642D01*
X140335000Y-79111928D01*
X140353142Y-79184500D01*
X140353142Y-79275214D01*
X140335000Y-79347785D01*
X140316857Y-79384071D01*
X140298714Y-79402214D01*
X140262428Y-79420357D01*
X140226142Y-79420357D01*
X140189857Y-79402214D01*
X140171714Y-79384071D01*
X140153571Y-79347785D01*
X140135428Y-79275214D01*
X140135428Y-79184500D01*
X140153571Y-79111928D01*
X140171714Y-79075642D01*
X140189857Y-79057500D01*
X140226142Y-79039357D01*
X130202214Y-79202642D02*
X130220357Y-79148214D01*
X130220357Y-79057500D01*
X130202214Y-79021214D01*
X130184071Y-79003071D01*
X130147785Y-78984928D01*
X130111500Y-78984928D01*
X130075214Y-79003071D01*
X130057071Y-79021214D01*
X130038928Y-79057500D01*
X130020785Y-79130071D01*
X130002642Y-79166357D01*
X129984500Y-79184500D01*
X129948214Y-79202642D01*
X129911928Y-79202642D01*
X129875642Y-79184500D01*
X129857500Y-79166357D01*
X129839357Y-79130071D01*
X129839357Y-79039357D01*
X129857500Y-78984928D01*
X130220357Y-78821642D02*
X129839357Y-78821642D01*
X129839357Y-78730928D01*
X129857500Y-78676500D01*
X129893785Y-78640214D01*
X129930071Y-78622071D01*
X130002642Y-78603928D01*
X130057071Y-78603928D01*
X130129642Y-78622071D01*
X130165928Y-78640214D01*
X130202214Y-78676500D01*
X130220357Y-78730928D01*
X130220357Y-78821642D01*
X130111500Y-78458785D02*
X130111500Y-78277357D01*
X130220357Y-78495071D02*
X129839357Y-78368071D01*
X130220357Y-78241071D01*
X130202214Y-81733571D02*
X130220357Y-81679142D01*
X130220357Y-81588428D01*
X130202214Y-81552142D01*
X130184071Y-81534000D01*
X130147785Y-81515857D01*
X130111500Y-81515857D01*
X130075214Y-81534000D01*
X130057071Y-81552142D01*
X130038928Y-81588428D01*
X130020785Y-81661000D01*
X130002642Y-81697285D01*
X129984500Y-81715428D01*
X129948214Y-81733571D01*
X129911928Y-81733571D01*
X129875642Y-81715428D01*
X129857500Y-81697285D01*
X129839357Y-81661000D01*
X129839357Y-81570285D01*
X129857500Y-81515857D01*
X130184071Y-81134857D02*
X130202214Y-81153000D01*
X130220357Y-81207428D01*
X130220357Y-81243714D01*
X130202214Y-81298142D01*
X130165928Y-81334428D01*
X130129642Y-81352571D01*
X130057071Y-81370714D01*
X130002642Y-81370714D01*
X129930071Y-81352571D01*
X129893785Y-81334428D01*
X129857500Y-81298142D01*
X129839357Y-81243714D01*
X129839357Y-81207428D01*
X129857500Y-81153000D01*
X129875642Y-81134857D01*
X130220357Y-80790142D02*
X130220357Y-80971571D01*
X129839357Y-80971571D01*
X130220357Y-84064928D02*
X130038928Y-84191928D01*
X130220357Y-84282642D02*
X129839357Y-84282642D01*
X129839357Y-84137500D01*
X129857500Y-84101214D01*
X129875642Y-84083071D01*
X129911928Y-84064928D01*
X129966357Y-84064928D01*
X130002642Y-84083071D01*
X130020785Y-84101214D01*
X130038928Y-84137500D01*
X130038928Y-84282642D01*
X129839357Y-83937928D02*
X130220357Y-83683928D01*
X129839357Y-83683928D02*
X130220357Y-83937928D01*
X129875642Y-83556928D02*
X129857500Y-83538785D01*
X129839357Y-83502500D01*
X129839357Y-83411785D01*
X129857500Y-83375500D01*
X129875642Y-83357357D01*
X129911928Y-83339214D01*
X129948214Y-83339214D01*
X130002642Y-83357357D01*
X130220357Y-83575071D01*
X130220357Y-83339214D01*
X129839357Y-86831714D02*
X129839357Y-86614000D01*
X130220357Y-86722857D02*
X129839357Y-86722857D01*
X129839357Y-86523285D02*
X130220357Y-86269285D01*
X129839357Y-86269285D02*
X130220357Y-86523285D01*
X129875642Y-86142285D02*
X129857500Y-86124142D01*
X129839357Y-86087857D01*
X129839357Y-85997142D01*
X129857500Y-85960857D01*
X129875642Y-85942714D01*
X129911928Y-85924571D01*
X129948214Y-85924571D01*
X130002642Y-85942714D01*
X130220357Y-86160428D01*
X130220357Y-85924571D01*
X130220357Y-89344500D02*
X129839357Y-89344500D01*
X129839357Y-89199357D01*
X129857500Y-89163071D01*
X129875642Y-89144928D01*
X129911928Y-89126785D01*
X129966357Y-89126785D01*
X130002642Y-89144928D01*
X130020785Y-89163071D01*
X130038928Y-89199357D01*
X130038928Y-89344500D01*
X130111500Y-88981642D02*
X130111500Y-88800214D01*
X130220357Y-89017928D02*
X129839357Y-88890928D01*
X130220357Y-88763928D01*
X129839357Y-88455500D02*
X129839357Y-88636928D01*
X130020785Y-88655071D01*
X130002642Y-88636928D01*
X129984500Y-88600642D01*
X129984500Y-88509928D01*
X130002642Y-88473642D01*
X130020785Y-88455500D01*
X130057071Y-88437357D01*
X130147785Y-88437357D01*
X130184071Y-88455500D01*
X130202214Y-88473642D01*
X130220357Y-88509928D01*
X130220357Y-88600642D01*
X130202214Y-88636928D01*
X130184071Y-88655071D01*
X130220357Y-91884500D02*
X129839357Y-91884500D01*
X129839357Y-91739357D01*
X129857500Y-91703071D01*
X129875642Y-91684928D01*
X129911928Y-91666785D01*
X129966357Y-91666785D01*
X130002642Y-91684928D01*
X130020785Y-91703071D01*
X130038928Y-91739357D01*
X130038928Y-91884500D01*
X130111500Y-91521642D02*
X130111500Y-91340214D01*
X130220357Y-91557928D02*
X129839357Y-91430928D01*
X130220357Y-91303928D01*
X129839357Y-91013642D02*
X129839357Y-91086214D01*
X129857500Y-91122500D01*
X129875642Y-91140642D01*
X129930071Y-91176928D01*
X130002642Y-91195071D01*
X130147785Y-91195071D01*
X130184071Y-91176928D01*
X130202214Y-91158785D01*
X130220357Y-91122500D01*
X130220357Y-91049928D01*
X130202214Y-91013642D01*
X130184071Y-90995500D01*
X130147785Y-90977357D01*
X130057071Y-90977357D01*
X130020785Y-90995500D01*
X130002642Y-91013642D01*
X129984500Y-91049928D01*
X129984500Y-91122500D01*
X130002642Y-91158785D01*
X130020785Y-91176928D01*
X130057071Y-91195071D01*
X130220357Y-94424500D02*
X129839357Y-94424500D01*
X129839357Y-94279357D01*
X129857500Y-94243071D01*
X129875642Y-94224928D01*
X129911928Y-94206785D01*
X129966357Y-94206785D01*
X130002642Y-94224928D01*
X130020785Y-94243071D01*
X130038928Y-94279357D01*
X130038928Y-94424500D01*
X130111500Y-94061642D02*
X130111500Y-93880214D01*
X130220357Y-94097928D02*
X129839357Y-93970928D01*
X130220357Y-93843928D01*
X129839357Y-93753214D02*
X129839357Y-93499214D01*
X130220357Y-93662500D01*
X129857500Y-96810285D02*
X129839357Y-96846571D01*
X129839357Y-96901000D01*
X129857500Y-96955428D01*
X129893785Y-96991714D01*
X129930071Y-97009857D01*
X130002642Y-97028000D01*
X130057071Y-97028000D01*
X130129642Y-97009857D01*
X130165928Y-96991714D01*
X130202214Y-96955428D01*
X130220357Y-96901000D01*
X130220357Y-96864714D01*
X130202214Y-96810285D01*
X130184071Y-96792142D01*
X130057071Y-96792142D01*
X130057071Y-96864714D01*
X130220357Y-96628857D02*
X129839357Y-96628857D01*
X130220357Y-96411142D01*
X129839357Y-96411142D01*
X130220357Y-96229714D02*
X129839357Y-96229714D01*
X129839357Y-96139000D01*
X129857500Y-96084571D01*
X129893785Y-96048285D01*
X129930071Y-96030142D01*
X130002642Y-96012000D01*
X130057071Y-96012000D01*
X130129642Y-96030142D01*
X130165928Y-96048285D01*
X130202214Y-96084571D01*
X130220357Y-96139000D01*
X130220357Y-96229714D01*
X129839357Y-99622428D02*
X129839357Y-99386571D01*
X129984500Y-99513571D01*
X129984500Y-99459142D01*
X130002642Y-99422857D01*
X130020785Y-99404714D01*
X130057071Y-99386571D01*
X130147785Y-99386571D01*
X130184071Y-99404714D01*
X130202214Y-99422857D01*
X130220357Y-99459142D01*
X130220357Y-99568000D01*
X130202214Y-99604285D01*
X130184071Y-99622428D01*
X130184071Y-99223285D02*
X130202214Y-99205142D01*
X130220357Y-99223285D01*
X130202214Y-99241428D01*
X130184071Y-99223285D01*
X130220357Y-99223285D01*
X129839357Y-99078142D02*
X129839357Y-98842285D01*
X129984500Y-98969285D01*
X129984500Y-98914857D01*
X130002642Y-98878571D01*
X130020785Y-98860428D01*
X130057071Y-98842285D01*
X130147785Y-98842285D01*
X130184071Y-98860428D01*
X130202214Y-98878571D01*
X130220357Y-98914857D01*
X130220357Y-99023714D01*
X130202214Y-99060000D01*
X130184071Y-99078142D01*
X129839357Y-98733428D02*
X130220357Y-98606428D01*
X129839357Y-98479428D01*
X149197785Y-82958214D02*
X149179642Y-83012642D01*
X149179642Y-83103357D01*
X149197785Y-83139642D01*
X149215928Y-83157785D01*
X149252214Y-83175928D01*
X149288500Y-83175928D01*
X149324785Y-83157785D01*
X149342928Y-83139642D01*
X149361071Y-83103357D01*
X149379214Y-83030785D01*
X149397357Y-82994500D01*
X149415500Y-82976357D01*
X149451785Y-82958214D01*
X149488071Y-82958214D01*
X149524357Y-82976357D01*
X149542500Y-82994500D01*
X149560642Y-83030785D01*
X149560642Y-83121500D01*
X149542500Y-83175928D01*
X149560642Y-83302928D02*
X149179642Y-83393642D01*
X149451785Y-83466214D01*
X149179642Y-83538785D01*
X149560642Y-83629500D01*
X149215928Y-83992357D02*
X149197785Y-83974214D01*
X149179642Y-83919785D01*
X149179642Y-83883500D01*
X149197785Y-83829071D01*
X149234071Y-83792785D01*
X149270357Y-83774642D01*
X149342928Y-83756500D01*
X149397357Y-83756500D01*
X149469928Y-83774642D01*
X149506214Y-83792785D01*
X149542500Y-83829071D01*
X149560642Y-83883500D01*
X149560642Y-83919785D01*
X149542500Y-83974214D01*
X149524357Y-83992357D01*
X149179642Y-84337071D02*
X149179642Y-84155642D01*
X149560642Y-84155642D01*
X149179642Y-84464071D02*
X149560642Y-84464071D01*
X149179642Y-84681785D02*
X149397357Y-84518500D01*
X149560642Y-84681785D02*
X149342928Y-84464071D01*
X149197785Y-88092642D02*
X149179642Y-88147071D01*
X149179642Y-88237785D01*
X149197785Y-88274071D01*
X149215928Y-88292214D01*
X149252214Y-88310357D01*
X149288500Y-88310357D01*
X149324785Y-88292214D01*
X149342928Y-88274071D01*
X149361071Y-88237785D01*
X149379214Y-88165214D01*
X149397357Y-88128928D01*
X149415500Y-88110785D01*
X149451785Y-88092642D01*
X149488071Y-88092642D01*
X149524357Y-88110785D01*
X149542500Y-88128928D01*
X149560642Y-88165214D01*
X149560642Y-88255928D01*
X149542500Y-88310357D01*
X149560642Y-88437357D02*
X149179642Y-88528071D01*
X149451785Y-88600642D01*
X149179642Y-88673214D01*
X149560642Y-88763928D01*
X149179642Y-88909071D02*
X149560642Y-88909071D01*
X149560642Y-88999785D01*
X149542500Y-89054214D01*
X149506214Y-89090500D01*
X149469928Y-89108642D01*
X149397357Y-89126785D01*
X149342928Y-89126785D01*
X149270357Y-89108642D01*
X149234071Y-89090500D01*
X149197785Y-89054214D01*
X149179642Y-88999785D01*
X149179642Y-88909071D01*
X149179642Y-89290071D02*
X149560642Y-89290071D01*
X149560642Y-89544071D02*
X149560642Y-89616642D01*
X149542500Y-89652928D01*
X149506214Y-89689214D01*
X149433642Y-89707357D01*
X149306642Y-89707357D01*
X149234071Y-89689214D01*
X149197785Y-89652928D01*
X149179642Y-89616642D01*
X149179642Y-89544071D01*
X149197785Y-89507785D01*
X149234071Y-89471500D01*
X149306642Y-89453357D01*
X149433642Y-89453357D01*
X149506214Y-89471500D01*
X149542500Y-89507785D01*
X149560642Y-89544071D01*
X149197785Y-79257071D02*
X149215928Y-79202642D01*
X149234071Y-79184500D01*
X149270357Y-79166357D01*
X149324785Y-79166357D01*
X149361071Y-79184500D01*
X149379214Y-79202642D01*
X149397357Y-79238928D01*
X149397357Y-79384071D01*
X149016357Y-79384071D01*
X149016357Y-79257071D01*
X149034500Y-79220785D01*
X149052642Y-79202642D01*
X149088928Y-79184500D01*
X149125214Y-79184500D01*
X149161500Y-79202642D01*
X149179642Y-79220785D01*
X149197785Y-79257071D01*
X149197785Y-79384071D01*
X149016357Y-78930500D02*
X149016357Y-78857928D01*
X149034500Y-78821642D01*
X149070785Y-78785357D01*
X149143357Y-78767214D01*
X149270357Y-78767214D01*
X149342928Y-78785357D01*
X149379214Y-78821642D01*
X149397357Y-78857928D01*
X149397357Y-78930500D01*
X149379214Y-78966785D01*
X149342928Y-79003071D01*
X149270357Y-79021214D01*
X149143357Y-79021214D01*
X149070785Y-79003071D01*
X149034500Y-78966785D01*
X149016357Y-78930500D01*
X149016357Y-78531357D02*
X149016357Y-78458785D01*
X149034500Y-78422500D01*
X149070785Y-78386214D01*
X149143357Y-78368071D01*
X149270357Y-78368071D01*
X149342928Y-78386214D01*
X149379214Y-78422500D01*
X149397357Y-78458785D01*
X149397357Y-78531357D01*
X149379214Y-78567642D01*
X149342928Y-78603928D01*
X149270357Y-78622071D01*
X149143357Y-78622071D01*
X149070785Y-78603928D01*
X149034500Y-78567642D01*
X149016357Y-78531357D01*
X149016357Y-78259214D02*
X149016357Y-78041500D01*
X149397357Y-78150357D02*
X149016357Y-78150357D01*
D11*
X144538000Y-78313000D02*
G75*
G02X145238000Y-77613000I700000J0D01*
G01*
X145238000Y-79613000D02*
G75*
G02X144538000Y-78913000I0J700000D01*
G01*
X148638000Y-78913000D02*
G75*
G02X147938000Y-79613000I-700000J0D01*
G01*
X147938000Y-77613000D02*
G75*
G02X148638000Y-78313000I0J-700000D01*
G01*
X145188000Y-77613000D02*
X147988000Y-77613000D01*
X148638000Y-78313000D02*
X148638000Y-78913000D01*
X147988000Y-79613000D02*
X145188000Y-79613000D01*
X144538000Y-78913000D02*
X144538000Y-78313000D01*
X145388000Y-79813000D02*
X145088000Y-80113000D01*
X145088000Y-80113000D02*
X145688000Y-80113000D01*
X145388000Y-79813000D02*
X145688000Y-80113000D01*
X138775000Y-86543000D02*
X135915000Y-86543000D01*
X138775000Y-88463000D02*
X138775000Y-86543000D01*
X135915000Y-88463000D02*
X138775000Y-88463000D01*
X130612000Y-93399000D02*
X130612000Y-96259000D01*
X132532000Y-93399000D02*
X130612000Y-93399000D01*
X132532000Y-96259000D02*
X132532000Y-93399000D01*
X135830000Y-101660000D02*
X135830000Y-100330000D01*
X137160000Y-101660000D02*
X135830000Y-101660000D01*
X138430000Y-101660000D02*
X138430000Y-99000000D01*
X138430000Y-99000000D02*
X143570000Y-99000000D01*
X138430000Y-101660000D02*
X143570000Y-101660000D01*
X143570000Y-101660000D02*
X143570000Y-99000000D01*
X135830000Y-78800000D02*
X135830000Y-77470000D01*
X137160000Y-78800000D02*
X135830000Y-78800000D01*
X138430000Y-78800000D02*
X138430000Y-76140000D01*
X138430000Y-76140000D02*
X143570000Y-76140000D01*
X138430000Y-78800000D02*
X143570000Y-78800000D01*
X143570000Y-78800000D02*
X143570000Y-76140000D01*
X129600000Y-100390000D02*
X128270000Y-100390000D01*
X129600000Y-99060000D02*
X129600000Y-100390000D01*
X129600000Y-97790000D02*
X126940000Y-97790000D01*
X126940000Y-97790000D02*
X126940000Y-77410000D01*
X129600000Y-97790000D02*
X129600000Y-77410000D01*
X129600000Y-77410000D02*
X126940000Y-77410000D01*
X143418000Y-95688000D02*
X143418000Y-93288000D01*
X143418000Y-97698000D02*
X143418000Y-97288000D01*
X136998000Y-97698000D02*
X143418000Y-97698000D01*
X136998000Y-97288000D02*
X136998000Y-97698000D01*
X136998000Y-93288000D02*
X136998000Y-95688000D01*
X136998000Y-91278000D02*
X136998000Y-91558000D01*
X143418000Y-91278000D02*
X136998000Y-91278000D01*
X143418000Y-91688000D02*
X143418000Y-91278000D01*
X137176252Y-84634000D02*
X136653748Y-84634000D01*
X137176252Y-86054000D02*
X136653748Y-86054000D01*
X134314000Y-95502252D02*
X134314000Y-94979748D01*
X132894000Y-95502252D02*
X132894000Y-94979748D01*
X152460000Y-90230000D02*
X151130000Y-90230000D01*
X152460000Y-88900000D02*
X152460000Y-90230000D01*
X152460000Y-87630000D02*
X149800000Y-87630000D01*
X149800000Y-87630000D02*
X149800000Y-79950000D01*
X152460000Y-87630000D02*
X152460000Y-79950000D01*
X152460000Y-79950000D02*
X149800000Y-79950000D01*
X134926000Y-81281748D02*
X134926000Y-81804252D01*
X136346000Y-81281748D02*
X136346000Y-81804252D01*
D12*
X146706000Y-81848000D02*
X146706000Y-87823000D01*
X139806000Y-83373000D02*
X139806000Y-87823000D01*
D10*
X146388666Y-79858809D02*
X146388666Y-80221666D01*
X146364476Y-80294238D01*
X146316095Y-80342619D01*
X146243523Y-80366809D01*
X146195142Y-80366809D01*
X146848285Y-79858809D02*
X146751523Y-79858809D01*
X146703142Y-79883000D01*
X146678952Y-79907190D01*
X146630571Y-79979761D01*
X146606380Y-80076523D01*
X146606380Y-80270047D01*
X146630571Y-80318428D01*
X146654761Y-80342619D01*
X146703142Y-80366809D01*
X146799904Y-80366809D01*
X146848285Y-80342619D01*
X146872476Y-80318428D01*
X146896666Y-80270047D01*
X146896666Y-80149095D01*
X146872476Y-80100714D01*
X146848285Y-80076523D01*
X146799904Y-80052333D01*
X146703142Y-80052333D01*
X146654761Y-80076523D01*
X146630571Y-80100714D01*
X146606380Y-80149095D01*
X136549047Y-89256809D02*
X136549047Y-88748809D01*
X136670000Y-88748809D01*
X136742571Y-88773000D01*
X136790952Y-88821380D01*
X136815142Y-88869761D01*
X136839333Y-88966523D01*
X136839333Y-89039095D01*
X136815142Y-89135857D01*
X136790952Y-89184238D01*
X136742571Y-89232619D01*
X136670000Y-89256809D01*
X136549047Y-89256809D01*
X137032857Y-88797190D02*
X137057047Y-88773000D01*
X137105428Y-88748809D01*
X137226380Y-88748809D01*
X137274761Y-88773000D01*
X137298952Y-88797190D01*
X137323142Y-88845571D01*
X137323142Y-88893952D01*
X137298952Y-88966523D01*
X137008666Y-89256809D01*
X137323142Y-89256809D01*
X131197047Y-97647809D02*
X131197047Y-97139809D01*
X131318000Y-97139809D01*
X131390571Y-97164000D01*
X131438952Y-97212380D01*
X131463142Y-97260761D01*
X131487333Y-97357523D01*
X131487333Y-97430095D01*
X131463142Y-97526857D01*
X131438952Y-97575238D01*
X131390571Y-97623619D01*
X131318000Y-97647809D01*
X131197047Y-97647809D01*
X131971142Y-97647809D02*
X131680857Y-97647809D01*
X131826000Y-97647809D02*
X131826000Y-97139809D01*
X131777619Y-97212380D01*
X131729238Y-97260761D01*
X131680857Y-97284952D01*
X143975666Y-99035809D02*
X143975666Y-99398666D01*
X143951476Y-99471238D01*
X143903095Y-99519619D01*
X143830523Y-99543809D01*
X143782142Y-99543809D01*
X144459476Y-99035809D02*
X144217571Y-99035809D01*
X144193380Y-99277714D01*
X144217571Y-99253523D01*
X144265952Y-99229333D01*
X144386904Y-99229333D01*
X144435285Y-99253523D01*
X144459476Y-99277714D01*
X144483666Y-99326095D01*
X144483666Y-99447047D01*
X144459476Y-99495428D01*
X144435285Y-99519619D01*
X144386904Y-99543809D01*
X144265952Y-99543809D01*
X144217571Y-99519619D01*
X144193380Y-99495428D01*
X134958666Y-77318809D02*
X134958666Y-77681666D01*
X134934476Y-77754238D01*
X134886095Y-77802619D01*
X134813523Y-77826809D01*
X134765142Y-77826809D01*
X135418285Y-77488142D02*
X135418285Y-77826809D01*
X135297333Y-77294619D02*
X135176380Y-77657476D01*
X135490857Y-77657476D01*
X128100666Y-100813809D02*
X128100666Y-101176666D01*
X128076476Y-101249238D01*
X128028095Y-101297619D01*
X127955523Y-101321809D01*
X127907142Y-101321809D01*
X128294190Y-100813809D02*
X128608666Y-100813809D01*
X128439333Y-101007333D01*
X128511904Y-101007333D01*
X128560285Y-101031523D01*
X128584476Y-101055714D01*
X128608666Y-101104095D01*
X128608666Y-101225047D01*
X128584476Y-101273428D01*
X128560285Y-101297619D01*
X128511904Y-101321809D01*
X128366761Y-101321809D01*
X128318380Y-101297619D01*
X128294190Y-101273428D01*
X139530666Y-90453619D02*
X139603238Y-90477809D01*
X139724190Y-90477809D01*
X139772571Y-90453619D01*
X139796761Y-90429428D01*
X139820952Y-90381047D01*
X139820952Y-90332666D01*
X139796761Y-90284285D01*
X139772571Y-90260095D01*
X139724190Y-90235904D01*
X139627428Y-90211714D01*
X139579047Y-90187523D01*
X139554857Y-90163333D01*
X139530666Y-90114952D01*
X139530666Y-90066571D01*
X139554857Y-90018190D01*
X139579047Y-89994000D01*
X139627428Y-89969809D01*
X139748380Y-89969809D01*
X139820952Y-89994000D01*
X139990285Y-89969809D02*
X140111238Y-90477809D01*
X140208000Y-90114952D01*
X140304761Y-90477809D01*
X140425714Y-89969809D01*
X140885333Y-90477809D02*
X140595047Y-90477809D01*
X140740190Y-90477809D02*
X140740190Y-89969809D01*
X140691809Y-90042380D01*
X140643428Y-90090761D01*
X140595047Y-90114952D01*
X136830333Y-84303809D02*
X136661000Y-84061904D01*
X136540047Y-84303809D02*
X136540047Y-83795809D01*
X136733571Y-83795809D01*
X136781952Y-83820000D01*
X136806142Y-83844190D01*
X136830333Y-83892571D01*
X136830333Y-83965142D01*
X136806142Y-84013523D01*
X136781952Y-84037714D01*
X136733571Y-84061904D01*
X136540047Y-84061904D01*
X137023857Y-83844190D02*
X137048047Y-83820000D01*
X137096428Y-83795809D01*
X137217380Y-83795809D01*
X137265761Y-83820000D01*
X137289952Y-83844190D01*
X137314142Y-83892571D01*
X137314142Y-83940952D01*
X137289952Y-84013523D01*
X136999666Y-84303809D01*
X137314142Y-84303809D01*
X133519333Y-93320809D02*
X133350000Y-93078904D01*
X133229047Y-93320809D02*
X133229047Y-92812809D01*
X133422571Y-92812809D01*
X133470952Y-92837000D01*
X133495142Y-92861190D01*
X133519333Y-92909571D01*
X133519333Y-92982142D01*
X133495142Y-93030523D01*
X133470952Y-93054714D01*
X133422571Y-93078904D01*
X133229047Y-93078904D01*
X134003142Y-93320809D02*
X133712857Y-93320809D01*
X133858000Y-93320809D02*
X133858000Y-92812809D01*
X133809619Y-92885380D01*
X133761238Y-92933761D01*
X133712857Y-92957952D01*
X150960666Y-78969809D02*
X150960666Y-79332666D01*
X150936476Y-79405238D01*
X150888095Y-79453619D01*
X150815523Y-79477809D01*
X150767142Y-79477809D01*
X151178380Y-79018190D02*
X151202571Y-78994000D01*
X151250952Y-78969809D01*
X151371904Y-78969809D01*
X151420285Y-78994000D01*
X151444476Y-79018190D01*
X151468666Y-79066571D01*
X151468666Y-79114952D01*
X151444476Y-79187523D01*
X151154190Y-79477809D01*
X151468666Y-79477809D01*
X134420428Y-80602666D02*
X134444619Y-80626857D01*
X134468809Y-80699428D01*
X134468809Y-80747809D01*
X134444619Y-80820380D01*
X134396238Y-80868761D01*
X134347857Y-80892952D01*
X134251095Y-80917142D01*
X134178523Y-80917142D01*
X134081761Y-80892952D01*
X134033380Y-80868761D01*
X133985000Y-80820380D01*
X133960809Y-80747809D01*
X133960809Y-80699428D01*
X133985000Y-80626857D01*
X134009190Y-80602666D01*
X133960809Y-80143047D02*
X133960809Y-80384952D01*
X134202714Y-80409142D01*
X134178523Y-80384952D01*
X134154333Y-80336571D01*
X134154333Y-80215619D01*
X134178523Y-80167238D01*
X134202714Y-80143047D01*
X134251095Y-80118857D01*
X134372047Y-80118857D01*
X134420428Y-80143047D01*
X134444619Y-80167238D01*
X134468809Y-80215619D01*
X134468809Y-80336571D01*
X134444619Y-80384952D01*
X134420428Y-80409142D01*
X147041809Y-82937047D02*
X147453047Y-82937047D01*
X147501428Y-82912857D01*
X147525619Y-82888666D01*
X147549809Y-82840285D01*
X147549809Y-82743523D01*
X147525619Y-82695142D01*
X147501428Y-82670952D01*
X147453047Y-82646761D01*
X147041809Y-82646761D01*
X147549809Y-82138761D02*
X147549809Y-82429047D01*
X147549809Y-82283904D02*
X147041809Y-82283904D01*
X147114380Y-82332285D01*
X147162761Y-82380666D01*
X147186952Y-82429047D01*
M02*
