G04 #@! TF.GenerationSoftware,KiCad,Pcbnew,(5.1.5)-3*
G04 #@! TF.CreationDate,2019-12-31T17:34:34+04:00*
G04 #@! TF.ProjectId,stm32f042_devboard,73746d33-3266-4303-9432-5f646576626f,1*
G04 #@! TF.SameCoordinates,Original*
G04 #@! TF.FileFunction,Copper,L1,Top*
G04 #@! TF.FilePolarity,Positive*
%FSLAX46Y46*%
G04 Gerber Fmt 4.6, Leading zero omitted, Abs format (unit mm)*
G04 Created by KiCad (PCBNEW (5.1.5)-3) date 2019-12-31 17:34:34*
%MOMM*%
%LPD*%
G04 APERTURE LIST*
%ADD10C,0.100000*%
%ADD11R,1.000000X1.500000*%
%ADD12O,1.700000X1.700000*%
%ADD13R,1.700000X1.700000*%
%ADD14R,2.800000X1.000000*%
%ADD15O,1.700000X1.350000*%
%ADD16O,1.500000X1.100000*%
%ADD17R,0.450000X1.450000*%
%ADD18C,0.500000*%
%ADD19C,0.254000*%
%ADD20C,0.250000*%
G04 APERTURE END LIST*
D10*
G36*
X145688000Y-78313000D02*
G01*
X146188000Y-78313000D01*
X146188000Y-78913000D01*
X145688000Y-78913000D01*
X145688000Y-78313000D01*
G37*
G04 #@! TA.AperFunction,SMDPad,CuDef*
G36*
X145838000Y-79363000D02*
G01*
X145288000Y-79363000D01*
X145288000Y-79362398D01*
X145263466Y-79362398D01*
X145214635Y-79357588D01*
X145166510Y-79348016D01*
X145119555Y-79333772D01*
X145074222Y-79314995D01*
X145030949Y-79291864D01*
X144990150Y-79264604D01*
X144952221Y-79233476D01*
X144917524Y-79198779D01*
X144886396Y-79160850D01*
X144859136Y-79120051D01*
X144836005Y-79076778D01*
X144817228Y-79031445D01*
X144802984Y-78984490D01*
X144793412Y-78936365D01*
X144788602Y-78887534D01*
X144788602Y-78863000D01*
X144788000Y-78863000D01*
X144788000Y-78363000D01*
X144788602Y-78363000D01*
X144788602Y-78338466D01*
X144793412Y-78289635D01*
X144802984Y-78241510D01*
X144817228Y-78194555D01*
X144836005Y-78149222D01*
X144859136Y-78105949D01*
X144886396Y-78065150D01*
X144917524Y-78027221D01*
X144952221Y-77992524D01*
X144990150Y-77961396D01*
X145030949Y-77934136D01*
X145074222Y-77911005D01*
X145119555Y-77892228D01*
X145166510Y-77877984D01*
X145214635Y-77868412D01*
X145263466Y-77863602D01*
X145288000Y-77863602D01*
X145288000Y-77863000D01*
X145838000Y-77863000D01*
X145838000Y-79363000D01*
G37*
G04 #@! TD.AperFunction*
D11*
X146588000Y-78613000D03*
G04 #@! TA.AperFunction,SMDPad,CuDef*
D10*
G36*
X147888000Y-77863602D02*
G01*
X147912534Y-77863602D01*
X147961365Y-77868412D01*
X148009490Y-77877984D01*
X148056445Y-77892228D01*
X148101778Y-77911005D01*
X148145051Y-77934136D01*
X148185850Y-77961396D01*
X148223779Y-77992524D01*
X148258476Y-78027221D01*
X148289604Y-78065150D01*
X148316864Y-78105949D01*
X148339995Y-78149222D01*
X148358772Y-78194555D01*
X148373016Y-78241510D01*
X148382588Y-78289635D01*
X148387398Y-78338466D01*
X148387398Y-78363000D01*
X148388000Y-78363000D01*
X148388000Y-78863000D01*
X148387398Y-78863000D01*
X148387398Y-78887534D01*
X148382588Y-78936365D01*
X148373016Y-78984490D01*
X148358772Y-79031445D01*
X148339995Y-79076778D01*
X148316864Y-79120051D01*
X148289604Y-79160850D01*
X148258476Y-79198779D01*
X148223779Y-79233476D01*
X148185850Y-79264604D01*
X148145051Y-79291864D01*
X148101778Y-79314995D01*
X148056445Y-79333772D01*
X148009490Y-79348016D01*
X147961365Y-79357588D01*
X147912534Y-79362398D01*
X147888000Y-79362398D01*
X147888000Y-79363000D01*
X147338000Y-79363000D01*
X147338000Y-77863000D01*
X147888000Y-77863000D01*
X147888000Y-77863602D01*
G37*
G04 #@! TD.AperFunction*
G04 #@! TA.AperFunction,SMDPad,CuDef*
G36*
X135602505Y-87074204D02*
G01*
X135626773Y-87077804D01*
X135650572Y-87083765D01*
X135673671Y-87092030D01*
X135695850Y-87102520D01*
X135716893Y-87115132D01*
X135736599Y-87129747D01*
X135754777Y-87146223D01*
X135771253Y-87164401D01*
X135785868Y-87184107D01*
X135798480Y-87205150D01*
X135808970Y-87227329D01*
X135817235Y-87250428D01*
X135823196Y-87274227D01*
X135826796Y-87298495D01*
X135828000Y-87322999D01*
X135828000Y-87973001D01*
X135826796Y-87997505D01*
X135823196Y-88021773D01*
X135817235Y-88045572D01*
X135808970Y-88068671D01*
X135798480Y-88090850D01*
X135785868Y-88111893D01*
X135771253Y-88131599D01*
X135754777Y-88149777D01*
X135736599Y-88166253D01*
X135716893Y-88180868D01*
X135695850Y-88193480D01*
X135673671Y-88203970D01*
X135650572Y-88212235D01*
X135626773Y-88218196D01*
X135602505Y-88221796D01*
X135578001Y-88223000D01*
X134677999Y-88223000D01*
X134653495Y-88221796D01*
X134629227Y-88218196D01*
X134605428Y-88212235D01*
X134582329Y-88203970D01*
X134560150Y-88193480D01*
X134539107Y-88180868D01*
X134519401Y-88166253D01*
X134501223Y-88149777D01*
X134484747Y-88131599D01*
X134470132Y-88111893D01*
X134457520Y-88090850D01*
X134447030Y-88068671D01*
X134438765Y-88045572D01*
X134432804Y-88021773D01*
X134429204Y-87997505D01*
X134428000Y-87973001D01*
X134428000Y-87322999D01*
X134429204Y-87298495D01*
X134432804Y-87274227D01*
X134438765Y-87250428D01*
X134447030Y-87227329D01*
X134457520Y-87205150D01*
X134470132Y-87184107D01*
X134484747Y-87164401D01*
X134501223Y-87146223D01*
X134519401Y-87129747D01*
X134539107Y-87115132D01*
X134560150Y-87102520D01*
X134582329Y-87092030D01*
X134605428Y-87083765D01*
X134629227Y-87077804D01*
X134653495Y-87074204D01*
X134677999Y-87073000D01*
X135578001Y-87073000D01*
X135602505Y-87074204D01*
G37*
G04 #@! TD.AperFunction*
G04 #@! TA.AperFunction,SMDPad,CuDef*
G36*
X135602505Y-85024204D02*
G01*
X135626773Y-85027804D01*
X135650572Y-85033765D01*
X135673671Y-85042030D01*
X135695850Y-85052520D01*
X135716893Y-85065132D01*
X135736599Y-85079747D01*
X135754777Y-85096223D01*
X135771253Y-85114401D01*
X135785868Y-85134107D01*
X135798480Y-85155150D01*
X135808970Y-85177329D01*
X135817235Y-85200428D01*
X135823196Y-85224227D01*
X135826796Y-85248495D01*
X135828000Y-85272999D01*
X135828000Y-85923001D01*
X135826796Y-85947505D01*
X135823196Y-85971773D01*
X135817235Y-85995572D01*
X135808970Y-86018671D01*
X135798480Y-86040850D01*
X135785868Y-86061893D01*
X135771253Y-86081599D01*
X135754777Y-86099777D01*
X135736599Y-86116253D01*
X135716893Y-86130868D01*
X135695850Y-86143480D01*
X135673671Y-86153970D01*
X135650572Y-86162235D01*
X135626773Y-86168196D01*
X135602505Y-86171796D01*
X135578001Y-86173000D01*
X134677999Y-86173000D01*
X134653495Y-86171796D01*
X134629227Y-86168196D01*
X134605428Y-86162235D01*
X134582329Y-86153970D01*
X134560150Y-86143480D01*
X134539107Y-86130868D01*
X134519401Y-86116253D01*
X134501223Y-86099777D01*
X134484747Y-86081599D01*
X134470132Y-86061893D01*
X134457520Y-86040850D01*
X134447030Y-86018671D01*
X134438765Y-85995572D01*
X134432804Y-85971773D01*
X134429204Y-85947505D01*
X134428000Y-85923001D01*
X134428000Y-85272999D01*
X134429204Y-85248495D01*
X134432804Y-85224227D01*
X134438765Y-85200428D01*
X134447030Y-85177329D01*
X134457520Y-85155150D01*
X134470132Y-85134107D01*
X134484747Y-85114401D01*
X134501223Y-85096223D01*
X134519401Y-85079747D01*
X134539107Y-85065132D01*
X134560150Y-85052520D01*
X134582329Y-85042030D01*
X134605428Y-85033765D01*
X134629227Y-85027804D01*
X134653495Y-85024204D01*
X134677999Y-85023000D01*
X135578001Y-85023000D01*
X135602505Y-85024204D01*
G37*
G04 #@! TD.AperFunction*
G04 #@! TA.AperFunction,SMDPad,CuDef*
G36*
X132046505Y-95710204D02*
G01*
X132070773Y-95713804D01*
X132094572Y-95719765D01*
X132117671Y-95728030D01*
X132139850Y-95738520D01*
X132160893Y-95751132D01*
X132180599Y-95765747D01*
X132198777Y-95782223D01*
X132215253Y-95800401D01*
X132229868Y-95820107D01*
X132242480Y-95841150D01*
X132252970Y-95863329D01*
X132261235Y-95886428D01*
X132267196Y-95910227D01*
X132270796Y-95934495D01*
X132272000Y-95958999D01*
X132272000Y-96609001D01*
X132270796Y-96633505D01*
X132267196Y-96657773D01*
X132261235Y-96681572D01*
X132252970Y-96704671D01*
X132242480Y-96726850D01*
X132229868Y-96747893D01*
X132215253Y-96767599D01*
X132198777Y-96785777D01*
X132180599Y-96802253D01*
X132160893Y-96816868D01*
X132139850Y-96829480D01*
X132117671Y-96839970D01*
X132094572Y-96848235D01*
X132070773Y-96854196D01*
X132046505Y-96857796D01*
X132022001Y-96859000D01*
X131121999Y-96859000D01*
X131097495Y-96857796D01*
X131073227Y-96854196D01*
X131049428Y-96848235D01*
X131026329Y-96839970D01*
X131004150Y-96829480D01*
X130983107Y-96816868D01*
X130963401Y-96802253D01*
X130945223Y-96785777D01*
X130928747Y-96767599D01*
X130914132Y-96747893D01*
X130901520Y-96726850D01*
X130891030Y-96704671D01*
X130882765Y-96681572D01*
X130876804Y-96657773D01*
X130873204Y-96633505D01*
X130872000Y-96609001D01*
X130872000Y-95958999D01*
X130873204Y-95934495D01*
X130876804Y-95910227D01*
X130882765Y-95886428D01*
X130891030Y-95863329D01*
X130901520Y-95841150D01*
X130914132Y-95820107D01*
X130928747Y-95800401D01*
X130945223Y-95782223D01*
X130963401Y-95765747D01*
X130983107Y-95751132D01*
X131004150Y-95738520D01*
X131026329Y-95728030D01*
X131049428Y-95719765D01*
X131073227Y-95713804D01*
X131097495Y-95710204D01*
X131121999Y-95709000D01*
X132022001Y-95709000D01*
X132046505Y-95710204D01*
G37*
G04 #@! TD.AperFunction*
G04 #@! TA.AperFunction,SMDPad,CuDef*
G36*
X132046505Y-93660204D02*
G01*
X132070773Y-93663804D01*
X132094572Y-93669765D01*
X132117671Y-93678030D01*
X132139850Y-93688520D01*
X132160893Y-93701132D01*
X132180599Y-93715747D01*
X132198777Y-93732223D01*
X132215253Y-93750401D01*
X132229868Y-93770107D01*
X132242480Y-93791150D01*
X132252970Y-93813329D01*
X132261235Y-93836428D01*
X132267196Y-93860227D01*
X132270796Y-93884495D01*
X132272000Y-93908999D01*
X132272000Y-94559001D01*
X132270796Y-94583505D01*
X132267196Y-94607773D01*
X132261235Y-94631572D01*
X132252970Y-94654671D01*
X132242480Y-94676850D01*
X132229868Y-94697893D01*
X132215253Y-94717599D01*
X132198777Y-94735777D01*
X132180599Y-94752253D01*
X132160893Y-94766868D01*
X132139850Y-94779480D01*
X132117671Y-94789970D01*
X132094572Y-94798235D01*
X132070773Y-94804196D01*
X132046505Y-94807796D01*
X132022001Y-94809000D01*
X131121999Y-94809000D01*
X131097495Y-94807796D01*
X131073227Y-94804196D01*
X131049428Y-94798235D01*
X131026329Y-94789970D01*
X131004150Y-94779480D01*
X130983107Y-94766868D01*
X130963401Y-94752253D01*
X130945223Y-94735777D01*
X130928747Y-94717599D01*
X130914132Y-94697893D01*
X130901520Y-94676850D01*
X130891030Y-94654671D01*
X130882765Y-94631572D01*
X130876804Y-94607773D01*
X130873204Y-94583505D01*
X130872000Y-94559001D01*
X130872000Y-93908999D01*
X130873204Y-93884495D01*
X130876804Y-93860227D01*
X130882765Y-93836428D01*
X130891030Y-93813329D01*
X130901520Y-93791150D01*
X130914132Y-93770107D01*
X130928747Y-93750401D01*
X130945223Y-93732223D01*
X130963401Y-93715747D01*
X130983107Y-93701132D01*
X131004150Y-93688520D01*
X131026329Y-93678030D01*
X131049428Y-93669765D01*
X131073227Y-93663804D01*
X131097495Y-93660204D01*
X131121999Y-93659000D01*
X132022001Y-93659000D01*
X132046505Y-93660204D01*
G37*
G04 #@! TD.AperFunction*
D12*
X142240000Y-100330000D03*
X139700000Y-100330000D03*
D13*
X137160000Y-100330000D03*
D12*
X142240000Y-77470000D03*
X139700000Y-77470000D03*
D13*
X137160000Y-77470000D03*
D12*
X128270000Y-78740000D03*
X128270000Y-81280000D03*
X128270000Y-83820000D03*
X128270000Y-86360000D03*
X128270000Y-88900000D03*
X128270000Y-91440000D03*
X128270000Y-93980000D03*
X128270000Y-96520000D03*
D13*
X128270000Y-99060000D03*
D14*
X137308000Y-92488000D03*
X143108000Y-92488000D03*
X137308000Y-96488000D03*
X143108000Y-96488000D03*
G04 #@! TA.AperFunction,SMDPad,CuDef*
D10*
G36*
X133316505Y-87056204D02*
G01*
X133340773Y-87059804D01*
X133364572Y-87065765D01*
X133387671Y-87074030D01*
X133409850Y-87084520D01*
X133430893Y-87097132D01*
X133450599Y-87111747D01*
X133468777Y-87128223D01*
X133485253Y-87146401D01*
X133499868Y-87166107D01*
X133512480Y-87187150D01*
X133522970Y-87209329D01*
X133531235Y-87232428D01*
X133537196Y-87256227D01*
X133540796Y-87280495D01*
X133542000Y-87304999D01*
X133542000Y-87955001D01*
X133540796Y-87979505D01*
X133537196Y-88003773D01*
X133531235Y-88027572D01*
X133522970Y-88050671D01*
X133512480Y-88072850D01*
X133499868Y-88093893D01*
X133485253Y-88113599D01*
X133468777Y-88131777D01*
X133450599Y-88148253D01*
X133430893Y-88162868D01*
X133409850Y-88175480D01*
X133387671Y-88185970D01*
X133364572Y-88194235D01*
X133340773Y-88200196D01*
X133316505Y-88203796D01*
X133292001Y-88205000D01*
X132391999Y-88205000D01*
X132367495Y-88203796D01*
X132343227Y-88200196D01*
X132319428Y-88194235D01*
X132296329Y-88185970D01*
X132274150Y-88175480D01*
X132253107Y-88162868D01*
X132233401Y-88148253D01*
X132215223Y-88131777D01*
X132198747Y-88113599D01*
X132184132Y-88093893D01*
X132171520Y-88072850D01*
X132161030Y-88050671D01*
X132152765Y-88027572D01*
X132146804Y-88003773D01*
X132143204Y-87979505D01*
X132142000Y-87955001D01*
X132142000Y-87304999D01*
X132143204Y-87280495D01*
X132146804Y-87256227D01*
X132152765Y-87232428D01*
X132161030Y-87209329D01*
X132171520Y-87187150D01*
X132184132Y-87166107D01*
X132198747Y-87146401D01*
X132215223Y-87128223D01*
X132233401Y-87111747D01*
X132253107Y-87097132D01*
X132274150Y-87084520D01*
X132296329Y-87074030D01*
X132319428Y-87065765D01*
X132343227Y-87059804D01*
X132367495Y-87056204D01*
X132391999Y-87055000D01*
X133292001Y-87055000D01*
X133316505Y-87056204D01*
G37*
G04 #@! TD.AperFunction*
G04 #@! TA.AperFunction,SMDPad,CuDef*
G36*
X133316505Y-85006204D02*
G01*
X133340773Y-85009804D01*
X133364572Y-85015765D01*
X133387671Y-85024030D01*
X133409850Y-85034520D01*
X133430893Y-85047132D01*
X133450599Y-85061747D01*
X133468777Y-85078223D01*
X133485253Y-85096401D01*
X133499868Y-85116107D01*
X133512480Y-85137150D01*
X133522970Y-85159329D01*
X133531235Y-85182428D01*
X133537196Y-85206227D01*
X133540796Y-85230495D01*
X133542000Y-85254999D01*
X133542000Y-85905001D01*
X133540796Y-85929505D01*
X133537196Y-85953773D01*
X133531235Y-85977572D01*
X133522970Y-86000671D01*
X133512480Y-86022850D01*
X133499868Y-86043893D01*
X133485253Y-86063599D01*
X133468777Y-86081777D01*
X133450599Y-86098253D01*
X133430893Y-86112868D01*
X133409850Y-86125480D01*
X133387671Y-86135970D01*
X133364572Y-86144235D01*
X133340773Y-86150196D01*
X133316505Y-86153796D01*
X133292001Y-86155000D01*
X132391999Y-86155000D01*
X132367495Y-86153796D01*
X132343227Y-86150196D01*
X132319428Y-86144235D01*
X132296329Y-86135970D01*
X132274150Y-86125480D01*
X132253107Y-86112868D01*
X132233401Y-86098253D01*
X132215223Y-86081777D01*
X132198747Y-86063599D01*
X132184132Y-86043893D01*
X132171520Y-86022850D01*
X132161030Y-86000671D01*
X132152765Y-85977572D01*
X132146804Y-85953773D01*
X132143204Y-85929505D01*
X132142000Y-85905001D01*
X132142000Y-85254999D01*
X132143204Y-85230495D01*
X132146804Y-85206227D01*
X132152765Y-85182428D01*
X132161030Y-85159329D01*
X132171520Y-85137150D01*
X132184132Y-85116107D01*
X132198747Y-85096401D01*
X132215223Y-85078223D01*
X132233401Y-85061747D01*
X132253107Y-85047132D01*
X132274150Y-85034520D01*
X132296329Y-85024030D01*
X132319428Y-85015765D01*
X132343227Y-85009804D01*
X132367495Y-85006204D01*
X132391999Y-85005000D01*
X133292001Y-85005000D01*
X133316505Y-85006204D01*
G37*
G04 #@! TD.AperFunction*
G04 #@! TA.AperFunction,SMDPad,CuDef*
G36*
X134078505Y-93642204D02*
G01*
X134102773Y-93645804D01*
X134126572Y-93651765D01*
X134149671Y-93660030D01*
X134171850Y-93670520D01*
X134192893Y-93683132D01*
X134212599Y-93697747D01*
X134230777Y-93714223D01*
X134247253Y-93732401D01*
X134261868Y-93752107D01*
X134274480Y-93773150D01*
X134284970Y-93795329D01*
X134293235Y-93818428D01*
X134299196Y-93842227D01*
X134302796Y-93866495D01*
X134304000Y-93890999D01*
X134304000Y-94541001D01*
X134302796Y-94565505D01*
X134299196Y-94589773D01*
X134293235Y-94613572D01*
X134284970Y-94636671D01*
X134274480Y-94658850D01*
X134261868Y-94679893D01*
X134247253Y-94699599D01*
X134230777Y-94717777D01*
X134212599Y-94734253D01*
X134192893Y-94748868D01*
X134171850Y-94761480D01*
X134149671Y-94771970D01*
X134126572Y-94780235D01*
X134102773Y-94786196D01*
X134078505Y-94789796D01*
X134054001Y-94791000D01*
X133153999Y-94791000D01*
X133129495Y-94789796D01*
X133105227Y-94786196D01*
X133081428Y-94780235D01*
X133058329Y-94771970D01*
X133036150Y-94761480D01*
X133015107Y-94748868D01*
X132995401Y-94734253D01*
X132977223Y-94717777D01*
X132960747Y-94699599D01*
X132946132Y-94679893D01*
X132933520Y-94658850D01*
X132923030Y-94636671D01*
X132914765Y-94613572D01*
X132908804Y-94589773D01*
X132905204Y-94565505D01*
X132904000Y-94541001D01*
X132904000Y-93890999D01*
X132905204Y-93866495D01*
X132908804Y-93842227D01*
X132914765Y-93818428D01*
X132923030Y-93795329D01*
X132933520Y-93773150D01*
X132946132Y-93752107D01*
X132960747Y-93732401D01*
X132977223Y-93714223D01*
X132995401Y-93697747D01*
X133015107Y-93683132D01*
X133036150Y-93670520D01*
X133058329Y-93660030D01*
X133081428Y-93651765D01*
X133105227Y-93645804D01*
X133129495Y-93642204D01*
X133153999Y-93641000D01*
X134054001Y-93641000D01*
X134078505Y-93642204D01*
G37*
G04 #@! TD.AperFunction*
G04 #@! TA.AperFunction,SMDPad,CuDef*
G36*
X134078505Y-95692204D02*
G01*
X134102773Y-95695804D01*
X134126572Y-95701765D01*
X134149671Y-95710030D01*
X134171850Y-95720520D01*
X134192893Y-95733132D01*
X134212599Y-95747747D01*
X134230777Y-95764223D01*
X134247253Y-95782401D01*
X134261868Y-95802107D01*
X134274480Y-95823150D01*
X134284970Y-95845329D01*
X134293235Y-95868428D01*
X134299196Y-95892227D01*
X134302796Y-95916495D01*
X134304000Y-95940999D01*
X134304000Y-96591001D01*
X134302796Y-96615505D01*
X134299196Y-96639773D01*
X134293235Y-96663572D01*
X134284970Y-96686671D01*
X134274480Y-96708850D01*
X134261868Y-96729893D01*
X134247253Y-96749599D01*
X134230777Y-96767777D01*
X134212599Y-96784253D01*
X134192893Y-96798868D01*
X134171850Y-96811480D01*
X134149671Y-96821970D01*
X134126572Y-96830235D01*
X134102773Y-96836196D01*
X134078505Y-96839796D01*
X134054001Y-96841000D01*
X133153999Y-96841000D01*
X133129495Y-96839796D01*
X133105227Y-96836196D01*
X133081428Y-96830235D01*
X133058329Y-96821970D01*
X133036150Y-96811480D01*
X133015107Y-96798868D01*
X132995401Y-96784253D01*
X132977223Y-96767777D01*
X132960747Y-96749599D01*
X132946132Y-96729893D01*
X132933520Y-96708850D01*
X132923030Y-96686671D01*
X132914765Y-96663572D01*
X132908804Y-96639773D01*
X132905204Y-96615505D01*
X132904000Y-96591001D01*
X132904000Y-95940999D01*
X132905204Y-95916495D01*
X132908804Y-95892227D01*
X132914765Y-95868428D01*
X132923030Y-95845329D01*
X132933520Y-95823150D01*
X132946132Y-95802107D01*
X132960747Y-95782401D01*
X132977223Y-95764223D01*
X132995401Y-95747747D01*
X133015107Y-95733132D01*
X133036150Y-95720520D01*
X133058329Y-95710030D01*
X133081428Y-95701765D01*
X133105227Y-95695804D01*
X133129495Y-95692204D01*
X133153999Y-95691000D01*
X134054001Y-95691000D01*
X134078505Y-95692204D01*
G37*
G04 #@! TD.AperFunction*
D12*
X151130000Y-81280000D03*
X151130000Y-83820000D03*
X151130000Y-86360000D03*
D13*
X151130000Y-88900000D03*
G04 #@! TA.AperFunction,SMDPad,CuDef*
D10*
G36*
X132683505Y-79819204D02*
G01*
X132707773Y-79822804D01*
X132731572Y-79828765D01*
X132754671Y-79837030D01*
X132776850Y-79847520D01*
X132797893Y-79860132D01*
X132817599Y-79874747D01*
X132835777Y-79891223D01*
X132852253Y-79909401D01*
X132866868Y-79929107D01*
X132879480Y-79950150D01*
X132889970Y-79972329D01*
X132898235Y-79995428D01*
X132904196Y-80019227D01*
X132907796Y-80043495D01*
X132909000Y-80067999D01*
X132909000Y-80968001D01*
X132907796Y-80992505D01*
X132904196Y-81016773D01*
X132898235Y-81040572D01*
X132889970Y-81063671D01*
X132879480Y-81085850D01*
X132866868Y-81106893D01*
X132852253Y-81126599D01*
X132835777Y-81144777D01*
X132817599Y-81161253D01*
X132797893Y-81175868D01*
X132776850Y-81188480D01*
X132754671Y-81198970D01*
X132731572Y-81207235D01*
X132707773Y-81213196D01*
X132683505Y-81216796D01*
X132659001Y-81218000D01*
X132008999Y-81218000D01*
X131984495Y-81216796D01*
X131960227Y-81213196D01*
X131936428Y-81207235D01*
X131913329Y-81198970D01*
X131891150Y-81188480D01*
X131870107Y-81175868D01*
X131850401Y-81161253D01*
X131832223Y-81144777D01*
X131815747Y-81126599D01*
X131801132Y-81106893D01*
X131788520Y-81085850D01*
X131778030Y-81063671D01*
X131769765Y-81040572D01*
X131763804Y-81016773D01*
X131760204Y-80992505D01*
X131759000Y-80968001D01*
X131759000Y-80067999D01*
X131760204Y-80043495D01*
X131763804Y-80019227D01*
X131769765Y-79995428D01*
X131778030Y-79972329D01*
X131788520Y-79950150D01*
X131801132Y-79929107D01*
X131815747Y-79909401D01*
X131832223Y-79891223D01*
X131850401Y-79874747D01*
X131870107Y-79860132D01*
X131891150Y-79847520D01*
X131913329Y-79837030D01*
X131936428Y-79828765D01*
X131960227Y-79822804D01*
X131984495Y-79819204D01*
X132008999Y-79818000D01*
X132659001Y-79818000D01*
X132683505Y-79819204D01*
G37*
G04 #@! TD.AperFunction*
G04 #@! TA.AperFunction,SMDPad,CuDef*
G36*
X134733505Y-79819204D02*
G01*
X134757773Y-79822804D01*
X134781572Y-79828765D01*
X134804671Y-79837030D01*
X134826850Y-79847520D01*
X134847893Y-79860132D01*
X134867599Y-79874747D01*
X134885777Y-79891223D01*
X134902253Y-79909401D01*
X134916868Y-79929107D01*
X134929480Y-79950150D01*
X134939970Y-79972329D01*
X134948235Y-79995428D01*
X134954196Y-80019227D01*
X134957796Y-80043495D01*
X134959000Y-80067999D01*
X134959000Y-80968001D01*
X134957796Y-80992505D01*
X134954196Y-81016773D01*
X134948235Y-81040572D01*
X134939970Y-81063671D01*
X134929480Y-81085850D01*
X134916868Y-81106893D01*
X134902253Y-81126599D01*
X134885777Y-81144777D01*
X134867599Y-81161253D01*
X134847893Y-81175868D01*
X134826850Y-81188480D01*
X134804671Y-81198970D01*
X134781572Y-81207235D01*
X134757773Y-81213196D01*
X134733505Y-81216796D01*
X134709001Y-81218000D01*
X134058999Y-81218000D01*
X134034495Y-81216796D01*
X134010227Y-81213196D01*
X133986428Y-81207235D01*
X133963329Y-81198970D01*
X133941150Y-81188480D01*
X133920107Y-81175868D01*
X133900401Y-81161253D01*
X133882223Y-81144777D01*
X133865747Y-81126599D01*
X133851132Y-81106893D01*
X133838520Y-81085850D01*
X133828030Y-81063671D01*
X133819765Y-81040572D01*
X133813804Y-81016773D01*
X133810204Y-80992505D01*
X133809000Y-80968001D01*
X133809000Y-80067999D01*
X133810204Y-80043495D01*
X133813804Y-80019227D01*
X133819765Y-79995428D01*
X133828030Y-79972329D01*
X133838520Y-79950150D01*
X133851132Y-79929107D01*
X133865747Y-79909401D01*
X133882223Y-79891223D01*
X133900401Y-79874747D01*
X133920107Y-79860132D01*
X133941150Y-79847520D01*
X133963329Y-79837030D01*
X133986428Y-79828765D01*
X134010227Y-79822804D01*
X134034495Y-79819204D01*
X134058999Y-79818000D01*
X134709001Y-79818000D01*
X134733505Y-79819204D01*
G37*
G04 #@! TD.AperFunction*
D15*
X150721000Y-98717000D03*
X150721000Y-93257000D03*
D16*
X147721000Y-98407000D03*
X147721000Y-93567000D03*
D17*
X146181000Y-88548000D03*
X145531000Y-88548000D03*
X144881000Y-88548000D03*
X144231000Y-88548000D03*
X143581000Y-88548000D03*
X142931000Y-88548000D03*
X142281000Y-88548000D03*
X141631000Y-88548000D03*
X140981000Y-88548000D03*
X140331000Y-88548000D03*
X140331000Y-82648000D03*
X140981000Y-82648000D03*
X141631000Y-82648000D03*
X142281000Y-82648000D03*
X142931000Y-82648000D03*
X143581000Y-82648000D03*
X144231000Y-82648000D03*
X144881000Y-82648000D03*
X145531000Y-82648000D03*
X146181000Y-82648000D03*
D18*
X136271000Y-96520000D03*
X142875000Y-85217000D03*
X146050000Y-97790000D03*
X130683000Y-80518000D03*
X143108000Y-96488000D03*
X144145000Y-78613000D03*
X146558000Y-91567000D03*
X140716000Y-91567000D03*
X143581000Y-86797000D03*
X133858000Y-91440000D03*
X140208000Y-95123000D03*
X132207000Y-91440000D03*
X144231000Y-84160000D03*
X144907000Y-90424000D03*
X145796000Y-90932000D03*
X139700000Y-80391000D03*
D19*
X139507001Y-95942999D02*
X138962000Y-96488000D01*
X138962000Y-96488000D02*
X137308000Y-96488000D01*
X141662999Y-95942999D02*
X139507001Y-95942999D01*
X142208000Y-96488000D02*
X141662999Y-95942999D01*
X143108000Y-96488000D02*
X143108000Y-96488000D01*
X144762000Y-96488000D02*
X146050000Y-97776000D01*
X143108000Y-96488000D02*
X144762000Y-96488000D01*
X146050000Y-97776000D02*
X146050000Y-97790000D01*
X146050000Y-97790000D02*
X146050000Y-97790000D01*
X142931000Y-85273000D02*
X142875000Y-85217000D01*
X142931000Y-88548000D02*
X142931000Y-85273000D01*
X146667000Y-98407000D02*
X146050000Y-97790000D01*
X147721000Y-98407000D02*
X146667000Y-98407000D01*
X132334000Y-80518000D02*
X131759000Y-80518000D01*
X131759000Y-80518000D02*
X130683000Y-80518000D01*
X130683000Y-80518000D02*
X130683000Y-80518000D01*
X143108000Y-96488000D02*
X142208000Y-96488000D01*
X142240000Y-97356000D02*
X143108000Y-96488000D01*
X142240000Y-100330000D02*
X142240000Y-97356000D01*
D20*
X130556000Y-94234000D02*
X128270000Y-96520000D01*
X131572000Y-94234000D02*
X130556000Y-94234000D01*
X145288000Y-78613000D02*
X144145000Y-78613000D01*
D19*
X140716000Y-91567000D02*
X146558000Y-91567000D01*
X143581000Y-88548000D02*
X143581000Y-86797000D01*
X143581000Y-86797000D02*
X143581000Y-82648000D01*
X133858000Y-91440000D02*
X133858000Y-91440000D01*
X143053989Y-84154011D02*
X143581000Y-83627000D01*
X133692989Y-84154011D02*
X143053989Y-84154011D01*
X143581000Y-83627000D02*
X143581000Y-82648000D01*
X132842000Y-85005000D02*
X133692989Y-84154011D01*
X132842000Y-85580000D02*
X132842000Y-85005000D01*
D20*
X148463000Y-78613000D02*
X151130000Y-81280000D01*
X147888000Y-78613000D02*
X148463000Y-78613000D01*
X139854447Y-95123000D02*
X140208000Y-95123000D01*
X134304000Y-96266000D02*
X135447000Y-95123000D01*
X135447000Y-95123000D02*
X139854447Y-95123000D01*
X133604000Y-96266000D02*
X134304000Y-96266000D01*
X135447000Y-93029000D02*
X135447000Y-95123000D01*
X133858000Y-91440000D02*
X135447000Y-93029000D01*
X133604000Y-96841000D02*
X133604000Y-96266000D01*
X131385000Y-99060000D02*
X133604000Y-96841000D01*
X128270000Y-99060000D02*
X131385000Y-99060000D01*
D19*
X144231000Y-81759398D02*
X144231000Y-82648000D01*
X142989602Y-80518000D02*
X144231000Y-81759398D01*
X142989602Y-80518000D02*
X142989602Y-80510066D01*
X142989602Y-80510066D02*
X142235536Y-79756000D01*
X142235536Y-79756000D02*
X141986000Y-79756000D01*
X141986000Y-79756000D02*
X141732000Y-79756000D01*
X141732000Y-79756000D02*
X136398000Y-79756000D01*
X134384000Y-80518000D02*
X135128000Y-80518000D01*
X135128000Y-80518000D02*
X135890000Y-79756000D01*
X136398000Y-79756000D02*
X135890000Y-79756000D01*
X136436999Y-90862999D02*
X133038001Y-90862999D01*
X137308000Y-92488000D02*
X137308000Y-91734000D01*
X137308000Y-91734000D02*
X136436999Y-90862999D01*
X133038001Y-90862999D02*
X132784001Y-90862999D01*
X132784001Y-90862999D02*
X132207000Y-91440000D01*
X137308000Y-92488000D02*
X143108000Y-92488000D01*
X132207000Y-91440000D02*
X132207000Y-91440000D01*
X144231000Y-82648000D02*
X144231000Y-84160000D01*
X144231000Y-84160000D02*
X144231000Y-84160000D01*
D20*
X133405990Y-94414010D02*
X133405990Y-94216000D01*
X131572000Y-96284000D02*
X131572000Y-96248000D01*
X131572000Y-96248000D02*
X133405990Y-94414010D01*
D19*
X135110000Y-87630000D02*
X135128000Y-87648000D01*
X132842000Y-87630000D02*
X135110000Y-87630000D01*
X140310000Y-85598000D02*
X142281000Y-87569000D01*
X142281000Y-87569000D02*
X142281000Y-88548000D01*
X135128000Y-85598000D02*
X140310000Y-85598000D01*
X144231000Y-89527000D02*
X144231000Y-88548000D01*
X144231000Y-89748000D02*
X144231000Y-89527000D01*
X144907000Y-90424000D02*
X144231000Y-89748000D01*
X144881000Y-88548000D02*
X144881000Y-89527000D01*
D20*
X145796000Y-90438000D02*
X145796000Y-90932000D01*
X144881000Y-88548000D02*
X144881000Y-89523000D01*
X144881000Y-89523000D02*
X145796000Y-90438000D01*
D19*
X149930000Y-83820000D02*
X151130000Y-83820000D01*
X146181000Y-87569000D02*
X149930000Y-83820000D01*
X146181000Y-88548000D02*
X146181000Y-87569000D01*
X151130000Y-90004000D02*
X151130000Y-88900000D01*
X150964000Y-90170000D02*
X151130000Y-90004000D01*
X146264398Y-90170000D02*
X150964000Y-90170000D01*
X145531000Y-89436602D02*
X146264398Y-90170000D01*
X145531000Y-88548000D02*
X145531000Y-89436602D01*
X142931000Y-82648000D02*
X142931000Y-81669000D01*
X141653000Y-80391000D02*
X142391000Y-81129000D01*
X139700000Y-80391000D02*
X141653000Y-80391000D01*
X142931000Y-81669000D02*
X142391000Y-81129000D01*
X142391000Y-81129000D02*
X142288000Y-81026000D01*
X144881000Y-81759398D02*
X142315612Y-79194010D01*
X144881000Y-82648000D02*
X144881000Y-81759398D01*
X130355990Y-79194010D02*
X128270000Y-81280000D01*
X142315612Y-79194010D02*
X130355990Y-79194010D01*
X142602000Y-78740000D02*
X145531000Y-81669000D01*
X145531000Y-81669000D02*
X145531000Y-82648000D01*
X128270000Y-78740000D02*
X142602000Y-78740000D01*
X141631000Y-89527000D02*
X141631000Y-88548000D01*
X140787990Y-90370010D02*
X141631000Y-89527000D01*
X131879990Y-90370010D02*
X140787990Y-90370010D01*
X128270000Y-93980000D02*
X131879990Y-90370010D01*
X128270000Y-91440000D02*
X129794000Y-89916000D01*
X140981000Y-89527000D02*
X140981000Y-88548000D01*
X140592000Y-89916000D02*
X140981000Y-89527000D01*
X129794000Y-89916000D02*
X140592000Y-89916000D01*
X139979000Y-88900000D02*
X140331000Y-88548000D01*
X128270000Y-88900000D02*
X139979000Y-88900000D01*
D20*
X146181000Y-79020000D02*
X146588000Y-78613000D01*
X146181000Y-82648000D02*
X146181000Y-79020000D01*
D19*
X132132080Y-83700001D02*
X140462000Y-83700001D01*
X128270000Y-86360000D02*
X129472081Y-86360000D01*
X129472081Y-86360000D02*
X132132080Y-83700001D01*
D20*
X141553999Y-83700001D02*
X141631000Y-83623000D01*
X141631000Y-83623000D02*
X141631000Y-82648000D01*
X140462000Y-83700001D02*
X141553999Y-83700001D01*
X140981000Y-82648000D02*
X140981000Y-81673000D01*
X140905999Y-81597999D02*
X130492001Y-81597999D01*
X140981000Y-81673000D02*
X140905999Y-81597999D01*
X130492001Y-81597999D02*
X128270000Y-83820000D01*
M02*
