G04 #@! TF.GenerationSoftware,KiCad,Pcbnew,(5.1.5)-2*
G04 #@! TF.CreationDate,2019-12-31T22:23:39+04:00*
G04 #@! TF.ProjectId,stm32f042_devboard,73746d33-3266-4303-9432-5f646576626f,1*
G04 #@! TF.SameCoordinates,Original*
G04 #@! TF.FileFunction,Legend,Bot*
G04 #@! TF.FilePolarity,Positive*
%FSLAX46Y46*%
G04 Gerber Fmt 4.6, Leading zero omitted, Abs format (unit mm)*
G04 Created by KiCad (PCBNEW (5.1.5)-2) date 2019-12-31 22:23:39*
%MOMM*%
%LPD*%
G04 APERTURE LIST*
%ADD10C,0.076200*%
%ADD11C,0.120000*%
G04 APERTURE END LIST*
D10*
X137861523Y-79796519D02*
X137813142Y-79820709D01*
X137716380Y-79820709D01*
X137668000Y-79796519D01*
X137643809Y-79748138D01*
X137643809Y-79723947D01*
X137668000Y-79675566D01*
X137716380Y-79651376D01*
X137788952Y-79651376D01*
X137837333Y-79627185D01*
X137861523Y-79578804D01*
X137861523Y-79554614D01*
X137837333Y-79506233D01*
X137788952Y-79482042D01*
X137716380Y-79482042D01*
X137668000Y-79506233D01*
X137498666Y-79482042D02*
X137305142Y-79482042D01*
X137426095Y-79312709D02*
X137426095Y-79748138D01*
X137401904Y-79796519D01*
X137353523Y-79820709D01*
X137305142Y-79820709D01*
X137135809Y-79820709D02*
X137135809Y-79482042D01*
X137135809Y-79530423D02*
X137111619Y-79506233D01*
X137063238Y-79482042D01*
X136990666Y-79482042D01*
X136942285Y-79506233D01*
X136918095Y-79554614D01*
X136918095Y-79820709D01*
X136918095Y-79554614D02*
X136893904Y-79506233D01*
X136845523Y-79482042D01*
X136772952Y-79482042D01*
X136724571Y-79506233D01*
X136700380Y-79554614D01*
X136700380Y-79820709D01*
X136506857Y-79312709D02*
X136192380Y-79312709D01*
X136361714Y-79506233D01*
X136289142Y-79506233D01*
X136240761Y-79530423D01*
X136216571Y-79554614D01*
X136192380Y-79602995D01*
X136192380Y-79723947D01*
X136216571Y-79772328D01*
X136240761Y-79796519D01*
X136289142Y-79820709D01*
X136434285Y-79820709D01*
X136482666Y-79796519D01*
X136506857Y-79772328D01*
X135998857Y-79361090D02*
X135974666Y-79336900D01*
X135926285Y-79312709D01*
X135805333Y-79312709D01*
X135756952Y-79336900D01*
X135732761Y-79361090D01*
X135708571Y-79409471D01*
X135708571Y-79457852D01*
X135732761Y-79530423D01*
X136023047Y-79820709D01*
X135708571Y-79820709D01*
X135563428Y-79482042D02*
X135369904Y-79482042D01*
X135490857Y-79820709D02*
X135490857Y-79385280D01*
X135466666Y-79336900D01*
X135418285Y-79312709D01*
X135369904Y-79312709D01*
X135103809Y-79312709D02*
X135055428Y-79312709D01*
X135007047Y-79336900D01*
X134982857Y-79361090D01*
X134958666Y-79409471D01*
X134934476Y-79506233D01*
X134934476Y-79627185D01*
X134958666Y-79723947D01*
X134982857Y-79772328D01*
X135007047Y-79796519D01*
X135055428Y-79820709D01*
X135103809Y-79820709D01*
X135152190Y-79796519D01*
X135176380Y-79772328D01*
X135200571Y-79723947D01*
X135224761Y-79627185D01*
X135224761Y-79506233D01*
X135200571Y-79409471D01*
X135176380Y-79361090D01*
X135152190Y-79336900D01*
X135103809Y-79312709D01*
X134499047Y-79482042D02*
X134499047Y-79820709D01*
X134620000Y-79288519D02*
X134740952Y-79651376D01*
X134426476Y-79651376D01*
X134257142Y-79361090D02*
X134232952Y-79336900D01*
X134184571Y-79312709D01*
X134063619Y-79312709D01*
X134015238Y-79336900D01*
X133991047Y-79361090D01*
X133966857Y-79409471D01*
X133966857Y-79457852D01*
X133991047Y-79530423D01*
X134281333Y-79820709D01*
X133966857Y-79820709D01*
X133821714Y-79482042D02*
X133628190Y-79482042D01*
X133749142Y-79820709D02*
X133749142Y-79385280D01*
X133724952Y-79336900D01*
X133676571Y-79312709D01*
X133628190Y-79312709D01*
X133579809Y-79869090D02*
X133192761Y-79869090D01*
X132854095Y-79820709D02*
X132854095Y-79312709D01*
X132854095Y-79796519D02*
X132902476Y-79820709D01*
X132999238Y-79820709D01*
X133047619Y-79796519D01*
X133071809Y-79772328D01*
X133096000Y-79723947D01*
X133096000Y-79578804D01*
X133071809Y-79530423D01*
X133047619Y-79506233D01*
X132999238Y-79482042D01*
X132902476Y-79482042D01*
X132854095Y-79506233D01*
X132418666Y-79796519D02*
X132467047Y-79820709D01*
X132563809Y-79820709D01*
X132612190Y-79796519D01*
X132636380Y-79748138D01*
X132636380Y-79554614D01*
X132612190Y-79506233D01*
X132563809Y-79482042D01*
X132467047Y-79482042D01*
X132418666Y-79506233D01*
X132394476Y-79554614D01*
X132394476Y-79602995D01*
X132636380Y-79651376D01*
X132225142Y-79482042D02*
X132104190Y-79820709D01*
X131983238Y-79482042D01*
X131789714Y-79820709D02*
X131789714Y-79312709D01*
X131789714Y-79506233D02*
X131741333Y-79482042D01*
X131644571Y-79482042D01*
X131596190Y-79506233D01*
X131572000Y-79530423D01*
X131547809Y-79578804D01*
X131547809Y-79723947D01*
X131572000Y-79772328D01*
X131596190Y-79796519D01*
X131644571Y-79820709D01*
X131741333Y-79820709D01*
X131789714Y-79796519D01*
X131257523Y-79820709D02*
X131305904Y-79796519D01*
X131330095Y-79772328D01*
X131354285Y-79723947D01*
X131354285Y-79578804D01*
X131330095Y-79530423D01*
X131305904Y-79506233D01*
X131257523Y-79482042D01*
X131184952Y-79482042D01*
X131136571Y-79506233D01*
X131112380Y-79530423D01*
X131088190Y-79578804D01*
X131088190Y-79723947D01*
X131112380Y-79772328D01*
X131136571Y-79796519D01*
X131184952Y-79820709D01*
X131257523Y-79820709D01*
X130652761Y-79820709D02*
X130652761Y-79554614D01*
X130676952Y-79506233D01*
X130725333Y-79482042D01*
X130822095Y-79482042D01*
X130870476Y-79506233D01*
X130652761Y-79796519D02*
X130701142Y-79820709D01*
X130822095Y-79820709D01*
X130870476Y-79796519D01*
X130894666Y-79748138D01*
X130894666Y-79699757D01*
X130870476Y-79651376D01*
X130822095Y-79627185D01*
X130701142Y-79627185D01*
X130652761Y-79602995D01*
X130410857Y-79820709D02*
X130410857Y-79482042D01*
X130410857Y-79578804D02*
X130386666Y-79530423D01*
X130362476Y-79506233D01*
X130314095Y-79482042D01*
X130265714Y-79482042D01*
X129878666Y-79820709D02*
X129878666Y-79312709D01*
X129878666Y-79796519D02*
X129927047Y-79820709D01*
X130023809Y-79820709D01*
X130072190Y-79796519D01*
X130096380Y-79772328D01*
X130120571Y-79723947D01*
X130120571Y-79578804D01*
X130096380Y-79530423D01*
X130072190Y-79506233D01*
X130023809Y-79482042D01*
X129927047Y-79482042D01*
X129878666Y-79506233D01*
X136664095Y-80658909D02*
X136664095Y-80320242D01*
X136664095Y-80150909D02*
X136688285Y-80175100D01*
X136664095Y-80199290D01*
X136639904Y-80175100D01*
X136664095Y-80150909D01*
X136664095Y-80199290D01*
X136422190Y-80658909D02*
X136422190Y-80320242D01*
X136422190Y-80368623D02*
X136398000Y-80344433D01*
X136349619Y-80320242D01*
X136277047Y-80320242D01*
X136228666Y-80344433D01*
X136204476Y-80392814D01*
X136204476Y-80658909D01*
X136204476Y-80392814D02*
X136180285Y-80344433D01*
X136131904Y-80320242D01*
X136059333Y-80320242D01*
X136010952Y-80344433D01*
X135986761Y-80392814D01*
X135986761Y-80658909D01*
X135527142Y-80658909D02*
X135527142Y-80392814D01*
X135551333Y-80344433D01*
X135599714Y-80320242D01*
X135696476Y-80320242D01*
X135744857Y-80344433D01*
X135527142Y-80634719D02*
X135575523Y-80658909D01*
X135696476Y-80658909D01*
X135744857Y-80634719D01*
X135769047Y-80586338D01*
X135769047Y-80537957D01*
X135744857Y-80489576D01*
X135696476Y-80465385D01*
X135575523Y-80465385D01*
X135527142Y-80441195D01*
X135285238Y-80320242D02*
X135285238Y-80658909D01*
X135285238Y-80368623D02*
X135261047Y-80344433D01*
X135212666Y-80320242D01*
X135140095Y-80320242D01*
X135091714Y-80344433D01*
X135067523Y-80392814D01*
X135067523Y-80658909D01*
X134946571Y-80707290D02*
X134559523Y-80707290D01*
X134462761Y-80199290D02*
X134438571Y-80175100D01*
X134390190Y-80150909D01*
X134269238Y-80150909D01*
X134220857Y-80175100D01*
X134196666Y-80199290D01*
X134172476Y-80247671D01*
X134172476Y-80296052D01*
X134196666Y-80368623D01*
X134486952Y-80658909D01*
X134172476Y-80658909D01*
X133858000Y-80150909D02*
X133809619Y-80150909D01*
X133761238Y-80175100D01*
X133737047Y-80199290D01*
X133712857Y-80247671D01*
X133688666Y-80344433D01*
X133688666Y-80465385D01*
X133712857Y-80562147D01*
X133737047Y-80610528D01*
X133761238Y-80634719D01*
X133809619Y-80658909D01*
X133858000Y-80658909D01*
X133906380Y-80634719D01*
X133930571Y-80610528D01*
X133954761Y-80562147D01*
X133978952Y-80465385D01*
X133978952Y-80344433D01*
X133954761Y-80247671D01*
X133930571Y-80199290D01*
X133906380Y-80175100D01*
X133858000Y-80150909D01*
X133495142Y-80199290D02*
X133470952Y-80175100D01*
X133422571Y-80150909D01*
X133301619Y-80150909D01*
X133253238Y-80175100D01*
X133229047Y-80199290D01*
X133204857Y-80247671D01*
X133204857Y-80296052D01*
X133229047Y-80368623D01*
X133519333Y-80658909D01*
X133204857Y-80658909D01*
X132890380Y-80150909D02*
X132842000Y-80150909D01*
X132793619Y-80175100D01*
X132769428Y-80199290D01*
X132745238Y-80247671D01*
X132721047Y-80344433D01*
X132721047Y-80465385D01*
X132745238Y-80562147D01*
X132769428Y-80610528D01*
X132793619Y-80634719D01*
X132842000Y-80658909D01*
X132890380Y-80658909D01*
X132938761Y-80634719D01*
X132962952Y-80610528D01*
X132987142Y-80562147D01*
X133011333Y-80465385D01*
X133011333Y-80344433D01*
X132987142Y-80247671D01*
X132962952Y-80199290D01*
X132938761Y-80175100D01*
X132890380Y-80150909D01*
X132406571Y-80150909D02*
X132358190Y-80150909D01*
X132309809Y-80175100D01*
X132285619Y-80199290D01*
X132261428Y-80247671D01*
X132237238Y-80344433D01*
X132237238Y-80465385D01*
X132261428Y-80562147D01*
X132285619Y-80610528D01*
X132309809Y-80634719D01*
X132358190Y-80658909D01*
X132406571Y-80658909D01*
X132454952Y-80634719D01*
X132479142Y-80610528D01*
X132503333Y-80562147D01*
X132527523Y-80465385D01*
X132527523Y-80344433D01*
X132503333Y-80247671D01*
X132479142Y-80199290D01*
X132454952Y-80175100D01*
X132406571Y-80150909D01*
X131753428Y-80658909D02*
X132043714Y-80658909D01*
X131898571Y-80658909D02*
X131898571Y-80150909D01*
X131946952Y-80223480D01*
X131995333Y-80271861D01*
X132043714Y-80296052D01*
X131535714Y-80610528D02*
X131511523Y-80634719D01*
X131535714Y-80658909D01*
X131559904Y-80634719D01*
X131535714Y-80610528D01*
X131535714Y-80658909D01*
X131027714Y-80658909D02*
X131318000Y-80658909D01*
X131172857Y-80658909D02*
X131172857Y-80150909D01*
X131221238Y-80223480D01*
X131269619Y-80271861D01*
X131318000Y-80296052D01*
D11*
X144451000Y-82176252D02*
X144451000Y-81653748D01*
X145871000Y-82176252D02*
X145871000Y-81653748D01*
X142292000Y-82167252D02*
X142292000Y-81644748D01*
X143712000Y-82167252D02*
X143712000Y-81644748D01*
X147321748Y-84253000D02*
X147844252Y-84253000D01*
X147321748Y-85673000D02*
X147844252Y-85673000D01*
X147312748Y-88571000D02*
X147835252Y-88571000D01*
X147312748Y-89991000D02*
X147835252Y-89991000D01*
X147312748Y-86412000D02*
X147835252Y-86412000D01*
X147312748Y-87832000D02*
X147835252Y-87832000D01*
X146741000Y-94687000D02*
X146291000Y-94287000D01*
X146291000Y-94287000D02*
X146291000Y-95087000D01*
X146291000Y-95087000D02*
X146741000Y-94687000D01*
X152341000Y-99837000D02*
X149541000Y-99837000D01*
X149541000Y-99837000D02*
X149541000Y-100137000D01*
X149541000Y-100137000D02*
X147991000Y-100137000D01*
X152341000Y-92137000D02*
X149541000Y-92137000D01*
X149541000Y-91837000D02*
X149541000Y-92137000D01*
X149541000Y-91837000D02*
X147991000Y-91837000D01*
X143618000Y-94016000D02*
X143618000Y-88006000D01*
X136798000Y-91766000D02*
X136798000Y-88006000D01*
X143618000Y-88006000D02*
X142358000Y-88006000D01*
X136798000Y-88006000D02*
X138058000Y-88006000D01*
X134672000Y-84453252D02*
X134672000Y-83930748D01*
X136092000Y-84453252D02*
X136092000Y-83930748D01*
X132386000Y-84453252D02*
X132386000Y-83930748D01*
X133806000Y-84453252D02*
X133806000Y-83930748D01*
X133620252Y-96214000D02*
X133097748Y-96214000D01*
X133620252Y-94794000D02*
X133097748Y-94794000D01*
X133620252Y-93674000D02*
X133097748Y-93674000D01*
X133620252Y-92254000D02*
X133097748Y-92254000D01*
D10*
X146866428Y-81588428D02*
X146890619Y-81564238D01*
X146914809Y-81491666D01*
X146914809Y-81443285D01*
X146890619Y-81370714D01*
X146842238Y-81322333D01*
X146793857Y-81298142D01*
X146697095Y-81273952D01*
X146624523Y-81273952D01*
X146527761Y-81298142D01*
X146479380Y-81322333D01*
X146431000Y-81370714D01*
X146406809Y-81443285D01*
X146406809Y-81491666D01*
X146431000Y-81564238D01*
X146455190Y-81588428D01*
X146914809Y-82072238D02*
X146914809Y-81781952D01*
X146914809Y-81927095D02*
X146406809Y-81927095D01*
X146479380Y-81878714D01*
X146527761Y-81830333D01*
X146551952Y-81781952D01*
X146406809Y-82386714D02*
X146406809Y-82435095D01*
X146431000Y-82483476D01*
X146455190Y-82507666D01*
X146503571Y-82531857D01*
X146600333Y-82556047D01*
X146721285Y-82556047D01*
X146818047Y-82531857D01*
X146866428Y-82507666D01*
X146890619Y-82483476D01*
X146914809Y-82435095D01*
X146914809Y-82386714D01*
X146890619Y-82338333D01*
X146866428Y-82314142D01*
X146818047Y-82289952D01*
X146721285Y-82265761D01*
X146600333Y-82265761D01*
X146503571Y-82289952D01*
X146455190Y-82314142D01*
X146431000Y-82338333D01*
X146406809Y-82386714D01*
X141786428Y-81830333D02*
X141810619Y-81806142D01*
X141834809Y-81733571D01*
X141834809Y-81685190D01*
X141810619Y-81612619D01*
X141762238Y-81564238D01*
X141713857Y-81540047D01*
X141617095Y-81515857D01*
X141544523Y-81515857D01*
X141447761Y-81540047D01*
X141399380Y-81564238D01*
X141351000Y-81612619D01*
X141326809Y-81685190D01*
X141326809Y-81733571D01*
X141351000Y-81806142D01*
X141375190Y-81830333D01*
X141834809Y-82072238D02*
X141834809Y-82169000D01*
X141810619Y-82217380D01*
X141786428Y-82241571D01*
X141713857Y-82289952D01*
X141617095Y-82314142D01*
X141423571Y-82314142D01*
X141375190Y-82289952D01*
X141351000Y-82265761D01*
X141326809Y-82217380D01*
X141326809Y-82120619D01*
X141351000Y-82072238D01*
X141375190Y-82048047D01*
X141423571Y-82023857D01*
X141544523Y-82023857D01*
X141592904Y-82048047D01*
X141617095Y-82072238D01*
X141641285Y-82120619D01*
X141641285Y-82217380D01*
X141617095Y-82265761D01*
X141592904Y-82289952D01*
X141544523Y-82314142D01*
X145596428Y-84878333D02*
X145620619Y-84854142D01*
X145644809Y-84781571D01*
X145644809Y-84733190D01*
X145620619Y-84660619D01*
X145572238Y-84612238D01*
X145523857Y-84588047D01*
X145427095Y-84563857D01*
X145354523Y-84563857D01*
X145257761Y-84588047D01*
X145209380Y-84612238D01*
X145161000Y-84660619D01*
X145136809Y-84733190D01*
X145136809Y-84781571D01*
X145161000Y-84854142D01*
X145185190Y-84878333D01*
X145354523Y-85168619D02*
X145330333Y-85120238D01*
X145306142Y-85096047D01*
X145257761Y-85071857D01*
X145233571Y-85071857D01*
X145185190Y-85096047D01*
X145161000Y-85120238D01*
X145136809Y-85168619D01*
X145136809Y-85265380D01*
X145161000Y-85313761D01*
X145185190Y-85337952D01*
X145233571Y-85362142D01*
X145257761Y-85362142D01*
X145306142Y-85337952D01*
X145330333Y-85313761D01*
X145354523Y-85265380D01*
X145354523Y-85168619D01*
X145378714Y-85120238D01*
X145402904Y-85096047D01*
X145451285Y-85071857D01*
X145548047Y-85071857D01*
X145596428Y-85096047D01*
X145620619Y-85120238D01*
X145644809Y-85168619D01*
X145644809Y-85265380D01*
X145620619Y-85313761D01*
X145596428Y-85337952D01*
X145548047Y-85362142D01*
X145451285Y-85362142D01*
X145402904Y-85337952D01*
X145378714Y-85313761D01*
X145354523Y-85265380D01*
X145469428Y-89196333D02*
X145493619Y-89172142D01*
X145517809Y-89099571D01*
X145517809Y-89051190D01*
X145493619Y-88978619D01*
X145445238Y-88930238D01*
X145396857Y-88906047D01*
X145300095Y-88881857D01*
X145227523Y-88881857D01*
X145130761Y-88906047D01*
X145082380Y-88930238D01*
X145034000Y-88978619D01*
X145009809Y-89051190D01*
X145009809Y-89099571D01*
X145034000Y-89172142D01*
X145058190Y-89196333D01*
X145009809Y-89365666D02*
X145009809Y-89704333D01*
X145517809Y-89486619D01*
X145469428Y-87037333D02*
X145493619Y-87013142D01*
X145517809Y-86940571D01*
X145517809Y-86892190D01*
X145493619Y-86819619D01*
X145445238Y-86771238D01*
X145396857Y-86747047D01*
X145300095Y-86722857D01*
X145227523Y-86722857D01*
X145130761Y-86747047D01*
X145082380Y-86771238D01*
X145034000Y-86819619D01*
X145009809Y-86892190D01*
X145009809Y-86940571D01*
X145034000Y-87013142D01*
X145058190Y-87037333D01*
X145009809Y-87472761D02*
X145009809Y-87376000D01*
X145034000Y-87327619D01*
X145058190Y-87303428D01*
X145130761Y-87255047D01*
X145227523Y-87230857D01*
X145421047Y-87230857D01*
X145469428Y-87255047D01*
X145493619Y-87279238D01*
X145517809Y-87327619D01*
X145517809Y-87424380D01*
X145493619Y-87472761D01*
X145469428Y-87496952D01*
X145421047Y-87521142D01*
X145300095Y-87521142D01*
X145251714Y-87496952D01*
X145227523Y-87472761D01*
X145203333Y-87424380D01*
X145203333Y-87327619D01*
X145227523Y-87279238D01*
X145251714Y-87255047D01*
X145300095Y-87230857D01*
X146025809Y-99144666D02*
X146388666Y-99144666D01*
X146461238Y-99120476D01*
X146509619Y-99072095D01*
X146533809Y-98999523D01*
X146533809Y-98951142D01*
X146533809Y-99652666D02*
X146533809Y-99362380D01*
X146533809Y-99507523D02*
X146025809Y-99507523D01*
X146098380Y-99459142D01*
X146146761Y-99410761D01*
X146170952Y-99362380D01*
X143866809Y-88131952D02*
X144278047Y-88131952D01*
X144326428Y-88156142D01*
X144350619Y-88180333D01*
X144374809Y-88228714D01*
X144374809Y-88325476D01*
X144350619Y-88373857D01*
X144326428Y-88398047D01*
X144278047Y-88422238D01*
X143866809Y-88422238D01*
X143915190Y-88639952D02*
X143891000Y-88664142D01*
X143866809Y-88712523D01*
X143866809Y-88833476D01*
X143891000Y-88881857D01*
X143915190Y-88906047D01*
X143963571Y-88930238D01*
X144011952Y-88930238D01*
X144084523Y-88906047D01*
X144374809Y-88615761D01*
X144374809Y-88930238D01*
X135466666Y-82096428D02*
X135490857Y-82120619D01*
X135563428Y-82144809D01*
X135611809Y-82144809D01*
X135684380Y-82120619D01*
X135732761Y-82072238D01*
X135756952Y-82023857D01*
X135781142Y-81927095D01*
X135781142Y-81854523D01*
X135756952Y-81757761D01*
X135732761Y-81709380D01*
X135684380Y-81661000D01*
X135611809Y-81636809D01*
X135563428Y-81636809D01*
X135490857Y-81661000D01*
X135466666Y-81685190D01*
X135031238Y-81806142D02*
X135031238Y-82144809D01*
X135152190Y-81612619D02*
X135273142Y-81975476D01*
X134958666Y-81975476D01*
X133180666Y-82096428D02*
X133204857Y-82120619D01*
X133277428Y-82144809D01*
X133325809Y-82144809D01*
X133398380Y-82120619D01*
X133446761Y-82072238D01*
X133470952Y-82023857D01*
X133495142Y-81927095D01*
X133495142Y-81854523D01*
X133470952Y-81757761D01*
X133446761Y-81709380D01*
X133398380Y-81661000D01*
X133325809Y-81636809D01*
X133277428Y-81636809D01*
X133204857Y-81661000D01*
X133180666Y-81685190D01*
X133011333Y-81636809D02*
X132696857Y-81636809D01*
X132866190Y-81830333D01*
X132793619Y-81830333D01*
X132745238Y-81854523D01*
X132721047Y-81878714D01*
X132696857Y-81927095D01*
X132696857Y-82048047D01*
X132721047Y-82096428D01*
X132745238Y-82120619D01*
X132793619Y-82144809D01*
X132938761Y-82144809D01*
X132987142Y-82120619D01*
X133011333Y-82096428D01*
X131245428Y-95419333D02*
X131269619Y-95395142D01*
X131293809Y-95322571D01*
X131293809Y-95274190D01*
X131269619Y-95201619D01*
X131221238Y-95153238D01*
X131172857Y-95129047D01*
X131076095Y-95104857D01*
X131003523Y-95104857D01*
X130906761Y-95129047D01*
X130858380Y-95153238D01*
X130810000Y-95201619D01*
X130785809Y-95274190D01*
X130785809Y-95322571D01*
X130810000Y-95395142D01*
X130834190Y-95419333D01*
X130834190Y-95612857D02*
X130810000Y-95637047D01*
X130785809Y-95685428D01*
X130785809Y-95806380D01*
X130810000Y-95854761D01*
X130834190Y-95878952D01*
X130882571Y-95903142D01*
X130930952Y-95903142D01*
X131003523Y-95878952D01*
X131293809Y-95588666D01*
X131293809Y-95903142D01*
X131245428Y-92879333D02*
X131269619Y-92855142D01*
X131293809Y-92782571D01*
X131293809Y-92734190D01*
X131269619Y-92661619D01*
X131221238Y-92613238D01*
X131172857Y-92589047D01*
X131076095Y-92564857D01*
X131003523Y-92564857D01*
X130906761Y-92589047D01*
X130858380Y-92613238D01*
X130810000Y-92661619D01*
X130785809Y-92734190D01*
X130785809Y-92782571D01*
X130810000Y-92855142D01*
X130834190Y-92879333D01*
X131293809Y-93363142D02*
X131293809Y-93072857D01*
X131293809Y-93218000D02*
X130785809Y-93218000D01*
X130858380Y-93169619D01*
X130906761Y-93121238D01*
X130930952Y-93072857D01*
M02*
