M48
; DRILL file {KiCad (5.1.5)-3} date 12/31/2019 5:34:44 PM
; FORMAT={-:-/ absolute / inch / decimal}
; #@! TF.CreationDate,2019-12-31T17:34:44+04:00
; #@! TF.GenerationSoftware,Kicad,Pcbnew,(5.1.5)-3
; #@! TF.FileFunction,Plated,1,2,PTH
FMAT,2
INCH
T1C0.0118
T2C0.0256
T3C0.0276
T4C0.0394
%
G90
G05
T1
X5.145Y-3.17
X5.205Y-3.6
X5.27Y-3.6
X5.365Y-3.8
X5.5Y-3.165
X5.52Y-3.745
X5.54Y-3.605
X5.625Y-3.355
X5.6342Y-3.7987
X5.6528Y-3.4172
X5.675Y-3.095
X5.6784Y-3.3134
X5.705Y-3.56
X5.74Y-3.58
X5.75Y-3.85
X5.77Y-3.605
T4
X5.4Y-3.95
X5.5Y-3.95
X5.6Y-3.95
X5.05Y-3.1
X5.05Y-3.2
X5.05Y-3.3
X5.05Y-3.4
X5.05Y-3.5
X5.05Y-3.6
X5.05Y-3.7
X5.05Y-3.8
X5.05Y-3.9
X5.95Y-3.2
X5.95Y-3.3
X5.95Y-3.4
X5.95Y-3.5
X5.4Y-3.05
X5.5Y-3.05
X5.6Y-3.05
T2
G00X5.8237Y-3.6837
M15
G01X5.8079Y-3.6837
M16
G05
G00X5.8237Y-3.8743
M15
G01X5.8079Y-3.8743
M16
G05
T3
G00X5.9437Y-3.6715
M15
G01X5.9241Y-3.6715
M16
G05
G00X5.9437Y-3.8865
M15
G01X5.9241Y-3.8865
M16
G05
T0
M30
