G04 #@! TF.GenerationSoftware,KiCad,Pcbnew,(5.1.5)-2*
G04 #@! TF.CreationDate,2019-12-31T22:23:39+04:00*
G04 #@! TF.ProjectId,stm32f042_devboard,73746d33-3266-4303-9432-5f646576626f,1*
G04 #@! TF.SameCoordinates,Original*
G04 #@! TF.FileFunction,Copper,L2,Bot*
G04 #@! TF.FilePolarity,Positive*
%FSLAX46Y46*%
G04 Gerber Fmt 4.6, Leading zero omitted, Abs format (unit mm)*
G04 Created by KiCad (PCBNEW (5.1.5)-2) date 2019-12-31 22:23:39*
%MOMM*%
%LPD*%
G04 APERTURE LIST*
%ADD10C,0.100000*%
%ADD11O,1.700000X1.700000*%
%ADD12R,1.700000X1.700000*%
%ADD13R,2.500000X1.430000*%
%ADD14O,1.700000X1.350000*%
%ADD15O,1.500000X1.100000*%
%ADD16R,1.650000X0.400000*%
%ADD17R,1.500000X2.000000*%
%ADD18R,0.700000X1.825000*%
%ADD19R,2.000000X1.350000*%
%ADD20R,3.800000X2.000000*%
%ADD21C,0.500000*%
%ADD22C,0.254000*%
%ADD23C,0.250000*%
G04 APERTURE END LIST*
G04 #@! TA.AperFunction,SMDPad,CuDef*
D10*
G36*
X145635505Y-80316204D02*
G01*
X145659773Y-80319804D01*
X145683572Y-80325765D01*
X145706671Y-80334030D01*
X145728850Y-80344520D01*
X145749893Y-80357132D01*
X145769599Y-80371747D01*
X145787777Y-80388223D01*
X145804253Y-80406401D01*
X145818868Y-80426107D01*
X145831480Y-80447150D01*
X145841970Y-80469329D01*
X145850235Y-80492428D01*
X145856196Y-80516227D01*
X145859796Y-80540495D01*
X145861000Y-80564999D01*
X145861000Y-81215001D01*
X145859796Y-81239505D01*
X145856196Y-81263773D01*
X145850235Y-81287572D01*
X145841970Y-81310671D01*
X145831480Y-81332850D01*
X145818868Y-81353893D01*
X145804253Y-81373599D01*
X145787777Y-81391777D01*
X145769599Y-81408253D01*
X145749893Y-81422868D01*
X145728850Y-81435480D01*
X145706671Y-81445970D01*
X145683572Y-81454235D01*
X145659773Y-81460196D01*
X145635505Y-81463796D01*
X145611001Y-81465000D01*
X144710999Y-81465000D01*
X144686495Y-81463796D01*
X144662227Y-81460196D01*
X144638428Y-81454235D01*
X144615329Y-81445970D01*
X144593150Y-81435480D01*
X144572107Y-81422868D01*
X144552401Y-81408253D01*
X144534223Y-81391777D01*
X144517747Y-81373599D01*
X144503132Y-81353893D01*
X144490520Y-81332850D01*
X144480030Y-81310671D01*
X144471765Y-81287572D01*
X144465804Y-81263773D01*
X144462204Y-81239505D01*
X144461000Y-81215001D01*
X144461000Y-80564999D01*
X144462204Y-80540495D01*
X144465804Y-80516227D01*
X144471765Y-80492428D01*
X144480030Y-80469329D01*
X144490520Y-80447150D01*
X144503132Y-80426107D01*
X144517747Y-80406401D01*
X144534223Y-80388223D01*
X144552401Y-80371747D01*
X144572107Y-80357132D01*
X144593150Y-80344520D01*
X144615329Y-80334030D01*
X144638428Y-80325765D01*
X144662227Y-80319804D01*
X144686495Y-80316204D01*
X144710999Y-80315000D01*
X145611001Y-80315000D01*
X145635505Y-80316204D01*
G37*
G04 #@! TD.AperFunction*
G04 #@! TA.AperFunction,SMDPad,CuDef*
G36*
X145635505Y-82366204D02*
G01*
X145659773Y-82369804D01*
X145683572Y-82375765D01*
X145706671Y-82384030D01*
X145728850Y-82394520D01*
X145749893Y-82407132D01*
X145769599Y-82421747D01*
X145787777Y-82438223D01*
X145804253Y-82456401D01*
X145818868Y-82476107D01*
X145831480Y-82497150D01*
X145841970Y-82519329D01*
X145850235Y-82542428D01*
X145856196Y-82566227D01*
X145859796Y-82590495D01*
X145861000Y-82614999D01*
X145861000Y-83265001D01*
X145859796Y-83289505D01*
X145856196Y-83313773D01*
X145850235Y-83337572D01*
X145841970Y-83360671D01*
X145831480Y-83382850D01*
X145818868Y-83403893D01*
X145804253Y-83423599D01*
X145787777Y-83441777D01*
X145769599Y-83458253D01*
X145749893Y-83472868D01*
X145728850Y-83485480D01*
X145706671Y-83495970D01*
X145683572Y-83504235D01*
X145659773Y-83510196D01*
X145635505Y-83513796D01*
X145611001Y-83515000D01*
X144710999Y-83515000D01*
X144686495Y-83513796D01*
X144662227Y-83510196D01*
X144638428Y-83504235D01*
X144615329Y-83495970D01*
X144593150Y-83485480D01*
X144572107Y-83472868D01*
X144552401Y-83458253D01*
X144534223Y-83441777D01*
X144517747Y-83423599D01*
X144503132Y-83403893D01*
X144490520Y-83382850D01*
X144480030Y-83360671D01*
X144471765Y-83337572D01*
X144465804Y-83313773D01*
X144462204Y-83289505D01*
X144461000Y-83265001D01*
X144461000Y-82614999D01*
X144462204Y-82590495D01*
X144465804Y-82566227D01*
X144471765Y-82542428D01*
X144480030Y-82519329D01*
X144490520Y-82497150D01*
X144503132Y-82476107D01*
X144517747Y-82456401D01*
X144534223Y-82438223D01*
X144552401Y-82421747D01*
X144572107Y-82407132D01*
X144593150Y-82394520D01*
X144615329Y-82384030D01*
X144638428Y-82375765D01*
X144662227Y-82369804D01*
X144686495Y-82366204D01*
X144710999Y-82365000D01*
X145611001Y-82365000D01*
X145635505Y-82366204D01*
G37*
G04 #@! TD.AperFunction*
G04 #@! TA.AperFunction,SMDPad,CuDef*
G36*
X143476505Y-80307204D02*
G01*
X143500773Y-80310804D01*
X143524572Y-80316765D01*
X143547671Y-80325030D01*
X143569850Y-80335520D01*
X143590893Y-80348132D01*
X143610599Y-80362747D01*
X143628777Y-80379223D01*
X143645253Y-80397401D01*
X143659868Y-80417107D01*
X143672480Y-80438150D01*
X143682970Y-80460329D01*
X143691235Y-80483428D01*
X143697196Y-80507227D01*
X143700796Y-80531495D01*
X143702000Y-80555999D01*
X143702000Y-81206001D01*
X143700796Y-81230505D01*
X143697196Y-81254773D01*
X143691235Y-81278572D01*
X143682970Y-81301671D01*
X143672480Y-81323850D01*
X143659868Y-81344893D01*
X143645253Y-81364599D01*
X143628777Y-81382777D01*
X143610599Y-81399253D01*
X143590893Y-81413868D01*
X143569850Y-81426480D01*
X143547671Y-81436970D01*
X143524572Y-81445235D01*
X143500773Y-81451196D01*
X143476505Y-81454796D01*
X143452001Y-81456000D01*
X142551999Y-81456000D01*
X142527495Y-81454796D01*
X142503227Y-81451196D01*
X142479428Y-81445235D01*
X142456329Y-81436970D01*
X142434150Y-81426480D01*
X142413107Y-81413868D01*
X142393401Y-81399253D01*
X142375223Y-81382777D01*
X142358747Y-81364599D01*
X142344132Y-81344893D01*
X142331520Y-81323850D01*
X142321030Y-81301671D01*
X142312765Y-81278572D01*
X142306804Y-81254773D01*
X142303204Y-81230505D01*
X142302000Y-81206001D01*
X142302000Y-80555999D01*
X142303204Y-80531495D01*
X142306804Y-80507227D01*
X142312765Y-80483428D01*
X142321030Y-80460329D01*
X142331520Y-80438150D01*
X142344132Y-80417107D01*
X142358747Y-80397401D01*
X142375223Y-80379223D01*
X142393401Y-80362747D01*
X142413107Y-80348132D01*
X142434150Y-80335520D01*
X142456329Y-80325030D01*
X142479428Y-80316765D01*
X142503227Y-80310804D01*
X142527495Y-80307204D01*
X142551999Y-80306000D01*
X143452001Y-80306000D01*
X143476505Y-80307204D01*
G37*
G04 #@! TD.AperFunction*
G04 #@! TA.AperFunction,SMDPad,CuDef*
G36*
X143476505Y-82357204D02*
G01*
X143500773Y-82360804D01*
X143524572Y-82366765D01*
X143547671Y-82375030D01*
X143569850Y-82385520D01*
X143590893Y-82398132D01*
X143610599Y-82412747D01*
X143628777Y-82429223D01*
X143645253Y-82447401D01*
X143659868Y-82467107D01*
X143672480Y-82488150D01*
X143682970Y-82510329D01*
X143691235Y-82533428D01*
X143697196Y-82557227D01*
X143700796Y-82581495D01*
X143702000Y-82605999D01*
X143702000Y-83256001D01*
X143700796Y-83280505D01*
X143697196Y-83304773D01*
X143691235Y-83328572D01*
X143682970Y-83351671D01*
X143672480Y-83373850D01*
X143659868Y-83394893D01*
X143645253Y-83414599D01*
X143628777Y-83432777D01*
X143610599Y-83449253D01*
X143590893Y-83463868D01*
X143569850Y-83476480D01*
X143547671Y-83486970D01*
X143524572Y-83495235D01*
X143500773Y-83501196D01*
X143476505Y-83504796D01*
X143452001Y-83506000D01*
X142551999Y-83506000D01*
X142527495Y-83504796D01*
X142503227Y-83501196D01*
X142479428Y-83495235D01*
X142456329Y-83486970D01*
X142434150Y-83476480D01*
X142413107Y-83463868D01*
X142393401Y-83449253D01*
X142375223Y-83432777D01*
X142358747Y-83414599D01*
X142344132Y-83394893D01*
X142331520Y-83373850D01*
X142321030Y-83351671D01*
X142312765Y-83328572D01*
X142306804Y-83304773D01*
X142303204Y-83280505D01*
X142302000Y-83256001D01*
X142302000Y-82605999D01*
X142303204Y-82581495D01*
X142306804Y-82557227D01*
X142312765Y-82533428D01*
X142321030Y-82510329D01*
X142331520Y-82488150D01*
X142344132Y-82467107D01*
X142358747Y-82447401D01*
X142375223Y-82429223D01*
X142393401Y-82412747D01*
X142413107Y-82398132D01*
X142434150Y-82385520D01*
X142456329Y-82375030D01*
X142479428Y-82366765D01*
X142503227Y-82360804D01*
X142527495Y-82357204D01*
X142551999Y-82356000D01*
X143452001Y-82356000D01*
X143476505Y-82357204D01*
G37*
G04 #@! TD.AperFunction*
G04 #@! TA.AperFunction,SMDPad,CuDef*
G36*
X148957505Y-84264204D02*
G01*
X148981773Y-84267804D01*
X149005572Y-84273765D01*
X149028671Y-84282030D01*
X149050850Y-84292520D01*
X149071893Y-84305132D01*
X149091599Y-84319747D01*
X149109777Y-84336223D01*
X149126253Y-84354401D01*
X149140868Y-84374107D01*
X149153480Y-84395150D01*
X149163970Y-84417329D01*
X149172235Y-84440428D01*
X149178196Y-84464227D01*
X149181796Y-84488495D01*
X149183000Y-84512999D01*
X149183000Y-85413001D01*
X149181796Y-85437505D01*
X149178196Y-85461773D01*
X149172235Y-85485572D01*
X149163970Y-85508671D01*
X149153480Y-85530850D01*
X149140868Y-85551893D01*
X149126253Y-85571599D01*
X149109777Y-85589777D01*
X149091599Y-85606253D01*
X149071893Y-85620868D01*
X149050850Y-85633480D01*
X149028671Y-85643970D01*
X149005572Y-85652235D01*
X148981773Y-85658196D01*
X148957505Y-85661796D01*
X148933001Y-85663000D01*
X148282999Y-85663000D01*
X148258495Y-85661796D01*
X148234227Y-85658196D01*
X148210428Y-85652235D01*
X148187329Y-85643970D01*
X148165150Y-85633480D01*
X148144107Y-85620868D01*
X148124401Y-85606253D01*
X148106223Y-85589777D01*
X148089747Y-85571599D01*
X148075132Y-85551893D01*
X148062520Y-85530850D01*
X148052030Y-85508671D01*
X148043765Y-85485572D01*
X148037804Y-85461773D01*
X148034204Y-85437505D01*
X148033000Y-85413001D01*
X148033000Y-84512999D01*
X148034204Y-84488495D01*
X148037804Y-84464227D01*
X148043765Y-84440428D01*
X148052030Y-84417329D01*
X148062520Y-84395150D01*
X148075132Y-84374107D01*
X148089747Y-84354401D01*
X148106223Y-84336223D01*
X148124401Y-84319747D01*
X148144107Y-84305132D01*
X148165150Y-84292520D01*
X148187329Y-84282030D01*
X148210428Y-84273765D01*
X148234227Y-84267804D01*
X148258495Y-84264204D01*
X148282999Y-84263000D01*
X148933001Y-84263000D01*
X148957505Y-84264204D01*
G37*
G04 #@! TD.AperFunction*
G04 #@! TA.AperFunction,SMDPad,CuDef*
G36*
X146907505Y-84264204D02*
G01*
X146931773Y-84267804D01*
X146955572Y-84273765D01*
X146978671Y-84282030D01*
X147000850Y-84292520D01*
X147021893Y-84305132D01*
X147041599Y-84319747D01*
X147059777Y-84336223D01*
X147076253Y-84354401D01*
X147090868Y-84374107D01*
X147103480Y-84395150D01*
X147113970Y-84417329D01*
X147122235Y-84440428D01*
X147128196Y-84464227D01*
X147131796Y-84488495D01*
X147133000Y-84512999D01*
X147133000Y-85413001D01*
X147131796Y-85437505D01*
X147128196Y-85461773D01*
X147122235Y-85485572D01*
X147113970Y-85508671D01*
X147103480Y-85530850D01*
X147090868Y-85551893D01*
X147076253Y-85571599D01*
X147059777Y-85589777D01*
X147041599Y-85606253D01*
X147021893Y-85620868D01*
X147000850Y-85633480D01*
X146978671Y-85643970D01*
X146955572Y-85652235D01*
X146931773Y-85658196D01*
X146907505Y-85661796D01*
X146883001Y-85663000D01*
X146232999Y-85663000D01*
X146208495Y-85661796D01*
X146184227Y-85658196D01*
X146160428Y-85652235D01*
X146137329Y-85643970D01*
X146115150Y-85633480D01*
X146094107Y-85620868D01*
X146074401Y-85606253D01*
X146056223Y-85589777D01*
X146039747Y-85571599D01*
X146025132Y-85551893D01*
X146012520Y-85530850D01*
X146002030Y-85508671D01*
X145993765Y-85485572D01*
X145987804Y-85461773D01*
X145984204Y-85437505D01*
X145983000Y-85413001D01*
X145983000Y-84512999D01*
X145984204Y-84488495D01*
X145987804Y-84464227D01*
X145993765Y-84440428D01*
X146002030Y-84417329D01*
X146012520Y-84395150D01*
X146025132Y-84374107D01*
X146039747Y-84354401D01*
X146056223Y-84336223D01*
X146074401Y-84319747D01*
X146094107Y-84305132D01*
X146115150Y-84292520D01*
X146137329Y-84282030D01*
X146160428Y-84273765D01*
X146184227Y-84267804D01*
X146208495Y-84264204D01*
X146232999Y-84263000D01*
X146883001Y-84263000D01*
X146907505Y-84264204D01*
G37*
G04 #@! TD.AperFunction*
G04 #@! TA.AperFunction,SMDPad,CuDef*
G36*
X148948505Y-88582204D02*
G01*
X148972773Y-88585804D01*
X148996572Y-88591765D01*
X149019671Y-88600030D01*
X149041850Y-88610520D01*
X149062893Y-88623132D01*
X149082599Y-88637747D01*
X149100777Y-88654223D01*
X149117253Y-88672401D01*
X149131868Y-88692107D01*
X149144480Y-88713150D01*
X149154970Y-88735329D01*
X149163235Y-88758428D01*
X149169196Y-88782227D01*
X149172796Y-88806495D01*
X149174000Y-88830999D01*
X149174000Y-89731001D01*
X149172796Y-89755505D01*
X149169196Y-89779773D01*
X149163235Y-89803572D01*
X149154970Y-89826671D01*
X149144480Y-89848850D01*
X149131868Y-89869893D01*
X149117253Y-89889599D01*
X149100777Y-89907777D01*
X149082599Y-89924253D01*
X149062893Y-89938868D01*
X149041850Y-89951480D01*
X149019671Y-89961970D01*
X148996572Y-89970235D01*
X148972773Y-89976196D01*
X148948505Y-89979796D01*
X148924001Y-89981000D01*
X148273999Y-89981000D01*
X148249495Y-89979796D01*
X148225227Y-89976196D01*
X148201428Y-89970235D01*
X148178329Y-89961970D01*
X148156150Y-89951480D01*
X148135107Y-89938868D01*
X148115401Y-89924253D01*
X148097223Y-89907777D01*
X148080747Y-89889599D01*
X148066132Y-89869893D01*
X148053520Y-89848850D01*
X148043030Y-89826671D01*
X148034765Y-89803572D01*
X148028804Y-89779773D01*
X148025204Y-89755505D01*
X148024000Y-89731001D01*
X148024000Y-88830999D01*
X148025204Y-88806495D01*
X148028804Y-88782227D01*
X148034765Y-88758428D01*
X148043030Y-88735329D01*
X148053520Y-88713150D01*
X148066132Y-88692107D01*
X148080747Y-88672401D01*
X148097223Y-88654223D01*
X148115401Y-88637747D01*
X148135107Y-88623132D01*
X148156150Y-88610520D01*
X148178329Y-88600030D01*
X148201428Y-88591765D01*
X148225227Y-88585804D01*
X148249495Y-88582204D01*
X148273999Y-88581000D01*
X148924001Y-88581000D01*
X148948505Y-88582204D01*
G37*
G04 #@! TD.AperFunction*
G04 #@! TA.AperFunction,SMDPad,CuDef*
G36*
X146898505Y-88582204D02*
G01*
X146922773Y-88585804D01*
X146946572Y-88591765D01*
X146969671Y-88600030D01*
X146991850Y-88610520D01*
X147012893Y-88623132D01*
X147032599Y-88637747D01*
X147050777Y-88654223D01*
X147067253Y-88672401D01*
X147081868Y-88692107D01*
X147094480Y-88713150D01*
X147104970Y-88735329D01*
X147113235Y-88758428D01*
X147119196Y-88782227D01*
X147122796Y-88806495D01*
X147124000Y-88830999D01*
X147124000Y-89731001D01*
X147122796Y-89755505D01*
X147119196Y-89779773D01*
X147113235Y-89803572D01*
X147104970Y-89826671D01*
X147094480Y-89848850D01*
X147081868Y-89869893D01*
X147067253Y-89889599D01*
X147050777Y-89907777D01*
X147032599Y-89924253D01*
X147012893Y-89938868D01*
X146991850Y-89951480D01*
X146969671Y-89961970D01*
X146946572Y-89970235D01*
X146922773Y-89976196D01*
X146898505Y-89979796D01*
X146874001Y-89981000D01*
X146223999Y-89981000D01*
X146199495Y-89979796D01*
X146175227Y-89976196D01*
X146151428Y-89970235D01*
X146128329Y-89961970D01*
X146106150Y-89951480D01*
X146085107Y-89938868D01*
X146065401Y-89924253D01*
X146047223Y-89907777D01*
X146030747Y-89889599D01*
X146016132Y-89869893D01*
X146003520Y-89848850D01*
X145993030Y-89826671D01*
X145984765Y-89803572D01*
X145978804Y-89779773D01*
X145975204Y-89755505D01*
X145974000Y-89731001D01*
X145974000Y-88830999D01*
X145975204Y-88806495D01*
X145978804Y-88782227D01*
X145984765Y-88758428D01*
X145993030Y-88735329D01*
X146003520Y-88713150D01*
X146016132Y-88692107D01*
X146030747Y-88672401D01*
X146047223Y-88654223D01*
X146065401Y-88637747D01*
X146085107Y-88623132D01*
X146106150Y-88610520D01*
X146128329Y-88600030D01*
X146151428Y-88591765D01*
X146175227Y-88585804D01*
X146199495Y-88582204D01*
X146223999Y-88581000D01*
X146874001Y-88581000D01*
X146898505Y-88582204D01*
G37*
G04 #@! TD.AperFunction*
G04 #@! TA.AperFunction,SMDPad,CuDef*
G36*
X148948505Y-86423204D02*
G01*
X148972773Y-86426804D01*
X148996572Y-86432765D01*
X149019671Y-86441030D01*
X149041850Y-86451520D01*
X149062893Y-86464132D01*
X149082599Y-86478747D01*
X149100777Y-86495223D01*
X149117253Y-86513401D01*
X149131868Y-86533107D01*
X149144480Y-86554150D01*
X149154970Y-86576329D01*
X149163235Y-86599428D01*
X149169196Y-86623227D01*
X149172796Y-86647495D01*
X149174000Y-86671999D01*
X149174000Y-87572001D01*
X149172796Y-87596505D01*
X149169196Y-87620773D01*
X149163235Y-87644572D01*
X149154970Y-87667671D01*
X149144480Y-87689850D01*
X149131868Y-87710893D01*
X149117253Y-87730599D01*
X149100777Y-87748777D01*
X149082599Y-87765253D01*
X149062893Y-87779868D01*
X149041850Y-87792480D01*
X149019671Y-87802970D01*
X148996572Y-87811235D01*
X148972773Y-87817196D01*
X148948505Y-87820796D01*
X148924001Y-87822000D01*
X148273999Y-87822000D01*
X148249495Y-87820796D01*
X148225227Y-87817196D01*
X148201428Y-87811235D01*
X148178329Y-87802970D01*
X148156150Y-87792480D01*
X148135107Y-87779868D01*
X148115401Y-87765253D01*
X148097223Y-87748777D01*
X148080747Y-87730599D01*
X148066132Y-87710893D01*
X148053520Y-87689850D01*
X148043030Y-87667671D01*
X148034765Y-87644572D01*
X148028804Y-87620773D01*
X148025204Y-87596505D01*
X148024000Y-87572001D01*
X148024000Y-86671999D01*
X148025204Y-86647495D01*
X148028804Y-86623227D01*
X148034765Y-86599428D01*
X148043030Y-86576329D01*
X148053520Y-86554150D01*
X148066132Y-86533107D01*
X148080747Y-86513401D01*
X148097223Y-86495223D01*
X148115401Y-86478747D01*
X148135107Y-86464132D01*
X148156150Y-86451520D01*
X148178329Y-86441030D01*
X148201428Y-86432765D01*
X148225227Y-86426804D01*
X148249495Y-86423204D01*
X148273999Y-86422000D01*
X148924001Y-86422000D01*
X148948505Y-86423204D01*
G37*
G04 #@! TD.AperFunction*
G04 #@! TA.AperFunction,SMDPad,CuDef*
G36*
X146898505Y-86423204D02*
G01*
X146922773Y-86426804D01*
X146946572Y-86432765D01*
X146969671Y-86441030D01*
X146991850Y-86451520D01*
X147012893Y-86464132D01*
X147032599Y-86478747D01*
X147050777Y-86495223D01*
X147067253Y-86513401D01*
X147081868Y-86533107D01*
X147094480Y-86554150D01*
X147104970Y-86576329D01*
X147113235Y-86599428D01*
X147119196Y-86623227D01*
X147122796Y-86647495D01*
X147124000Y-86671999D01*
X147124000Y-87572001D01*
X147122796Y-87596505D01*
X147119196Y-87620773D01*
X147113235Y-87644572D01*
X147104970Y-87667671D01*
X147094480Y-87689850D01*
X147081868Y-87710893D01*
X147067253Y-87730599D01*
X147050777Y-87748777D01*
X147032599Y-87765253D01*
X147012893Y-87779868D01*
X146991850Y-87792480D01*
X146969671Y-87802970D01*
X146946572Y-87811235D01*
X146922773Y-87817196D01*
X146898505Y-87820796D01*
X146874001Y-87822000D01*
X146223999Y-87822000D01*
X146199495Y-87820796D01*
X146175227Y-87817196D01*
X146151428Y-87811235D01*
X146128329Y-87802970D01*
X146106150Y-87792480D01*
X146085107Y-87779868D01*
X146065401Y-87765253D01*
X146047223Y-87748777D01*
X146030747Y-87730599D01*
X146016132Y-87710893D01*
X146003520Y-87689850D01*
X145993030Y-87667671D01*
X145984765Y-87644572D01*
X145978804Y-87620773D01*
X145975204Y-87596505D01*
X145974000Y-87572001D01*
X145974000Y-86671999D01*
X145975204Y-86647495D01*
X145978804Y-86623227D01*
X145984765Y-86599428D01*
X145993030Y-86576329D01*
X146003520Y-86554150D01*
X146016132Y-86533107D01*
X146030747Y-86513401D01*
X146047223Y-86495223D01*
X146065401Y-86478747D01*
X146085107Y-86464132D01*
X146106150Y-86451520D01*
X146128329Y-86441030D01*
X146151428Y-86432765D01*
X146175227Y-86426804D01*
X146199495Y-86423204D01*
X146223999Y-86422000D01*
X146874001Y-86422000D01*
X146898505Y-86423204D01*
G37*
G04 #@! TD.AperFunction*
D11*
X142240000Y-100330000D03*
X139700000Y-100330000D03*
D12*
X137160000Y-100330000D03*
D11*
X142240000Y-77470000D03*
X139700000Y-77470000D03*
D12*
X137160000Y-77470000D03*
D11*
X128270000Y-78740000D03*
X128270000Y-81280000D03*
X128270000Y-83820000D03*
X128270000Y-86360000D03*
X128270000Y-88900000D03*
X128270000Y-91440000D03*
X128270000Y-93980000D03*
X128270000Y-96520000D03*
D12*
X128270000Y-99060000D03*
D11*
X151130000Y-81280000D03*
X151130000Y-83820000D03*
X151130000Y-86360000D03*
D12*
X151130000Y-88900000D03*
D13*
X150991000Y-96947000D03*
X150991000Y-95027000D03*
D14*
X150721000Y-98717000D03*
X150721000Y-93257000D03*
D15*
X147721000Y-98407000D03*
X147721000Y-93567000D03*
D16*
X147841000Y-97287000D03*
X147841000Y-96637000D03*
X147841000Y-95987000D03*
X147841000Y-95337000D03*
X147841000Y-94687000D03*
D17*
X147721000Y-98887000D03*
X147741000Y-93137000D03*
D18*
X149041000Y-98987000D03*
X149041000Y-93037000D03*
D19*
X149791000Y-93257000D03*
X149791000Y-98737000D03*
D17*
X142508000Y-93066000D03*
X137908000Y-93066000D03*
X140208000Y-93066000D03*
D20*
X140208000Y-86766000D03*
G04 #@! TA.AperFunction,SMDPad,CuDef*
D10*
G36*
X135856505Y-82593204D02*
G01*
X135880773Y-82596804D01*
X135904572Y-82602765D01*
X135927671Y-82611030D01*
X135949850Y-82621520D01*
X135970893Y-82634132D01*
X135990599Y-82648747D01*
X136008777Y-82665223D01*
X136025253Y-82683401D01*
X136039868Y-82703107D01*
X136052480Y-82724150D01*
X136062970Y-82746329D01*
X136071235Y-82769428D01*
X136077196Y-82793227D01*
X136080796Y-82817495D01*
X136082000Y-82841999D01*
X136082000Y-83492001D01*
X136080796Y-83516505D01*
X136077196Y-83540773D01*
X136071235Y-83564572D01*
X136062970Y-83587671D01*
X136052480Y-83609850D01*
X136039868Y-83630893D01*
X136025253Y-83650599D01*
X136008777Y-83668777D01*
X135990599Y-83685253D01*
X135970893Y-83699868D01*
X135949850Y-83712480D01*
X135927671Y-83722970D01*
X135904572Y-83731235D01*
X135880773Y-83737196D01*
X135856505Y-83740796D01*
X135832001Y-83742000D01*
X134931999Y-83742000D01*
X134907495Y-83740796D01*
X134883227Y-83737196D01*
X134859428Y-83731235D01*
X134836329Y-83722970D01*
X134814150Y-83712480D01*
X134793107Y-83699868D01*
X134773401Y-83685253D01*
X134755223Y-83668777D01*
X134738747Y-83650599D01*
X134724132Y-83630893D01*
X134711520Y-83609850D01*
X134701030Y-83587671D01*
X134692765Y-83564572D01*
X134686804Y-83540773D01*
X134683204Y-83516505D01*
X134682000Y-83492001D01*
X134682000Y-82841999D01*
X134683204Y-82817495D01*
X134686804Y-82793227D01*
X134692765Y-82769428D01*
X134701030Y-82746329D01*
X134711520Y-82724150D01*
X134724132Y-82703107D01*
X134738747Y-82683401D01*
X134755223Y-82665223D01*
X134773401Y-82648747D01*
X134793107Y-82634132D01*
X134814150Y-82621520D01*
X134836329Y-82611030D01*
X134859428Y-82602765D01*
X134883227Y-82596804D01*
X134907495Y-82593204D01*
X134931999Y-82592000D01*
X135832001Y-82592000D01*
X135856505Y-82593204D01*
G37*
G04 #@! TD.AperFunction*
G04 #@! TA.AperFunction,SMDPad,CuDef*
G36*
X135856505Y-84643204D02*
G01*
X135880773Y-84646804D01*
X135904572Y-84652765D01*
X135927671Y-84661030D01*
X135949850Y-84671520D01*
X135970893Y-84684132D01*
X135990599Y-84698747D01*
X136008777Y-84715223D01*
X136025253Y-84733401D01*
X136039868Y-84753107D01*
X136052480Y-84774150D01*
X136062970Y-84796329D01*
X136071235Y-84819428D01*
X136077196Y-84843227D01*
X136080796Y-84867495D01*
X136082000Y-84891999D01*
X136082000Y-85542001D01*
X136080796Y-85566505D01*
X136077196Y-85590773D01*
X136071235Y-85614572D01*
X136062970Y-85637671D01*
X136052480Y-85659850D01*
X136039868Y-85680893D01*
X136025253Y-85700599D01*
X136008777Y-85718777D01*
X135990599Y-85735253D01*
X135970893Y-85749868D01*
X135949850Y-85762480D01*
X135927671Y-85772970D01*
X135904572Y-85781235D01*
X135880773Y-85787196D01*
X135856505Y-85790796D01*
X135832001Y-85792000D01*
X134931999Y-85792000D01*
X134907495Y-85790796D01*
X134883227Y-85787196D01*
X134859428Y-85781235D01*
X134836329Y-85772970D01*
X134814150Y-85762480D01*
X134793107Y-85749868D01*
X134773401Y-85735253D01*
X134755223Y-85718777D01*
X134738747Y-85700599D01*
X134724132Y-85680893D01*
X134711520Y-85659850D01*
X134701030Y-85637671D01*
X134692765Y-85614572D01*
X134686804Y-85590773D01*
X134683204Y-85566505D01*
X134682000Y-85542001D01*
X134682000Y-84891999D01*
X134683204Y-84867495D01*
X134686804Y-84843227D01*
X134692765Y-84819428D01*
X134701030Y-84796329D01*
X134711520Y-84774150D01*
X134724132Y-84753107D01*
X134738747Y-84733401D01*
X134755223Y-84715223D01*
X134773401Y-84698747D01*
X134793107Y-84684132D01*
X134814150Y-84671520D01*
X134836329Y-84661030D01*
X134859428Y-84652765D01*
X134883227Y-84646804D01*
X134907495Y-84643204D01*
X134931999Y-84642000D01*
X135832001Y-84642000D01*
X135856505Y-84643204D01*
G37*
G04 #@! TD.AperFunction*
G04 #@! TA.AperFunction,SMDPad,CuDef*
G36*
X133570505Y-82593204D02*
G01*
X133594773Y-82596804D01*
X133618572Y-82602765D01*
X133641671Y-82611030D01*
X133663850Y-82621520D01*
X133684893Y-82634132D01*
X133704599Y-82648747D01*
X133722777Y-82665223D01*
X133739253Y-82683401D01*
X133753868Y-82703107D01*
X133766480Y-82724150D01*
X133776970Y-82746329D01*
X133785235Y-82769428D01*
X133791196Y-82793227D01*
X133794796Y-82817495D01*
X133796000Y-82841999D01*
X133796000Y-83492001D01*
X133794796Y-83516505D01*
X133791196Y-83540773D01*
X133785235Y-83564572D01*
X133776970Y-83587671D01*
X133766480Y-83609850D01*
X133753868Y-83630893D01*
X133739253Y-83650599D01*
X133722777Y-83668777D01*
X133704599Y-83685253D01*
X133684893Y-83699868D01*
X133663850Y-83712480D01*
X133641671Y-83722970D01*
X133618572Y-83731235D01*
X133594773Y-83737196D01*
X133570505Y-83740796D01*
X133546001Y-83742000D01*
X132645999Y-83742000D01*
X132621495Y-83740796D01*
X132597227Y-83737196D01*
X132573428Y-83731235D01*
X132550329Y-83722970D01*
X132528150Y-83712480D01*
X132507107Y-83699868D01*
X132487401Y-83685253D01*
X132469223Y-83668777D01*
X132452747Y-83650599D01*
X132438132Y-83630893D01*
X132425520Y-83609850D01*
X132415030Y-83587671D01*
X132406765Y-83564572D01*
X132400804Y-83540773D01*
X132397204Y-83516505D01*
X132396000Y-83492001D01*
X132396000Y-82841999D01*
X132397204Y-82817495D01*
X132400804Y-82793227D01*
X132406765Y-82769428D01*
X132415030Y-82746329D01*
X132425520Y-82724150D01*
X132438132Y-82703107D01*
X132452747Y-82683401D01*
X132469223Y-82665223D01*
X132487401Y-82648747D01*
X132507107Y-82634132D01*
X132528150Y-82621520D01*
X132550329Y-82611030D01*
X132573428Y-82602765D01*
X132597227Y-82596804D01*
X132621495Y-82593204D01*
X132645999Y-82592000D01*
X133546001Y-82592000D01*
X133570505Y-82593204D01*
G37*
G04 #@! TD.AperFunction*
G04 #@! TA.AperFunction,SMDPad,CuDef*
G36*
X133570505Y-84643204D02*
G01*
X133594773Y-84646804D01*
X133618572Y-84652765D01*
X133641671Y-84661030D01*
X133663850Y-84671520D01*
X133684893Y-84684132D01*
X133704599Y-84698747D01*
X133722777Y-84715223D01*
X133739253Y-84733401D01*
X133753868Y-84753107D01*
X133766480Y-84774150D01*
X133776970Y-84796329D01*
X133785235Y-84819428D01*
X133791196Y-84843227D01*
X133794796Y-84867495D01*
X133796000Y-84891999D01*
X133796000Y-85542001D01*
X133794796Y-85566505D01*
X133791196Y-85590773D01*
X133785235Y-85614572D01*
X133776970Y-85637671D01*
X133766480Y-85659850D01*
X133753868Y-85680893D01*
X133739253Y-85700599D01*
X133722777Y-85718777D01*
X133704599Y-85735253D01*
X133684893Y-85749868D01*
X133663850Y-85762480D01*
X133641671Y-85772970D01*
X133618572Y-85781235D01*
X133594773Y-85787196D01*
X133570505Y-85790796D01*
X133546001Y-85792000D01*
X132645999Y-85792000D01*
X132621495Y-85790796D01*
X132597227Y-85787196D01*
X132573428Y-85781235D01*
X132550329Y-85772970D01*
X132528150Y-85762480D01*
X132507107Y-85749868D01*
X132487401Y-85735253D01*
X132469223Y-85718777D01*
X132452747Y-85700599D01*
X132438132Y-85680893D01*
X132425520Y-85659850D01*
X132415030Y-85637671D01*
X132406765Y-85614572D01*
X132400804Y-85590773D01*
X132397204Y-85566505D01*
X132396000Y-85542001D01*
X132396000Y-84891999D01*
X132397204Y-84867495D01*
X132400804Y-84843227D01*
X132406765Y-84819428D01*
X132415030Y-84796329D01*
X132425520Y-84774150D01*
X132438132Y-84753107D01*
X132452747Y-84733401D01*
X132469223Y-84715223D01*
X132487401Y-84698747D01*
X132507107Y-84684132D01*
X132528150Y-84671520D01*
X132550329Y-84661030D01*
X132573428Y-84652765D01*
X132597227Y-84646804D01*
X132621495Y-84643204D01*
X132645999Y-84642000D01*
X133546001Y-84642000D01*
X133570505Y-84643204D01*
G37*
G04 #@! TD.AperFunction*
G04 #@! TA.AperFunction,SMDPad,CuDef*
G36*
X132683505Y-94805204D02*
G01*
X132707773Y-94808804D01*
X132731572Y-94814765D01*
X132754671Y-94823030D01*
X132776850Y-94833520D01*
X132797893Y-94846132D01*
X132817599Y-94860747D01*
X132835777Y-94877223D01*
X132852253Y-94895401D01*
X132866868Y-94915107D01*
X132879480Y-94936150D01*
X132889970Y-94958329D01*
X132898235Y-94981428D01*
X132904196Y-95005227D01*
X132907796Y-95029495D01*
X132909000Y-95053999D01*
X132909000Y-95954001D01*
X132907796Y-95978505D01*
X132904196Y-96002773D01*
X132898235Y-96026572D01*
X132889970Y-96049671D01*
X132879480Y-96071850D01*
X132866868Y-96092893D01*
X132852253Y-96112599D01*
X132835777Y-96130777D01*
X132817599Y-96147253D01*
X132797893Y-96161868D01*
X132776850Y-96174480D01*
X132754671Y-96184970D01*
X132731572Y-96193235D01*
X132707773Y-96199196D01*
X132683505Y-96202796D01*
X132659001Y-96204000D01*
X132008999Y-96204000D01*
X131984495Y-96202796D01*
X131960227Y-96199196D01*
X131936428Y-96193235D01*
X131913329Y-96184970D01*
X131891150Y-96174480D01*
X131870107Y-96161868D01*
X131850401Y-96147253D01*
X131832223Y-96130777D01*
X131815747Y-96112599D01*
X131801132Y-96092893D01*
X131788520Y-96071850D01*
X131778030Y-96049671D01*
X131769765Y-96026572D01*
X131763804Y-96002773D01*
X131760204Y-95978505D01*
X131759000Y-95954001D01*
X131759000Y-95053999D01*
X131760204Y-95029495D01*
X131763804Y-95005227D01*
X131769765Y-94981428D01*
X131778030Y-94958329D01*
X131788520Y-94936150D01*
X131801132Y-94915107D01*
X131815747Y-94895401D01*
X131832223Y-94877223D01*
X131850401Y-94860747D01*
X131870107Y-94846132D01*
X131891150Y-94833520D01*
X131913329Y-94823030D01*
X131936428Y-94814765D01*
X131960227Y-94808804D01*
X131984495Y-94805204D01*
X132008999Y-94804000D01*
X132659001Y-94804000D01*
X132683505Y-94805204D01*
G37*
G04 #@! TD.AperFunction*
G04 #@! TA.AperFunction,SMDPad,CuDef*
G36*
X134733505Y-94805204D02*
G01*
X134757773Y-94808804D01*
X134781572Y-94814765D01*
X134804671Y-94823030D01*
X134826850Y-94833520D01*
X134847893Y-94846132D01*
X134867599Y-94860747D01*
X134885777Y-94877223D01*
X134902253Y-94895401D01*
X134916868Y-94915107D01*
X134929480Y-94936150D01*
X134939970Y-94958329D01*
X134948235Y-94981428D01*
X134954196Y-95005227D01*
X134957796Y-95029495D01*
X134959000Y-95053999D01*
X134959000Y-95954001D01*
X134957796Y-95978505D01*
X134954196Y-96002773D01*
X134948235Y-96026572D01*
X134939970Y-96049671D01*
X134929480Y-96071850D01*
X134916868Y-96092893D01*
X134902253Y-96112599D01*
X134885777Y-96130777D01*
X134867599Y-96147253D01*
X134847893Y-96161868D01*
X134826850Y-96174480D01*
X134804671Y-96184970D01*
X134781572Y-96193235D01*
X134757773Y-96199196D01*
X134733505Y-96202796D01*
X134709001Y-96204000D01*
X134058999Y-96204000D01*
X134034495Y-96202796D01*
X134010227Y-96199196D01*
X133986428Y-96193235D01*
X133963329Y-96184970D01*
X133941150Y-96174480D01*
X133920107Y-96161868D01*
X133900401Y-96147253D01*
X133882223Y-96130777D01*
X133865747Y-96112599D01*
X133851132Y-96092893D01*
X133838520Y-96071850D01*
X133828030Y-96049671D01*
X133819765Y-96026572D01*
X133813804Y-96002773D01*
X133810204Y-95978505D01*
X133809000Y-95954001D01*
X133809000Y-95053999D01*
X133810204Y-95029495D01*
X133813804Y-95005227D01*
X133819765Y-94981428D01*
X133828030Y-94958329D01*
X133838520Y-94936150D01*
X133851132Y-94915107D01*
X133865747Y-94895401D01*
X133882223Y-94877223D01*
X133900401Y-94860747D01*
X133920107Y-94846132D01*
X133941150Y-94833520D01*
X133963329Y-94823030D01*
X133986428Y-94814765D01*
X134010227Y-94808804D01*
X134034495Y-94805204D01*
X134058999Y-94804000D01*
X134709001Y-94804000D01*
X134733505Y-94805204D01*
G37*
G04 #@! TD.AperFunction*
G04 #@! TA.AperFunction,SMDPad,CuDef*
G36*
X132683505Y-92265204D02*
G01*
X132707773Y-92268804D01*
X132731572Y-92274765D01*
X132754671Y-92283030D01*
X132776850Y-92293520D01*
X132797893Y-92306132D01*
X132817599Y-92320747D01*
X132835777Y-92337223D01*
X132852253Y-92355401D01*
X132866868Y-92375107D01*
X132879480Y-92396150D01*
X132889970Y-92418329D01*
X132898235Y-92441428D01*
X132904196Y-92465227D01*
X132907796Y-92489495D01*
X132909000Y-92513999D01*
X132909000Y-93414001D01*
X132907796Y-93438505D01*
X132904196Y-93462773D01*
X132898235Y-93486572D01*
X132889970Y-93509671D01*
X132879480Y-93531850D01*
X132866868Y-93552893D01*
X132852253Y-93572599D01*
X132835777Y-93590777D01*
X132817599Y-93607253D01*
X132797893Y-93621868D01*
X132776850Y-93634480D01*
X132754671Y-93644970D01*
X132731572Y-93653235D01*
X132707773Y-93659196D01*
X132683505Y-93662796D01*
X132659001Y-93664000D01*
X132008999Y-93664000D01*
X131984495Y-93662796D01*
X131960227Y-93659196D01*
X131936428Y-93653235D01*
X131913329Y-93644970D01*
X131891150Y-93634480D01*
X131870107Y-93621868D01*
X131850401Y-93607253D01*
X131832223Y-93590777D01*
X131815747Y-93572599D01*
X131801132Y-93552893D01*
X131788520Y-93531850D01*
X131778030Y-93509671D01*
X131769765Y-93486572D01*
X131763804Y-93462773D01*
X131760204Y-93438505D01*
X131759000Y-93414001D01*
X131759000Y-92513999D01*
X131760204Y-92489495D01*
X131763804Y-92465227D01*
X131769765Y-92441428D01*
X131778030Y-92418329D01*
X131788520Y-92396150D01*
X131801132Y-92375107D01*
X131815747Y-92355401D01*
X131832223Y-92337223D01*
X131850401Y-92320747D01*
X131870107Y-92306132D01*
X131891150Y-92293520D01*
X131913329Y-92283030D01*
X131936428Y-92274765D01*
X131960227Y-92268804D01*
X131984495Y-92265204D01*
X132008999Y-92264000D01*
X132659001Y-92264000D01*
X132683505Y-92265204D01*
G37*
G04 #@! TD.AperFunction*
G04 #@! TA.AperFunction,SMDPad,CuDef*
G36*
X134733505Y-92265204D02*
G01*
X134757773Y-92268804D01*
X134781572Y-92274765D01*
X134804671Y-92283030D01*
X134826850Y-92293520D01*
X134847893Y-92306132D01*
X134867599Y-92320747D01*
X134885777Y-92337223D01*
X134902253Y-92355401D01*
X134916868Y-92375107D01*
X134929480Y-92396150D01*
X134939970Y-92418329D01*
X134948235Y-92441428D01*
X134954196Y-92465227D01*
X134957796Y-92489495D01*
X134959000Y-92513999D01*
X134959000Y-93414001D01*
X134957796Y-93438505D01*
X134954196Y-93462773D01*
X134948235Y-93486572D01*
X134939970Y-93509671D01*
X134929480Y-93531850D01*
X134916868Y-93552893D01*
X134902253Y-93572599D01*
X134885777Y-93590777D01*
X134867599Y-93607253D01*
X134847893Y-93621868D01*
X134826850Y-93634480D01*
X134804671Y-93644970D01*
X134781572Y-93653235D01*
X134757773Y-93659196D01*
X134733505Y-93662796D01*
X134709001Y-93664000D01*
X134058999Y-93664000D01*
X134034495Y-93662796D01*
X134010227Y-93659196D01*
X133986428Y-93653235D01*
X133963329Y-93644970D01*
X133941150Y-93634480D01*
X133920107Y-93621868D01*
X133900401Y-93607253D01*
X133882223Y-93590777D01*
X133865747Y-93572599D01*
X133851132Y-93552893D01*
X133838520Y-93531850D01*
X133828030Y-93509671D01*
X133819765Y-93486572D01*
X133813804Y-93462773D01*
X133810204Y-93438505D01*
X133809000Y-93414001D01*
X133809000Y-92513999D01*
X133810204Y-92489495D01*
X133813804Y-92465227D01*
X133819765Y-92441428D01*
X133828030Y-92418329D01*
X133838520Y-92396150D01*
X133851132Y-92375107D01*
X133865747Y-92355401D01*
X133882223Y-92337223D01*
X133900401Y-92320747D01*
X133920107Y-92306132D01*
X133941150Y-92293520D01*
X133963329Y-92283030D01*
X133986428Y-92274765D01*
X134010227Y-92268804D01*
X134034495Y-92265204D01*
X134058999Y-92264000D01*
X134709001Y-92264000D01*
X134733505Y-92265204D01*
G37*
G04 #@! TD.AperFunction*
D21*
X136271000Y-96520000D03*
X146050000Y-97790000D03*
X137033000Y-82550000D03*
X143108000Y-96488000D03*
X144145000Y-78613000D03*
X143510000Y-90551000D03*
X146558000Y-91567000D03*
X140716000Y-91567000D03*
X143581000Y-86797000D03*
X133858000Y-91440000D03*
X140208000Y-95123000D03*
X145161000Y-85217000D03*
X132207000Y-88265000D03*
X132207000Y-91440000D03*
X142494000Y-84201000D03*
X144231000Y-84201000D03*
X144907000Y-90424000D03*
X145796000Y-90932000D03*
X139700000Y-80391000D03*
D22*
X150411000Y-98407000D02*
X150721000Y-98717000D01*
X147721000Y-98407000D02*
X150411000Y-98407000D01*
X150411000Y-93567000D02*
X150721000Y-93257000D01*
X147721000Y-93567000D02*
X150411000Y-93567000D01*
X150721000Y-97217000D02*
X150991000Y-96947000D01*
X150721000Y-98717000D02*
X150721000Y-97217000D01*
X150721000Y-94757000D02*
X150991000Y-95027000D01*
X150721000Y-93257000D02*
X150721000Y-94757000D01*
X147721000Y-97407000D02*
X147841000Y-97287000D01*
X147721000Y-98407000D02*
X147721000Y-97407000D01*
D23*
X144163000Y-98407000D02*
X142240000Y-100330000D01*
X147721000Y-98407000D02*
X144163000Y-98407000D01*
X146553000Y-97287000D02*
X146050000Y-97790000D01*
X147841000Y-97287000D02*
X146553000Y-97287000D01*
X148599000Y-89281000D02*
X148599000Y-87122000D01*
X148599000Y-84972000D02*
X148608000Y-84963000D01*
X148599000Y-87122000D02*
X148599000Y-84972000D01*
X150368000Y-87122000D02*
X151130000Y-86360000D01*
X148599000Y-87122000D02*
X150368000Y-87122000D01*
X149733000Y-84963000D02*
X151130000Y-86360000D01*
X148608000Y-84963000D02*
X149733000Y-84963000D01*
D22*
X138534000Y-91567000D02*
X140716000Y-91567000D01*
X137806000Y-92964000D02*
X137908000Y-93066000D01*
X134384000Y-92964000D02*
X137806000Y-92964000D01*
X134384000Y-95504000D02*
X134384000Y-92964000D01*
X137160000Y-100330000D02*
X137160000Y-99226000D01*
X137908000Y-98478000D02*
X137908000Y-93066000D01*
X137160000Y-99226000D02*
X137908000Y-98478000D01*
D23*
X146558000Y-91567000D02*
X146558000Y-94292602D01*
X146558000Y-94479000D02*
X146558000Y-94292602D01*
X146766000Y-94687000D02*
X146558000Y-94479000D01*
X147841000Y-94687000D02*
X146766000Y-94687000D01*
X138157000Y-91567000D02*
X138534000Y-91567000D01*
X137908000Y-91816000D02*
X138157000Y-91567000D01*
X137908000Y-93066000D02*
X137908000Y-91816000D01*
D22*
X140208000Y-86766000D02*
X134784000Y-86766000D01*
X133858000Y-91440000D02*
X133858000Y-88392000D01*
D23*
X133096000Y-85217000D02*
X135382000Y-85217000D01*
X138058000Y-86766000D02*
X140208000Y-86766000D01*
X136356000Y-86766000D02*
X138058000Y-86766000D01*
X133858000Y-87692000D02*
X134784000Y-86766000D01*
X133858000Y-88392000D02*
X133858000Y-87692000D01*
X140208000Y-93066000D02*
X140208000Y-95123000D01*
X143550000Y-86766000D02*
X143581000Y-86797000D01*
X140208000Y-86766000D02*
X143550000Y-86766000D01*
X146224000Y-86797000D02*
X146549000Y-87122000D01*
X143581000Y-86797000D02*
X146224000Y-86797000D01*
X146549000Y-84972000D02*
X146558000Y-84963000D01*
X146549000Y-89281000D02*
X146549000Y-84972000D01*
X145152000Y-82931000D02*
X145161000Y-82940000D01*
X143002000Y-82931000D02*
X145152000Y-82931000D01*
X145161000Y-85217000D02*
X143581000Y-86797000D01*
X145161000Y-82940000D02*
X145161000Y-85217000D01*
X140208000Y-85516000D02*
X140208000Y-86766000D01*
X139909000Y-85217000D02*
X140208000Y-85516000D01*
X135382000Y-85217000D02*
X139909000Y-85217000D01*
X132207000Y-91440000D02*
X132207000Y-88265000D01*
X144231000Y-84201000D02*
X142494000Y-84201000D01*
D22*
X146769934Y-95987000D02*
X147841000Y-95987000D01*
X144907000Y-94124066D02*
X145152467Y-94369533D01*
X145034000Y-94251066D02*
X145152467Y-94369533D01*
X144907000Y-90424000D02*
X144907000Y-94124066D01*
X145152467Y-94369533D02*
X146769934Y-95987000D01*
X145796000Y-94371000D02*
X145796000Y-90932000D01*
X147841000Y-95337000D02*
X146762000Y-95337000D01*
X146762000Y-95337000D02*
X145796000Y-94371000D01*
X139700000Y-80391000D02*
X139700000Y-77470000D01*
G36*
X135927157Y-78320000D02*
G01*
X135934513Y-78394689D01*
X135956299Y-78466508D01*
X135991678Y-78532696D01*
X136039289Y-78590711D01*
X136097304Y-78638322D01*
X136163492Y-78673701D01*
X136235311Y-78695487D01*
X136310000Y-78702843D01*
X138010000Y-78702843D01*
X138084689Y-78695487D01*
X138156508Y-78673701D01*
X138222696Y-78638322D01*
X138280711Y-78590711D01*
X138328322Y-78532696D01*
X138363701Y-78466508D01*
X138385487Y-78394689D01*
X138392843Y-78320000D01*
X138392843Y-77597000D01*
X138470145Y-77597000D01*
X138516307Y-77829069D01*
X138609102Y-78053097D01*
X138743820Y-78254717D01*
X138915283Y-78426180D01*
X139116903Y-78560898D01*
X139192001Y-78592004D01*
X139192000Y-80015505D01*
X139140815Y-80092109D01*
X139093249Y-80206944D01*
X139069000Y-80328852D01*
X139069000Y-80453148D01*
X139093249Y-80575056D01*
X139140815Y-80689891D01*
X139209870Y-80793239D01*
X139297761Y-80881130D01*
X139401109Y-80950185D01*
X139515944Y-80997751D01*
X139637852Y-81022000D01*
X139762148Y-81022000D01*
X139884056Y-80997751D01*
X139998891Y-80950185D01*
X140102239Y-80881130D01*
X140190130Y-80793239D01*
X140259185Y-80689891D01*
X140306751Y-80575056D01*
X140331000Y-80453148D01*
X140331000Y-80328852D01*
X140326455Y-80306000D01*
X141663928Y-80306000D01*
X141667000Y-80595250D01*
X141825750Y-80754000D01*
X142875000Y-80754000D01*
X142875000Y-79829750D01*
X143129000Y-79829750D01*
X143129000Y-80754000D01*
X143975750Y-80754000D01*
X143984750Y-80763000D01*
X145034000Y-80763000D01*
X145034000Y-79838750D01*
X145288000Y-79838750D01*
X145288000Y-80763000D01*
X146337250Y-80763000D01*
X146496000Y-80604250D01*
X146499072Y-80315000D01*
X146486812Y-80190518D01*
X146450502Y-80070820D01*
X146391537Y-79960506D01*
X146312185Y-79863815D01*
X146215494Y-79784463D01*
X146105180Y-79725498D01*
X145985482Y-79689188D01*
X145861000Y-79676928D01*
X145446750Y-79680000D01*
X145288000Y-79838750D01*
X145034000Y-79838750D01*
X144875250Y-79680000D01*
X144461000Y-79676928D01*
X144336518Y-79689188D01*
X144216820Y-79725498D01*
X144106506Y-79784463D01*
X144086983Y-79800485D01*
X144056494Y-79775463D01*
X143946180Y-79716498D01*
X143826482Y-79680188D01*
X143702000Y-79667928D01*
X143287750Y-79671000D01*
X143129000Y-79829750D01*
X142875000Y-79829750D01*
X142716250Y-79671000D01*
X142302000Y-79667928D01*
X142177518Y-79680188D01*
X142057820Y-79716498D01*
X141947506Y-79775463D01*
X141850815Y-79854815D01*
X141771463Y-79951506D01*
X141712498Y-80061820D01*
X141676188Y-80181518D01*
X141663928Y-80306000D01*
X140326455Y-80306000D01*
X140306751Y-80206944D01*
X140259185Y-80092109D01*
X140208000Y-80015505D01*
X140208000Y-78592004D01*
X140283097Y-78560898D01*
X140484717Y-78426180D01*
X140656180Y-78254717D01*
X140790898Y-78053097D01*
X140883693Y-77829069D01*
X140929855Y-77597000D01*
X141010145Y-77597000D01*
X141056307Y-77829069D01*
X141149102Y-78053097D01*
X141283820Y-78254717D01*
X141455283Y-78426180D01*
X141656903Y-78560898D01*
X141880931Y-78653693D01*
X142118757Y-78701000D01*
X142361243Y-78701000D01*
X142599069Y-78653693D01*
X142823097Y-78560898D01*
X143024717Y-78426180D01*
X143196180Y-78254717D01*
X143330898Y-78053097D01*
X143423693Y-77829069D01*
X143469855Y-77597000D01*
X151003000Y-77597000D01*
X151003000Y-80050145D01*
X150770931Y-80096307D01*
X150546903Y-80189102D01*
X150345283Y-80323820D01*
X150173820Y-80495283D01*
X150039102Y-80696903D01*
X149946307Y-80920931D01*
X149899000Y-81158757D01*
X149899000Y-81401243D01*
X149946307Y-81639069D01*
X150039102Y-81863097D01*
X150173820Y-82064717D01*
X150345283Y-82236180D01*
X150546903Y-82370898D01*
X150770931Y-82463693D01*
X151003000Y-82509855D01*
X151003000Y-82590145D01*
X150770931Y-82636307D01*
X150546903Y-82729102D01*
X150345283Y-82863820D01*
X150173820Y-83035283D01*
X150039102Y-83236903D01*
X149946307Y-83460931D01*
X149899000Y-83698757D01*
X149899000Y-83941243D01*
X149946307Y-84179069D01*
X150039102Y-84403097D01*
X150173820Y-84604717D01*
X150345283Y-84776180D01*
X150546903Y-84910898D01*
X150661168Y-84958228D01*
X150498748Y-85015843D01*
X150248645Y-85164822D01*
X150032412Y-85359731D01*
X149858359Y-85593080D01*
X149820034Y-85673543D01*
X149821072Y-85663000D01*
X149818000Y-85248750D01*
X149659250Y-85090000D01*
X148735000Y-85090000D01*
X148735000Y-85936750D01*
X148726000Y-85945750D01*
X148726000Y-86995000D01*
X149650250Y-86995000D01*
X149748654Y-86896596D01*
X149858359Y-87126920D01*
X150032412Y-87360269D01*
X150248645Y-87555178D01*
X150436633Y-87667157D01*
X150280000Y-87667157D01*
X150205311Y-87674513D01*
X150133492Y-87696299D01*
X150067304Y-87731678D01*
X150009289Y-87779289D01*
X149961678Y-87837304D01*
X149926299Y-87903492D01*
X149904513Y-87975311D01*
X149897157Y-88050000D01*
X149897157Y-89750000D01*
X149904513Y-89824689D01*
X149926299Y-89896508D01*
X149961678Y-89962696D01*
X150009289Y-90020711D01*
X150067304Y-90068322D01*
X150133492Y-90103701D01*
X150205311Y-90125487D01*
X150280000Y-90132843D01*
X151003000Y-90132843D01*
X151003000Y-91982737D01*
X150915482Y-91956188D01*
X150848002Y-91949542D01*
X150848002Y-91947000D01*
X150822192Y-91947000D01*
X150791000Y-91943928D01*
X150076750Y-91947000D01*
X150017432Y-92006318D01*
X150016812Y-92000018D01*
X149980502Y-91880320D01*
X149921537Y-91770006D01*
X149842185Y-91673315D01*
X149745494Y-91593963D01*
X149635180Y-91534998D01*
X149515482Y-91498688D01*
X149391000Y-91486428D01*
X149326750Y-91489500D01*
X149168000Y-91648250D01*
X149168000Y-91945549D01*
X149096404Y-91945242D01*
X149080502Y-91892820D01*
X149021537Y-91782506D01*
X148942185Y-91685815D01*
X148914000Y-91662684D01*
X148914000Y-91648250D01*
X148755250Y-91489500D01*
X148691000Y-91486428D01*
X148566518Y-91498688D01*
X148547412Y-91504484D01*
X148491000Y-91498928D01*
X148026750Y-91502000D01*
X147868000Y-91660750D01*
X147868000Y-92520203D01*
X147848000Y-92536848D01*
X147848000Y-93284000D01*
X147614000Y-93284000D01*
X147614000Y-93264000D01*
X147594000Y-93264000D01*
X147594000Y-93010000D01*
X147614000Y-93010000D01*
X147614000Y-91660750D01*
X147455250Y-91502000D01*
X147188081Y-91500232D01*
X147164751Y-91382944D01*
X147117185Y-91268109D01*
X147048130Y-91164761D01*
X146960239Y-91076870D01*
X146856891Y-91007815D01*
X146742056Y-90960249D01*
X146620148Y-90936000D01*
X146495852Y-90936000D01*
X146427000Y-90949696D01*
X146427000Y-90869852D01*
X146402751Y-90747944D01*
X146355185Y-90633109D01*
X146286130Y-90529761D01*
X146198239Y-90441870D01*
X146094891Y-90372815D01*
X145980056Y-90325249D01*
X145858148Y-90301000D01*
X145733852Y-90301000D01*
X145611944Y-90325249D01*
X145536902Y-90356332D01*
X145513751Y-90239944D01*
X145466185Y-90125109D01*
X145397130Y-90021761D01*
X145309239Y-89933870D01*
X145205891Y-89864815D01*
X145091056Y-89817249D01*
X144969148Y-89793000D01*
X144844852Y-89793000D01*
X144722944Y-89817249D01*
X144608109Y-89864815D01*
X144504761Y-89933870D01*
X144416870Y-90021761D01*
X144347815Y-90125109D01*
X144300249Y-90239944D01*
X144276000Y-90361852D01*
X144276000Y-90486148D01*
X144300249Y-90608056D01*
X144347815Y-90722891D01*
X144399000Y-90799495D01*
X144399001Y-94099112D01*
X144396543Y-94124066D01*
X144403680Y-94196522D01*
X144406352Y-94223651D01*
X144434808Y-94317456D01*
X144435400Y-94319409D01*
X144482571Y-94407661D01*
X144527607Y-94462537D01*
X144546053Y-94485014D01*
X144565431Y-94500917D01*
X144657148Y-94592633D01*
X144657150Y-94592636D01*
X144738089Y-94673574D01*
X144775613Y-94711098D01*
X144775617Y-94711103D01*
X146393079Y-96328565D01*
X146408986Y-96347948D01*
X146486339Y-96411429D01*
X146574591Y-96458601D01*
X146633157Y-96476367D01*
X146633157Y-96580109D01*
X146571127Y-96629590D01*
X146490439Y-96725169D01*
X146429948Y-96834654D01*
X146391978Y-96953836D01*
X146381000Y-97055250D01*
X146539750Y-97214000D01*
X146956673Y-97214000D01*
X147016000Y-97219843D01*
X147988000Y-97219843D01*
X147988000Y-97260335D01*
X147848000Y-97376848D01*
X147848000Y-99034000D01*
X147594000Y-99034000D01*
X147594000Y-98083250D01*
X147714000Y-97963250D01*
X147714000Y-97360000D01*
X147573756Y-97360000D01*
X147407116Y-97221316D01*
X147256891Y-97250820D01*
X146971000Y-97248928D01*
X146846518Y-97261188D01*
X146726820Y-97297498D01*
X146616506Y-97356463D01*
X146612196Y-97360000D01*
X146539750Y-97360000D01*
X146381000Y-97518750D01*
X146391978Y-97620164D01*
X146392587Y-97622075D01*
X146381498Y-97642820D01*
X146345188Y-97762518D01*
X146332928Y-97887000D01*
X146336000Y-98601250D01*
X146407438Y-98672688D01*
X146377197Y-98716744D01*
X146381989Y-98755526D01*
X146471869Y-98971039D01*
X146500725Y-99014000D01*
X146494750Y-99014000D01*
X146336000Y-99172750D01*
X146332928Y-99887000D01*
X146345188Y-100011482D01*
X146381498Y-100131180D01*
X146419887Y-100203000D01*
X143725000Y-100203000D01*
X143725000Y-100202998D01*
X143560815Y-100202998D01*
X143681481Y-99973109D01*
X143584157Y-99698748D01*
X143435178Y-99448645D01*
X143240269Y-99232412D01*
X143006920Y-99058359D01*
X142744099Y-98933175D01*
X142596890Y-98888524D01*
X142367000Y-99009845D01*
X142367000Y-100203000D01*
X142113000Y-100203000D01*
X142113000Y-99009845D01*
X141883110Y-98888524D01*
X141735901Y-98933175D01*
X141473080Y-99058359D01*
X141239731Y-99232412D01*
X141044822Y-99448645D01*
X140895843Y-99698748D01*
X140838228Y-99861168D01*
X140790898Y-99746903D01*
X140656180Y-99545283D01*
X140484717Y-99373820D01*
X140283097Y-99239102D01*
X140059069Y-99146307D01*
X139821243Y-99099000D01*
X139578757Y-99099000D01*
X139340931Y-99146307D01*
X139116903Y-99239102D01*
X138915283Y-99373820D01*
X138743820Y-99545283D01*
X138609102Y-99746903D01*
X138516307Y-99970931D01*
X138470145Y-100203000D01*
X138392843Y-100203000D01*
X138392843Y-99480000D01*
X138385487Y-99405311D01*
X138363701Y-99333492D01*
X138328322Y-99267304D01*
X138280711Y-99209289D01*
X138222696Y-99161678D01*
X138156508Y-99126299D01*
X138084689Y-99104513D01*
X138010000Y-99097157D01*
X138007263Y-99097157D01*
X138249565Y-98854855D01*
X138268948Y-98838948D01*
X138332429Y-98761595D01*
X138379601Y-98673343D01*
X138408649Y-98577585D01*
X138416000Y-98502947D01*
X138416000Y-98502944D01*
X138418457Y-98478000D01*
X138416000Y-98453056D01*
X138416000Y-94448843D01*
X138658000Y-94448843D01*
X138732689Y-94441487D01*
X138804508Y-94419701D01*
X138870696Y-94384322D01*
X138928711Y-94336711D01*
X138976322Y-94278696D01*
X139011701Y-94212508D01*
X139033487Y-94140689D01*
X139040843Y-94066000D01*
X139040843Y-92075000D01*
X139075157Y-92075000D01*
X139075157Y-94066000D01*
X139082513Y-94140689D01*
X139104299Y-94212508D01*
X139139678Y-94278696D01*
X139187289Y-94336711D01*
X139245304Y-94384322D01*
X139311492Y-94419701D01*
X139383311Y-94441487D01*
X139458000Y-94448843D01*
X139702001Y-94448843D01*
X139702001Y-94744511D01*
X139648815Y-94824109D01*
X139601249Y-94938944D01*
X139577000Y-95060852D01*
X139577000Y-95185148D01*
X139601249Y-95307056D01*
X139648815Y-95421891D01*
X139717870Y-95525239D01*
X139805761Y-95613130D01*
X139909109Y-95682185D01*
X140023944Y-95729751D01*
X140145852Y-95754000D01*
X140270148Y-95754000D01*
X140392056Y-95729751D01*
X140506891Y-95682185D01*
X140610239Y-95613130D01*
X140698130Y-95525239D01*
X140767185Y-95421891D01*
X140814751Y-95307056D01*
X140839000Y-95185148D01*
X140839000Y-95060852D01*
X140814751Y-94938944D01*
X140767185Y-94824109D01*
X140714000Y-94744512D01*
X140714000Y-94448843D01*
X140958000Y-94448843D01*
X141032689Y-94441487D01*
X141104508Y-94419701D01*
X141170696Y-94384322D01*
X141196715Y-94362969D01*
X141227463Y-94420494D01*
X141306815Y-94517185D01*
X141403506Y-94596537D01*
X141513820Y-94655502D01*
X141633518Y-94691812D01*
X141758000Y-94704072D01*
X142222250Y-94701000D01*
X142381000Y-94542250D01*
X142381000Y-93193000D01*
X142635000Y-93193000D01*
X142635000Y-94542250D01*
X142793750Y-94701000D01*
X143258000Y-94704072D01*
X143382482Y-94691812D01*
X143502180Y-94655502D01*
X143612494Y-94596537D01*
X143709185Y-94517185D01*
X143788537Y-94420494D01*
X143847502Y-94310180D01*
X143883812Y-94190482D01*
X143896072Y-94066000D01*
X143893000Y-93351750D01*
X143734250Y-93193000D01*
X142635000Y-93193000D01*
X142381000Y-93193000D01*
X142361000Y-93193000D01*
X142361000Y-92939000D01*
X142381000Y-92939000D01*
X142381000Y-91589750D01*
X142635000Y-91589750D01*
X142635000Y-92939000D01*
X143734250Y-92939000D01*
X143893000Y-92780250D01*
X143896072Y-92066000D01*
X143883812Y-91941518D01*
X143847502Y-91821820D01*
X143788537Y-91711506D01*
X143709185Y-91614815D01*
X143612494Y-91535463D01*
X143502180Y-91476498D01*
X143382482Y-91440188D01*
X143258000Y-91427928D01*
X142793750Y-91431000D01*
X142635000Y-91589750D01*
X142381000Y-91589750D01*
X142222250Y-91431000D01*
X141758000Y-91427928D01*
X141633518Y-91440188D01*
X141513820Y-91476498D01*
X141403506Y-91535463D01*
X141347000Y-91581836D01*
X141347000Y-91504852D01*
X141322751Y-91382944D01*
X141275185Y-91268109D01*
X141206130Y-91164761D01*
X141118239Y-91076870D01*
X141014891Y-91007815D01*
X140900056Y-90960249D01*
X140778148Y-90936000D01*
X140653852Y-90936000D01*
X140531944Y-90960249D01*
X140417109Y-91007815D01*
X140340505Y-91059000D01*
X138509053Y-91059000D01*
X138488746Y-91061000D01*
X138181845Y-91061000D01*
X138156999Y-91058553D01*
X138132153Y-91061000D01*
X138132146Y-91061000D01*
X138067694Y-91067348D01*
X138057806Y-91068322D01*
X137968544Y-91095399D01*
X137962425Y-91097255D01*
X137874521Y-91144241D01*
X137797473Y-91207473D01*
X137781624Y-91226785D01*
X137567781Y-91440628D01*
X137548474Y-91456473D01*
X137485242Y-91533521D01*
X137460127Y-91580508D01*
X137438255Y-91621426D01*
X137419530Y-91683157D01*
X137158000Y-91683157D01*
X137083311Y-91690513D01*
X137011492Y-91712299D01*
X136945304Y-91747678D01*
X136887289Y-91795289D01*
X136839678Y-91853304D01*
X136804299Y-91919492D01*
X136782513Y-91991311D01*
X136775157Y-92066000D01*
X136775157Y-92456000D01*
X135336131Y-92456000D01*
X135329683Y-92390538D01*
X135293671Y-92271821D01*
X135235190Y-92162411D01*
X135156488Y-92066512D01*
X135060589Y-91987810D01*
X134951179Y-91929329D01*
X134832462Y-91893317D01*
X134709001Y-91881157D01*
X134309212Y-91881157D01*
X134348130Y-91842239D01*
X134417185Y-91738891D01*
X134464751Y-91624056D01*
X134489000Y-91502148D01*
X134489000Y-91377852D01*
X134464751Y-91255944D01*
X134417185Y-91141109D01*
X134366000Y-91064505D01*
X134366000Y-88367053D01*
X134364000Y-88346746D01*
X134364000Y-87901591D01*
X134991592Y-87274000D01*
X137925157Y-87274000D01*
X137925157Y-87766000D01*
X137932513Y-87840689D01*
X137954299Y-87912508D01*
X137989678Y-87978696D01*
X138037289Y-88036711D01*
X138095304Y-88084322D01*
X138161492Y-88119701D01*
X138233311Y-88141487D01*
X138308000Y-88148843D01*
X142108000Y-88148843D01*
X142182689Y-88141487D01*
X142254508Y-88119701D01*
X142320696Y-88084322D01*
X142378711Y-88036711D01*
X142426322Y-87978696D01*
X142461701Y-87912508D01*
X142483487Y-87840689D01*
X142490843Y-87766000D01*
X142490843Y-87272000D01*
X143163631Y-87272000D01*
X143178761Y-87287130D01*
X143282109Y-87356185D01*
X143396944Y-87403751D01*
X143518852Y-87428000D01*
X143643148Y-87428000D01*
X143765056Y-87403751D01*
X143879891Y-87356185D01*
X143959488Y-87303000D01*
X145591157Y-87303000D01*
X145591157Y-87572001D01*
X145603317Y-87695462D01*
X145639329Y-87814179D01*
X145697810Y-87923589D01*
X145776512Y-88019488D01*
X145872411Y-88098190D01*
X145981821Y-88156671D01*
X146043000Y-88175229D01*
X146043000Y-88227771D01*
X145981821Y-88246329D01*
X145872411Y-88304810D01*
X145776512Y-88383512D01*
X145697810Y-88479411D01*
X145639329Y-88588821D01*
X145603317Y-88707538D01*
X145591157Y-88830999D01*
X145591157Y-89731001D01*
X145603317Y-89854462D01*
X145639329Y-89973179D01*
X145697810Y-90082589D01*
X145776512Y-90178488D01*
X145872411Y-90257190D01*
X145981821Y-90315671D01*
X146100538Y-90351683D01*
X146223999Y-90363843D01*
X146874001Y-90363843D01*
X146997462Y-90351683D01*
X147116179Y-90315671D01*
X147225589Y-90257190D01*
X147321488Y-90178488D01*
X147396389Y-90087220D01*
X147398188Y-90105482D01*
X147434498Y-90225180D01*
X147493463Y-90335494D01*
X147572815Y-90432185D01*
X147669506Y-90511537D01*
X147779820Y-90570502D01*
X147899518Y-90606812D01*
X148024000Y-90619072D01*
X148313250Y-90616000D01*
X148472000Y-90457250D01*
X148472000Y-89408000D01*
X148726000Y-89408000D01*
X148726000Y-90457250D01*
X148884750Y-90616000D01*
X149174000Y-90619072D01*
X149298482Y-90606812D01*
X149418180Y-90570502D01*
X149528494Y-90511537D01*
X149625185Y-90432185D01*
X149704537Y-90335494D01*
X149763502Y-90225180D01*
X149799812Y-90105482D01*
X149812072Y-89981000D01*
X149809000Y-89566750D01*
X149650250Y-89408000D01*
X148726000Y-89408000D01*
X148472000Y-89408000D01*
X148452000Y-89408000D01*
X148452000Y-89154000D01*
X148472000Y-89154000D01*
X148472000Y-87249000D01*
X148726000Y-87249000D01*
X148726000Y-89154000D01*
X149650250Y-89154000D01*
X149809000Y-88995250D01*
X149812072Y-88581000D01*
X149799812Y-88456518D01*
X149763502Y-88336820D01*
X149704537Y-88226506D01*
X149684015Y-88201500D01*
X149704537Y-88176494D01*
X149763502Y-88066180D01*
X149799812Y-87946482D01*
X149812072Y-87822000D01*
X149809000Y-87407750D01*
X149650250Y-87249000D01*
X148726000Y-87249000D01*
X148472000Y-87249000D01*
X148452000Y-87249000D01*
X148452000Y-86995000D01*
X148472000Y-86995000D01*
X148472000Y-86148250D01*
X148481000Y-86139250D01*
X148481000Y-85090000D01*
X148461000Y-85090000D01*
X148461000Y-84836000D01*
X148481000Y-84836000D01*
X148481000Y-83786750D01*
X148735000Y-83786750D01*
X148735000Y-84836000D01*
X149659250Y-84836000D01*
X149818000Y-84677250D01*
X149821072Y-84263000D01*
X149808812Y-84138518D01*
X149772502Y-84018820D01*
X149713537Y-83908506D01*
X149634185Y-83811815D01*
X149537494Y-83732463D01*
X149427180Y-83673498D01*
X149307482Y-83637188D01*
X149183000Y-83624928D01*
X148893750Y-83628000D01*
X148735000Y-83786750D01*
X148481000Y-83786750D01*
X148322250Y-83628000D01*
X148033000Y-83624928D01*
X147908518Y-83637188D01*
X147788820Y-83673498D01*
X147678506Y-83732463D01*
X147581815Y-83811815D01*
X147502463Y-83908506D01*
X147443498Y-84018820D01*
X147407188Y-84138518D01*
X147405389Y-84156780D01*
X147330488Y-84065512D01*
X147234589Y-83986810D01*
X147125179Y-83928329D01*
X147006462Y-83892317D01*
X146883001Y-83880157D01*
X146232999Y-83880157D01*
X146109538Y-83892317D01*
X145990821Y-83928329D01*
X145881411Y-83986810D01*
X145785512Y-84065512D01*
X145706810Y-84161411D01*
X145667000Y-84235890D01*
X145667000Y-83892328D01*
X145734462Y-83885683D01*
X145853179Y-83849671D01*
X145962589Y-83791190D01*
X146058488Y-83712488D01*
X146137190Y-83616589D01*
X146195671Y-83507179D01*
X146231683Y-83388462D01*
X146243843Y-83265001D01*
X146243843Y-82614999D01*
X146231683Y-82491538D01*
X146195671Y-82372821D01*
X146137190Y-82263411D01*
X146058488Y-82167512D01*
X145967220Y-82092611D01*
X145985482Y-82090812D01*
X146105180Y-82054502D01*
X146215494Y-81995537D01*
X146312185Y-81916185D01*
X146391537Y-81819494D01*
X146450502Y-81709180D01*
X146486812Y-81589482D01*
X146499072Y-81465000D01*
X146496000Y-81175750D01*
X146337250Y-81017000D01*
X145288000Y-81017000D01*
X145288000Y-81037000D01*
X145034000Y-81037000D01*
X145034000Y-81017000D01*
X144187250Y-81017000D01*
X144178250Y-81008000D01*
X143129000Y-81008000D01*
X143129000Y-81028000D01*
X142875000Y-81028000D01*
X142875000Y-81008000D01*
X141825750Y-81008000D01*
X141667000Y-81166750D01*
X141663928Y-81456000D01*
X141676188Y-81580482D01*
X141712498Y-81700180D01*
X141771463Y-81810494D01*
X141850815Y-81907185D01*
X141947506Y-81986537D01*
X142057820Y-82045502D01*
X142177518Y-82081812D01*
X142195780Y-82083611D01*
X142104512Y-82158512D01*
X142025810Y-82254411D01*
X141967329Y-82363821D01*
X141931317Y-82482538D01*
X141919157Y-82605999D01*
X141919157Y-83256001D01*
X141931317Y-83379462D01*
X141967329Y-83498179D01*
X142025810Y-83607589D01*
X142103909Y-83702753D01*
X142091761Y-83710870D01*
X142003870Y-83798761D01*
X141934815Y-83902109D01*
X141887249Y-84016944D01*
X141863000Y-84138852D01*
X141863000Y-84263148D01*
X141887249Y-84385056D01*
X141934815Y-84499891D01*
X142003870Y-84603239D01*
X142091761Y-84691130D01*
X142195109Y-84760185D01*
X142309944Y-84807751D01*
X142431852Y-84832000D01*
X142556148Y-84832000D01*
X142678056Y-84807751D01*
X142792891Y-84760185D01*
X142872488Y-84707000D01*
X143852512Y-84707000D01*
X143932109Y-84760185D01*
X144046944Y-84807751D01*
X144168852Y-84832000D01*
X144293148Y-84832000D01*
X144415056Y-84807751D01*
X144529891Y-84760185D01*
X144633239Y-84691130D01*
X144655001Y-84669368D01*
X144655001Y-84838511D01*
X144601815Y-84918109D01*
X144554249Y-85032944D01*
X144535573Y-85126835D01*
X143490836Y-86171573D01*
X143396944Y-86190249D01*
X143282109Y-86237815D01*
X143248907Y-86260000D01*
X142490843Y-86260000D01*
X142490843Y-85766000D01*
X142483487Y-85691311D01*
X142461701Y-85619492D01*
X142426322Y-85553304D01*
X142378711Y-85495289D01*
X142320696Y-85447678D01*
X142254508Y-85412299D01*
X142182689Y-85390513D01*
X142108000Y-85383157D01*
X140696471Y-85383157D01*
X140677745Y-85321425D01*
X140674948Y-85316192D01*
X140630759Y-85233521D01*
X140567527Y-85156473D01*
X140548215Y-85140624D01*
X140284376Y-84876785D01*
X140268527Y-84857473D01*
X140191479Y-84794241D01*
X140103575Y-84747255D01*
X140008193Y-84718322D01*
X139933854Y-84711000D01*
X139933846Y-84711000D01*
X139909000Y-84708553D01*
X139884154Y-84711000D01*
X136435229Y-84711000D01*
X136416671Y-84649821D01*
X136358190Y-84540411D01*
X136279488Y-84444512D01*
X136188220Y-84369611D01*
X136206482Y-84367812D01*
X136326180Y-84331502D01*
X136436494Y-84272537D01*
X136533185Y-84193185D01*
X136612537Y-84096494D01*
X136671502Y-83986180D01*
X136707812Y-83866482D01*
X136720072Y-83742000D01*
X136717000Y-83452750D01*
X136558250Y-83294000D01*
X135509000Y-83294000D01*
X135509000Y-83314000D01*
X135255000Y-83314000D01*
X135255000Y-83294000D01*
X133223000Y-83294000D01*
X133223000Y-83314000D01*
X132969000Y-83314000D01*
X132969000Y-83294000D01*
X131919750Y-83294000D01*
X131761000Y-83452750D01*
X131757928Y-83742000D01*
X131770188Y-83866482D01*
X131806498Y-83986180D01*
X131865463Y-84096494D01*
X131944815Y-84193185D01*
X132041506Y-84272537D01*
X132151820Y-84331502D01*
X132271518Y-84367812D01*
X132289780Y-84369611D01*
X132198512Y-84444512D01*
X132119810Y-84540411D01*
X132061329Y-84649821D01*
X132025317Y-84768538D01*
X132013157Y-84891999D01*
X132013157Y-85542001D01*
X132025317Y-85665462D01*
X132061329Y-85784179D01*
X132119810Y-85893589D01*
X132198512Y-85989488D01*
X132294411Y-86068190D01*
X132403821Y-86126671D01*
X132522538Y-86162683D01*
X132645999Y-86174843D01*
X133546001Y-86174843D01*
X133669462Y-86162683D01*
X133788179Y-86126671D01*
X133897589Y-86068190D01*
X133993488Y-85989488D01*
X134072190Y-85893589D01*
X134130671Y-85784179D01*
X134149229Y-85723000D01*
X134328771Y-85723000D01*
X134347329Y-85784179D01*
X134405810Y-85893589D01*
X134484512Y-85989488D01*
X134580411Y-86068190D01*
X134689821Y-86126671D01*
X134808538Y-86162683D01*
X134931999Y-86174843D01*
X135832001Y-86174843D01*
X135955462Y-86162683D01*
X136074179Y-86126671D01*
X136183589Y-86068190D01*
X136279488Y-85989488D01*
X136358190Y-85893589D01*
X136416671Y-85784179D01*
X136435229Y-85723000D01*
X137929392Y-85723000D01*
X137925157Y-85766000D01*
X137925157Y-86258000D01*
X134788548Y-86258000D01*
X134784000Y-86257552D01*
X134779452Y-86258000D01*
X134759053Y-86258000D01*
X134684415Y-86265351D01*
X134588657Y-86294399D01*
X134500405Y-86341571D01*
X134423052Y-86405052D01*
X134394203Y-86440205D01*
X133517780Y-87316629D01*
X133498474Y-87332473D01*
X133435242Y-87409521D01*
X133425365Y-87428000D01*
X133388255Y-87497426D01*
X133359322Y-87592808D01*
X133349553Y-87692000D01*
X133352001Y-87716856D01*
X133352000Y-88346755D01*
X133350001Y-88367053D01*
X133350000Y-91064505D01*
X133298815Y-91141109D01*
X133251249Y-91255944D01*
X133227000Y-91377852D01*
X133227000Y-91502148D01*
X133251249Y-91624056D01*
X133298815Y-91738891D01*
X133333669Y-91791054D01*
X133263494Y-91733463D01*
X133153180Y-91674498D01*
X133033482Y-91638188D01*
X132909000Y-91625928D01*
X132812551Y-91626952D01*
X132813751Y-91624056D01*
X132838000Y-91502148D01*
X132838000Y-91377852D01*
X132813751Y-91255944D01*
X132766185Y-91141109D01*
X132713000Y-91061512D01*
X132713000Y-88643488D01*
X132766185Y-88563891D01*
X132813751Y-88449056D01*
X132838000Y-88327148D01*
X132838000Y-88202852D01*
X132813751Y-88080944D01*
X132766185Y-87966109D01*
X132697130Y-87862761D01*
X132609239Y-87774870D01*
X132505891Y-87705815D01*
X132391056Y-87658249D01*
X132269148Y-87634000D01*
X132144852Y-87634000D01*
X132022944Y-87658249D01*
X131908109Y-87705815D01*
X131804761Y-87774870D01*
X131716870Y-87862761D01*
X131647815Y-87966109D01*
X131600249Y-88080944D01*
X131576000Y-88202852D01*
X131576000Y-88327148D01*
X131600249Y-88449056D01*
X131647815Y-88563891D01*
X131701001Y-88643489D01*
X131701000Y-91061512D01*
X131647815Y-91141109D01*
X131600249Y-91255944D01*
X131576000Y-91377852D01*
X131576000Y-91502148D01*
X131600249Y-91624056D01*
X131609274Y-91645846D01*
X131514820Y-91674498D01*
X131404506Y-91733463D01*
X131307815Y-91812815D01*
X131228463Y-91909506D01*
X131169498Y-92019820D01*
X131133188Y-92139518D01*
X131120928Y-92264000D01*
X131124000Y-92678250D01*
X131282750Y-92837000D01*
X132207000Y-92837000D01*
X132207000Y-92817000D01*
X132461000Y-92817000D01*
X132461000Y-92837000D01*
X132481000Y-92837000D01*
X132481000Y-93091000D01*
X132461000Y-93091000D01*
X132461000Y-94140250D01*
X132554750Y-94234000D01*
X132461000Y-94327750D01*
X132461000Y-95377000D01*
X132481000Y-95377000D01*
X132481000Y-95631000D01*
X132461000Y-95631000D01*
X132461000Y-96680250D01*
X132619750Y-96839000D01*
X132909000Y-96842072D01*
X133033482Y-96829812D01*
X133153180Y-96793502D01*
X133263494Y-96734537D01*
X133360185Y-96655185D01*
X133439537Y-96558494D01*
X133498502Y-96448180D01*
X133534812Y-96328482D01*
X133536611Y-96310220D01*
X133611512Y-96401488D01*
X133707411Y-96480190D01*
X133816821Y-96538671D01*
X133935538Y-96574683D01*
X134058999Y-96586843D01*
X134709001Y-96586843D01*
X134832462Y-96574683D01*
X134951179Y-96538671D01*
X135060589Y-96480190D01*
X135156488Y-96401488D01*
X135235190Y-96305589D01*
X135293671Y-96196179D01*
X135329683Y-96077462D01*
X135341843Y-95954001D01*
X135341843Y-95053999D01*
X135329683Y-94930538D01*
X135293671Y-94811821D01*
X135235190Y-94702411D01*
X135156488Y-94606512D01*
X135060589Y-94527810D01*
X134951179Y-94469329D01*
X134892000Y-94451377D01*
X134892000Y-94016623D01*
X134951179Y-93998671D01*
X135060589Y-93940190D01*
X135156488Y-93861488D01*
X135235190Y-93765589D01*
X135293671Y-93656179D01*
X135329683Y-93537462D01*
X135336131Y-93472000D01*
X136775157Y-93472000D01*
X136775157Y-94066000D01*
X136782513Y-94140689D01*
X136804299Y-94212508D01*
X136839678Y-94278696D01*
X136887289Y-94336711D01*
X136945304Y-94384322D01*
X137011492Y-94419701D01*
X137083311Y-94441487D01*
X137158000Y-94448843D01*
X137400001Y-94448843D01*
X137400000Y-98267580D01*
X136818430Y-98849150D01*
X136799053Y-98865052D01*
X136783151Y-98884429D01*
X136783150Y-98884430D01*
X136735571Y-98942405D01*
X136699524Y-99009845D01*
X136688400Y-99030657D01*
X136668227Y-99097157D01*
X136310000Y-99097157D01*
X136235311Y-99104513D01*
X136163492Y-99126299D01*
X136097304Y-99161678D01*
X136039289Y-99209289D01*
X135991678Y-99267304D01*
X135956299Y-99333492D01*
X135934513Y-99405311D01*
X135927157Y-99480000D01*
X135927157Y-100203000D01*
X129363551Y-100203000D01*
X129390711Y-100180711D01*
X129438322Y-100122696D01*
X129473701Y-100056508D01*
X129495487Y-99984689D01*
X129502843Y-99910000D01*
X129502843Y-98210000D01*
X129495487Y-98135311D01*
X129473701Y-98063492D01*
X129438322Y-97997304D01*
X129390711Y-97939289D01*
X129332696Y-97891678D01*
X129266508Y-97856299D01*
X129194689Y-97834513D01*
X129120000Y-97827157D01*
X128963367Y-97827157D01*
X129151355Y-97715178D01*
X129367588Y-97520269D01*
X129541641Y-97286920D01*
X129666825Y-97024099D01*
X129711476Y-96876890D01*
X129590155Y-96647000D01*
X128397000Y-96647000D01*
X128397000Y-96393000D01*
X129590155Y-96393000D01*
X129689896Y-96204000D01*
X131120928Y-96204000D01*
X131133188Y-96328482D01*
X131169498Y-96448180D01*
X131228463Y-96558494D01*
X131307815Y-96655185D01*
X131404506Y-96734537D01*
X131514820Y-96793502D01*
X131634518Y-96829812D01*
X131759000Y-96842072D01*
X132048250Y-96839000D01*
X132207000Y-96680250D01*
X132207000Y-95631000D01*
X131282750Y-95631000D01*
X131124000Y-95789750D01*
X131120928Y-96204000D01*
X129689896Y-96204000D01*
X129711476Y-96163110D01*
X129666825Y-96015901D01*
X129541641Y-95753080D01*
X129367588Y-95519731D01*
X129151355Y-95324822D01*
X128901252Y-95175843D01*
X128738832Y-95118228D01*
X128853097Y-95070898D01*
X129054717Y-94936180D01*
X129226180Y-94764717D01*
X129360898Y-94563097D01*
X129453693Y-94339069D01*
X129501000Y-94101243D01*
X129501000Y-93858757D01*
X129462261Y-93664000D01*
X131120928Y-93664000D01*
X131133188Y-93788482D01*
X131169498Y-93908180D01*
X131228463Y-94018494D01*
X131307815Y-94115185D01*
X131404506Y-94194537D01*
X131478335Y-94234000D01*
X131404506Y-94273463D01*
X131307815Y-94352815D01*
X131228463Y-94449506D01*
X131169498Y-94559820D01*
X131133188Y-94679518D01*
X131120928Y-94804000D01*
X131124000Y-95218250D01*
X131282750Y-95377000D01*
X132207000Y-95377000D01*
X132207000Y-94327750D01*
X132113250Y-94234000D01*
X132207000Y-94140250D01*
X132207000Y-93091000D01*
X131282750Y-93091000D01*
X131124000Y-93249750D01*
X131120928Y-93664000D01*
X129462261Y-93664000D01*
X129453693Y-93620931D01*
X129360898Y-93396903D01*
X129226180Y-93195283D01*
X129054717Y-93023820D01*
X128853097Y-92889102D01*
X128629069Y-92796307D01*
X128397000Y-92750145D01*
X128397000Y-92669855D01*
X128629069Y-92623693D01*
X128853097Y-92530898D01*
X129054717Y-92396180D01*
X129226180Y-92224717D01*
X129360898Y-92023097D01*
X129453693Y-91799069D01*
X129501000Y-91561243D01*
X129501000Y-91318757D01*
X129453693Y-91080931D01*
X129360898Y-90856903D01*
X129226180Y-90655283D01*
X129054717Y-90483820D01*
X128853097Y-90349102D01*
X128629069Y-90256307D01*
X128397000Y-90210145D01*
X128397000Y-90129855D01*
X128629069Y-90083693D01*
X128853097Y-89990898D01*
X129054717Y-89856180D01*
X129226180Y-89684717D01*
X129360898Y-89483097D01*
X129453693Y-89259069D01*
X129501000Y-89021243D01*
X129501000Y-88778757D01*
X129453693Y-88540931D01*
X129360898Y-88316903D01*
X129226180Y-88115283D01*
X129054717Y-87943820D01*
X128853097Y-87809102D01*
X128629069Y-87716307D01*
X128397000Y-87670145D01*
X128397000Y-87589855D01*
X128629069Y-87543693D01*
X128853097Y-87450898D01*
X129054717Y-87316180D01*
X129226180Y-87144717D01*
X129360898Y-86943097D01*
X129453693Y-86719069D01*
X129501000Y-86481243D01*
X129501000Y-86238757D01*
X129453693Y-86000931D01*
X129360898Y-85776903D01*
X129226180Y-85575283D01*
X129054717Y-85403820D01*
X128853097Y-85269102D01*
X128629069Y-85176307D01*
X128397000Y-85130145D01*
X128397000Y-85049855D01*
X128629069Y-85003693D01*
X128853097Y-84910898D01*
X129054717Y-84776180D01*
X129226180Y-84604717D01*
X129360898Y-84403097D01*
X129453693Y-84179069D01*
X129501000Y-83941243D01*
X129501000Y-83698757D01*
X129453693Y-83460931D01*
X129360898Y-83236903D01*
X129226180Y-83035283D01*
X129054717Y-82863820D01*
X128853097Y-82729102D01*
X128629069Y-82636307D01*
X128406326Y-82592000D01*
X131757928Y-82592000D01*
X131761000Y-82881250D01*
X131919750Y-83040000D01*
X132969000Y-83040000D01*
X132969000Y-82115750D01*
X133223000Y-82115750D01*
X133223000Y-83040000D01*
X135255000Y-83040000D01*
X135255000Y-82115750D01*
X135509000Y-82115750D01*
X135509000Y-83040000D01*
X136558250Y-83040000D01*
X136717000Y-82881250D01*
X136720072Y-82592000D01*
X136707812Y-82467518D01*
X136671502Y-82347820D01*
X136612537Y-82237506D01*
X136533185Y-82140815D01*
X136436494Y-82061463D01*
X136326180Y-82002498D01*
X136206482Y-81966188D01*
X136082000Y-81953928D01*
X135667750Y-81957000D01*
X135509000Y-82115750D01*
X135255000Y-82115750D01*
X135096250Y-81957000D01*
X134682000Y-81953928D01*
X134557518Y-81966188D01*
X134437820Y-82002498D01*
X134327506Y-82061463D01*
X134239000Y-82134098D01*
X134150494Y-82061463D01*
X134040180Y-82002498D01*
X133920482Y-81966188D01*
X133796000Y-81953928D01*
X133381750Y-81957000D01*
X133223000Y-82115750D01*
X132969000Y-82115750D01*
X132810250Y-81957000D01*
X132396000Y-81953928D01*
X132271518Y-81966188D01*
X132151820Y-82002498D01*
X132041506Y-82061463D01*
X131944815Y-82140815D01*
X131865463Y-82237506D01*
X131806498Y-82347820D01*
X131770188Y-82467518D01*
X131757928Y-82592000D01*
X128406326Y-82592000D01*
X128397000Y-82590145D01*
X128397000Y-82509855D01*
X128629069Y-82463693D01*
X128853097Y-82370898D01*
X129054717Y-82236180D01*
X129226180Y-82064717D01*
X129360898Y-81863097D01*
X129453693Y-81639069D01*
X129501000Y-81401243D01*
X129501000Y-81158757D01*
X129453693Y-80920931D01*
X129360898Y-80696903D01*
X129226180Y-80495283D01*
X129054717Y-80323820D01*
X128853097Y-80189102D01*
X128629069Y-80096307D01*
X128397000Y-80050145D01*
X128397000Y-79969855D01*
X128629069Y-79923693D01*
X128853097Y-79830898D01*
X129054717Y-79696180D01*
X129226180Y-79524717D01*
X129360898Y-79323097D01*
X129453693Y-79099069D01*
X129501000Y-78861243D01*
X129501000Y-78618757D01*
X129453693Y-78380931D01*
X129360898Y-78156903D01*
X129226180Y-77955283D01*
X129054717Y-77783820D01*
X128853097Y-77649102D01*
X128727311Y-77597000D01*
X135927157Y-77597000D01*
X135927157Y-78320000D01*
G37*
X135927157Y-78320000D02*
X135934513Y-78394689D01*
X135956299Y-78466508D01*
X135991678Y-78532696D01*
X136039289Y-78590711D01*
X136097304Y-78638322D01*
X136163492Y-78673701D01*
X136235311Y-78695487D01*
X136310000Y-78702843D01*
X138010000Y-78702843D01*
X138084689Y-78695487D01*
X138156508Y-78673701D01*
X138222696Y-78638322D01*
X138280711Y-78590711D01*
X138328322Y-78532696D01*
X138363701Y-78466508D01*
X138385487Y-78394689D01*
X138392843Y-78320000D01*
X138392843Y-77597000D01*
X138470145Y-77597000D01*
X138516307Y-77829069D01*
X138609102Y-78053097D01*
X138743820Y-78254717D01*
X138915283Y-78426180D01*
X139116903Y-78560898D01*
X139192001Y-78592004D01*
X139192000Y-80015505D01*
X139140815Y-80092109D01*
X139093249Y-80206944D01*
X139069000Y-80328852D01*
X139069000Y-80453148D01*
X139093249Y-80575056D01*
X139140815Y-80689891D01*
X139209870Y-80793239D01*
X139297761Y-80881130D01*
X139401109Y-80950185D01*
X139515944Y-80997751D01*
X139637852Y-81022000D01*
X139762148Y-81022000D01*
X139884056Y-80997751D01*
X139998891Y-80950185D01*
X140102239Y-80881130D01*
X140190130Y-80793239D01*
X140259185Y-80689891D01*
X140306751Y-80575056D01*
X140331000Y-80453148D01*
X140331000Y-80328852D01*
X140326455Y-80306000D01*
X141663928Y-80306000D01*
X141667000Y-80595250D01*
X141825750Y-80754000D01*
X142875000Y-80754000D01*
X142875000Y-79829750D01*
X143129000Y-79829750D01*
X143129000Y-80754000D01*
X143975750Y-80754000D01*
X143984750Y-80763000D01*
X145034000Y-80763000D01*
X145034000Y-79838750D01*
X145288000Y-79838750D01*
X145288000Y-80763000D01*
X146337250Y-80763000D01*
X146496000Y-80604250D01*
X146499072Y-80315000D01*
X146486812Y-80190518D01*
X146450502Y-80070820D01*
X146391537Y-79960506D01*
X146312185Y-79863815D01*
X146215494Y-79784463D01*
X146105180Y-79725498D01*
X145985482Y-79689188D01*
X145861000Y-79676928D01*
X145446750Y-79680000D01*
X145288000Y-79838750D01*
X145034000Y-79838750D01*
X144875250Y-79680000D01*
X144461000Y-79676928D01*
X144336518Y-79689188D01*
X144216820Y-79725498D01*
X144106506Y-79784463D01*
X144086983Y-79800485D01*
X144056494Y-79775463D01*
X143946180Y-79716498D01*
X143826482Y-79680188D01*
X143702000Y-79667928D01*
X143287750Y-79671000D01*
X143129000Y-79829750D01*
X142875000Y-79829750D01*
X142716250Y-79671000D01*
X142302000Y-79667928D01*
X142177518Y-79680188D01*
X142057820Y-79716498D01*
X141947506Y-79775463D01*
X141850815Y-79854815D01*
X141771463Y-79951506D01*
X141712498Y-80061820D01*
X141676188Y-80181518D01*
X141663928Y-80306000D01*
X140326455Y-80306000D01*
X140306751Y-80206944D01*
X140259185Y-80092109D01*
X140208000Y-80015505D01*
X140208000Y-78592004D01*
X140283097Y-78560898D01*
X140484717Y-78426180D01*
X140656180Y-78254717D01*
X140790898Y-78053097D01*
X140883693Y-77829069D01*
X140929855Y-77597000D01*
X141010145Y-77597000D01*
X141056307Y-77829069D01*
X141149102Y-78053097D01*
X141283820Y-78254717D01*
X141455283Y-78426180D01*
X141656903Y-78560898D01*
X141880931Y-78653693D01*
X142118757Y-78701000D01*
X142361243Y-78701000D01*
X142599069Y-78653693D01*
X142823097Y-78560898D01*
X143024717Y-78426180D01*
X143196180Y-78254717D01*
X143330898Y-78053097D01*
X143423693Y-77829069D01*
X143469855Y-77597000D01*
X151003000Y-77597000D01*
X151003000Y-80050145D01*
X150770931Y-80096307D01*
X150546903Y-80189102D01*
X150345283Y-80323820D01*
X150173820Y-80495283D01*
X150039102Y-80696903D01*
X149946307Y-80920931D01*
X149899000Y-81158757D01*
X149899000Y-81401243D01*
X149946307Y-81639069D01*
X150039102Y-81863097D01*
X150173820Y-82064717D01*
X150345283Y-82236180D01*
X150546903Y-82370898D01*
X150770931Y-82463693D01*
X151003000Y-82509855D01*
X151003000Y-82590145D01*
X150770931Y-82636307D01*
X150546903Y-82729102D01*
X150345283Y-82863820D01*
X150173820Y-83035283D01*
X150039102Y-83236903D01*
X149946307Y-83460931D01*
X149899000Y-83698757D01*
X149899000Y-83941243D01*
X149946307Y-84179069D01*
X150039102Y-84403097D01*
X150173820Y-84604717D01*
X150345283Y-84776180D01*
X150546903Y-84910898D01*
X150661168Y-84958228D01*
X150498748Y-85015843D01*
X150248645Y-85164822D01*
X150032412Y-85359731D01*
X149858359Y-85593080D01*
X149820034Y-85673543D01*
X149821072Y-85663000D01*
X149818000Y-85248750D01*
X149659250Y-85090000D01*
X148735000Y-85090000D01*
X148735000Y-85936750D01*
X148726000Y-85945750D01*
X148726000Y-86995000D01*
X149650250Y-86995000D01*
X149748654Y-86896596D01*
X149858359Y-87126920D01*
X150032412Y-87360269D01*
X150248645Y-87555178D01*
X150436633Y-87667157D01*
X150280000Y-87667157D01*
X150205311Y-87674513D01*
X150133492Y-87696299D01*
X150067304Y-87731678D01*
X150009289Y-87779289D01*
X149961678Y-87837304D01*
X149926299Y-87903492D01*
X149904513Y-87975311D01*
X149897157Y-88050000D01*
X149897157Y-89750000D01*
X149904513Y-89824689D01*
X149926299Y-89896508D01*
X149961678Y-89962696D01*
X150009289Y-90020711D01*
X150067304Y-90068322D01*
X150133492Y-90103701D01*
X150205311Y-90125487D01*
X150280000Y-90132843D01*
X151003000Y-90132843D01*
X151003000Y-91982737D01*
X150915482Y-91956188D01*
X150848002Y-91949542D01*
X150848002Y-91947000D01*
X150822192Y-91947000D01*
X150791000Y-91943928D01*
X150076750Y-91947000D01*
X150017432Y-92006318D01*
X150016812Y-92000018D01*
X149980502Y-91880320D01*
X149921537Y-91770006D01*
X149842185Y-91673315D01*
X149745494Y-91593963D01*
X149635180Y-91534998D01*
X149515482Y-91498688D01*
X149391000Y-91486428D01*
X149326750Y-91489500D01*
X149168000Y-91648250D01*
X149168000Y-91945549D01*
X149096404Y-91945242D01*
X149080502Y-91892820D01*
X149021537Y-91782506D01*
X148942185Y-91685815D01*
X148914000Y-91662684D01*
X148914000Y-91648250D01*
X148755250Y-91489500D01*
X148691000Y-91486428D01*
X148566518Y-91498688D01*
X148547412Y-91504484D01*
X148491000Y-91498928D01*
X148026750Y-91502000D01*
X147868000Y-91660750D01*
X147868000Y-92520203D01*
X147848000Y-92536848D01*
X147848000Y-93284000D01*
X147614000Y-93284000D01*
X147614000Y-93264000D01*
X147594000Y-93264000D01*
X147594000Y-93010000D01*
X147614000Y-93010000D01*
X147614000Y-91660750D01*
X147455250Y-91502000D01*
X147188081Y-91500232D01*
X147164751Y-91382944D01*
X147117185Y-91268109D01*
X147048130Y-91164761D01*
X146960239Y-91076870D01*
X146856891Y-91007815D01*
X146742056Y-90960249D01*
X146620148Y-90936000D01*
X146495852Y-90936000D01*
X146427000Y-90949696D01*
X146427000Y-90869852D01*
X146402751Y-90747944D01*
X146355185Y-90633109D01*
X146286130Y-90529761D01*
X146198239Y-90441870D01*
X146094891Y-90372815D01*
X145980056Y-90325249D01*
X145858148Y-90301000D01*
X145733852Y-90301000D01*
X145611944Y-90325249D01*
X145536902Y-90356332D01*
X145513751Y-90239944D01*
X145466185Y-90125109D01*
X145397130Y-90021761D01*
X145309239Y-89933870D01*
X145205891Y-89864815D01*
X145091056Y-89817249D01*
X144969148Y-89793000D01*
X144844852Y-89793000D01*
X144722944Y-89817249D01*
X144608109Y-89864815D01*
X144504761Y-89933870D01*
X144416870Y-90021761D01*
X144347815Y-90125109D01*
X144300249Y-90239944D01*
X144276000Y-90361852D01*
X144276000Y-90486148D01*
X144300249Y-90608056D01*
X144347815Y-90722891D01*
X144399000Y-90799495D01*
X144399001Y-94099112D01*
X144396543Y-94124066D01*
X144403680Y-94196522D01*
X144406352Y-94223651D01*
X144434808Y-94317456D01*
X144435400Y-94319409D01*
X144482571Y-94407661D01*
X144527607Y-94462537D01*
X144546053Y-94485014D01*
X144565431Y-94500917D01*
X144657148Y-94592633D01*
X144657150Y-94592636D01*
X144738089Y-94673574D01*
X144775613Y-94711098D01*
X144775617Y-94711103D01*
X146393079Y-96328565D01*
X146408986Y-96347948D01*
X146486339Y-96411429D01*
X146574591Y-96458601D01*
X146633157Y-96476367D01*
X146633157Y-96580109D01*
X146571127Y-96629590D01*
X146490439Y-96725169D01*
X146429948Y-96834654D01*
X146391978Y-96953836D01*
X146381000Y-97055250D01*
X146539750Y-97214000D01*
X146956673Y-97214000D01*
X147016000Y-97219843D01*
X147988000Y-97219843D01*
X147988000Y-97260335D01*
X147848000Y-97376848D01*
X147848000Y-99034000D01*
X147594000Y-99034000D01*
X147594000Y-98083250D01*
X147714000Y-97963250D01*
X147714000Y-97360000D01*
X147573756Y-97360000D01*
X147407116Y-97221316D01*
X147256891Y-97250820D01*
X146971000Y-97248928D01*
X146846518Y-97261188D01*
X146726820Y-97297498D01*
X146616506Y-97356463D01*
X146612196Y-97360000D01*
X146539750Y-97360000D01*
X146381000Y-97518750D01*
X146391978Y-97620164D01*
X146392587Y-97622075D01*
X146381498Y-97642820D01*
X146345188Y-97762518D01*
X146332928Y-97887000D01*
X146336000Y-98601250D01*
X146407438Y-98672688D01*
X146377197Y-98716744D01*
X146381989Y-98755526D01*
X146471869Y-98971039D01*
X146500725Y-99014000D01*
X146494750Y-99014000D01*
X146336000Y-99172750D01*
X146332928Y-99887000D01*
X146345188Y-100011482D01*
X146381498Y-100131180D01*
X146419887Y-100203000D01*
X143725000Y-100203000D01*
X143725000Y-100202998D01*
X143560815Y-100202998D01*
X143681481Y-99973109D01*
X143584157Y-99698748D01*
X143435178Y-99448645D01*
X143240269Y-99232412D01*
X143006920Y-99058359D01*
X142744099Y-98933175D01*
X142596890Y-98888524D01*
X142367000Y-99009845D01*
X142367000Y-100203000D01*
X142113000Y-100203000D01*
X142113000Y-99009845D01*
X141883110Y-98888524D01*
X141735901Y-98933175D01*
X141473080Y-99058359D01*
X141239731Y-99232412D01*
X141044822Y-99448645D01*
X140895843Y-99698748D01*
X140838228Y-99861168D01*
X140790898Y-99746903D01*
X140656180Y-99545283D01*
X140484717Y-99373820D01*
X140283097Y-99239102D01*
X140059069Y-99146307D01*
X139821243Y-99099000D01*
X139578757Y-99099000D01*
X139340931Y-99146307D01*
X139116903Y-99239102D01*
X138915283Y-99373820D01*
X138743820Y-99545283D01*
X138609102Y-99746903D01*
X138516307Y-99970931D01*
X138470145Y-100203000D01*
X138392843Y-100203000D01*
X138392843Y-99480000D01*
X138385487Y-99405311D01*
X138363701Y-99333492D01*
X138328322Y-99267304D01*
X138280711Y-99209289D01*
X138222696Y-99161678D01*
X138156508Y-99126299D01*
X138084689Y-99104513D01*
X138010000Y-99097157D01*
X138007263Y-99097157D01*
X138249565Y-98854855D01*
X138268948Y-98838948D01*
X138332429Y-98761595D01*
X138379601Y-98673343D01*
X138408649Y-98577585D01*
X138416000Y-98502947D01*
X138416000Y-98502944D01*
X138418457Y-98478000D01*
X138416000Y-98453056D01*
X138416000Y-94448843D01*
X138658000Y-94448843D01*
X138732689Y-94441487D01*
X138804508Y-94419701D01*
X138870696Y-94384322D01*
X138928711Y-94336711D01*
X138976322Y-94278696D01*
X139011701Y-94212508D01*
X139033487Y-94140689D01*
X139040843Y-94066000D01*
X139040843Y-92075000D01*
X139075157Y-92075000D01*
X139075157Y-94066000D01*
X139082513Y-94140689D01*
X139104299Y-94212508D01*
X139139678Y-94278696D01*
X139187289Y-94336711D01*
X139245304Y-94384322D01*
X139311492Y-94419701D01*
X139383311Y-94441487D01*
X139458000Y-94448843D01*
X139702001Y-94448843D01*
X139702001Y-94744511D01*
X139648815Y-94824109D01*
X139601249Y-94938944D01*
X139577000Y-95060852D01*
X139577000Y-95185148D01*
X139601249Y-95307056D01*
X139648815Y-95421891D01*
X139717870Y-95525239D01*
X139805761Y-95613130D01*
X139909109Y-95682185D01*
X140023944Y-95729751D01*
X140145852Y-95754000D01*
X140270148Y-95754000D01*
X140392056Y-95729751D01*
X140506891Y-95682185D01*
X140610239Y-95613130D01*
X140698130Y-95525239D01*
X140767185Y-95421891D01*
X140814751Y-95307056D01*
X140839000Y-95185148D01*
X140839000Y-95060852D01*
X140814751Y-94938944D01*
X140767185Y-94824109D01*
X140714000Y-94744512D01*
X140714000Y-94448843D01*
X140958000Y-94448843D01*
X141032689Y-94441487D01*
X141104508Y-94419701D01*
X141170696Y-94384322D01*
X141196715Y-94362969D01*
X141227463Y-94420494D01*
X141306815Y-94517185D01*
X141403506Y-94596537D01*
X141513820Y-94655502D01*
X141633518Y-94691812D01*
X141758000Y-94704072D01*
X142222250Y-94701000D01*
X142381000Y-94542250D01*
X142381000Y-93193000D01*
X142635000Y-93193000D01*
X142635000Y-94542250D01*
X142793750Y-94701000D01*
X143258000Y-94704072D01*
X143382482Y-94691812D01*
X143502180Y-94655502D01*
X143612494Y-94596537D01*
X143709185Y-94517185D01*
X143788537Y-94420494D01*
X143847502Y-94310180D01*
X143883812Y-94190482D01*
X143896072Y-94066000D01*
X143893000Y-93351750D01*
X143734250Y-93193000D01*
X142635000Y-93193000D01*
X142381000Y-93193000D01*
X142361000Y-93193000D01*
X142361000Y-92939000D01*
X142381000Y-92939000D01*
X142381000Y-91589750D01*
X142635000Y-91589750D01*
X142635000Y-92939000D01*
X143734250Y-92939000D01*
X143893000Y-92780250D01*
X143896072Y-92066000D01*
X143883812Y-91941518D01*
X143847502Y-91821820D01*
X143788537Y-91711506D01*
X143709185Y-91614815D01*
X143612494Y-91535463D01*
X143502180Y-91476498D01*
X143382482Y-91440188D01*
X143258000Y-91427928D01*
X142793750Y-91431000D01*
X142635000Y-91589750D01*
X142381000Y-91589750D01*
X142222250Y-91431000D01*
X141758000Y-91427928D01*
X141633518Y-91440188D01*
X141513820Y-91476498D01*
X141403506Y-91535463D01*
X141347000Y-91581836D01*
X141347000Y-91504852D01*
X141322751Y-91382944D01*
X141275185Y-91268109D01*
X141206130Y-91164761D01*
X141118239Y-91076870D01*
X141014891Y-91007815D01*
X140900056Y-90960249D01*
X140778148Y-90936000D01*
X140653852Y-90936000D01*
X140531944Y-90960249D01*
X140417109Y-91007815D01*
X140340505Y-91059000D01*
X138509053Y-91059000D01*
X138488746Y-91061000D01*
X138181845Y-91061000D01*
X138156999Y-91058553D01*
X138132153Y-91061000D01*
X138132146Y-91061000D01*
X138067694Y-91067348D01*
X138057806Y-91068322D01*
X137968544Y-91095399D01*
X137962425Y-91097255D01*
X137874521Y-91144241D01*
X137797473Y-91207473D01*
X137781624Y-91226785D01*
X137567781Y-91440628D01*
X137548474Y-91456473D01*
X137485242Y-91533521D01*
X137460127Y-91580508D01*
X137438255Y-91621426D01*
X137419530Y-91683157D01*
X137158000Y-91683157D01*
X137083311Y-91690513D01*
X137011492Y-91712299D01*
X136945304Y-91747678D01*
X136887289Y-91795289D01*
X136839678Y-91853304D01*
X136804299Y-91919492D01*
X136782513Y-91991311D01*
X136775157Y-92066000D01*
X136775157Y-92456000D01*
X135336131Y-92456000D01*
X135329683Y-92390538D01*
X135293671Y-92271821D01*
X135235190Y-92162411D01*
X135156488Y-92066512D01*
X135060589Y-91987810D01*
X134951179Y-91929329D01*
X134832462Y-91893317D01*
X134709001Y-91881157D01*
X134309212Y-91881157D01*
X134348130Y-91842239D01*
X134417185Y-91738891D01*
X134464751Y-91624056D01*
X134489000Y-91502148D01*
X134489000Y-91377852D01*
X134464751Y-91255944D01*
X134417185Y-91141109D01*
X134366000Y-91064505D01*
X134366000Y-88367053D01*
X134364000Y-88346746D01*
X134364000Y-87901591D01*
X134991592Y-87274000D01*
X137925157Y-87274000D01*
X137925157Y-87766000D01*
X137932513Y-87840689D01*
X137954299Y-87912508D01*
X137989678Y-87978696D01*
X138037289Y-88036711D01*
X138095304Y-88084322D01*
X138161492Y-88119701D01*
X138233311Y-88141487D01*
X138308000Y-88148843D01*
X142108000Y-88148843D01*
X142182689Y-88141487D01*
X142254508Y-88119701D01*
X142320696Y-88084322D01*
X142378711Y-88036711D01*
X142426322Y-87978696D01*
X142461701Y-87912508D01*
X142483487Y-87840689D01*
X142490843Y-87766000D01*
X142490843Y-87272000D01*
X143163631Y-87272000D01*
X143178761Y-87287130D01*
X143282109Y-87356185D01*
X143396944Y-87403751D01*
X143518852Y-87428000D01*
X143643148Y-87428000D01*
X143765056Y-87403751D01*
X143879891Y-87356185D01*
X143959488Y-87303000D01*
X145591157Y-87303000D01*
X145591157Y-87572001D01*
X145603317Y-87695462D01*
X145639329Y-87814179D01*
X145697810Y-87923589D01*
X145776512Y-88019488D01*
X145872411Y-88098190D01*
X145981821Y-88156671D01*
X146043000Y-88175229D01*
X146043000Y-88227771D01*
X145981821Y-88246329D01*
X145872411Y-88304810D01*
X145776512Y-88383512D01*
X145697810Y-88479411D01*
X145639329Y-88588821D01*
X145603317Y-88707538D01*
X145591157Y-88830999D01*
X145591157Y-89731001D01*
X145603317Y-89854462D01*
X145639329Y-89973179D01*
X145697810Y-90082589D01*
X145776512Y-90178488D01*
X145872411Y-90257190D01*
X145981821Y-90315671D01*
X146100538Y-90351683D01*
X146223999Y-90363843D01*
X146874001Y-90363843D01*
X146997462Y-90351683D01*
X147116179Y-90315671D01*
X147225589Y-90257190D01*
X147321488Y-90178488D01*
X147396389Y-90087220D01*
X147398188Y-90105482D01*
X147434498Y-90225180D01*
X147493463Y-90335494D01*
X147572815Y-90432185D01*
X147669506Y-90511537D01*
X147779820Y-90570502D01*
X147899518Y-90606812D01*
X148024000Y-90619072D01*
X148313250Y-90616000D01*
X148472000Y-90457250D01*
X148472000Y-89408000D01*
X148726000Y-89408000D01*
X148726000Y-90457250D01*
X148884750Y-90616000D01*
X149174000Y-90619072D01*
X149298482Y-90606812D01*
X149418180Y-90570502D01*
X149528494Y-90511537D01*
X149625185Y-90432185D01*
X149704537Y-90335494D01*
X149763502Y-90225180D01*
X149799812Y-90105482D01*
X149812072Y-89981000D01*
X149809000Y-89566750D01*
X149650250Y-89408000D01*
X148726000Y-89408000D01*
X148472000Y-89408000D01*
X148452000Y-89408000D01*
X148452000Y-89154000D01*
X148472000Y-89154000D01*
X148472000Y-87249000D01*
X148726000Y-87249000D01*
X148726000Y-89154000D01*
X149650250Y-89154000D01*
X149809000Y-88995250D01*
X149812072Y-88581000D01*
X149799812Y-88456518D01*
X149763502Y-88336820D01*
X149704537Y-88226506D01*
X149684015Y-88201500D01*
X149704537Y-88176494D01*
X149763502Y-88066180D01*
X149799812Y-87946482D01*
X149812072Y-87822000D01*
X149809000Y-87407750D01*
X149650250Y-87249000D01*
X148726000Y-87249000D01*
X148472000Y-87249000D01*
X148452000Y-87249000D01*
X148452000Y-86995000D01*
X148472000Y-86995000D01*
X148472000Y-86148250D01*
X148481000Y-86139250D01*
X148481000Y-85090000D01*
X148461000Y-85090000D01*
X148461000Y-84836000D01*
X148481000Y-84836000D01*
X148481000Y-83786750D01*
X148735000Y-83786750D01*
X148735000Y-84836000D01*
X149659250Y-84836000D01*
X149818000Y-84677250D01*
X149821072Y-84263000D01*
X149808812Y-84138518D01*
X149772502Y-84018820D01*
X149713537Y-83908506D01*
X149634185Y-83811815D01*
X149537494Y-83732463D01*
X149427180Y-83673498D01*
X149307482Y-83637188D01*
X149183000Y-83624928D01*
X148893750Y-83628000D01*
X148735000Y-83786750D01*
X148481000Y-83786750D01*
X148322250Y-83628000D01*
X148033000Y-83624928D01*
X147908518Y-83637188D01*
X147788820Y-83673498D01*
X147678506Y-83732463D01*
X147581815Y-83811815D01*
X147502463Y-83908506D01*
X147443498Y-84018820D01*
X147407188Y-84138518D01*
X147405389Y-84156780D01*
X147330488Y-84065512D01*
X147234589Y-83986810D01*
X147125179Y-83928329D01*
X147006462Y-83892317D01*
X146883001Y-83880157D01*
X146232999Y-83880157D01*
X146109538Y-83892317D01*
X145990821Y-83928329D01*
X145881411Y-83986810D01*
X145785512Y-84065512D01*
X145706810Y-84161411D01*
X145667000Y-84235890D01*
X145667000Y-83892328D01*
X145734462Y-83885683D01*
X145853179Y-83849671D01*
X145962589Y-83791190D01*
X146058488Y-83712488D01*
X146137190Y-83616589D01*
X146195671Y-83507179D01*
X146231683Y-83388462D01*
X146243843Y-83265001D01*
X146243843Y-82614999D01*
X146231683Y-82491538D01*
X146195671Y-82372821D01*
X146137190Y-82263411D01*
X146058488Y-82167512D01*
X145967220Y-82092611D01*
X145985482Y-82090812D01*
X146105180Y-82054502D01*
X146215494Y-81995537D01*
X146312185Y-81916185D01*
X146391537Y-81819494D01*
X146450502Y-81709180D01*
X146486812Y-81589482D01*
X146499072Y-81465000D01*
X146496000Y-81175750D01*
X146337250Y-81017000D01*
X145288000Y-81017000D01*
X145288000Y-81037000D01*
X145034000Y-81037000D01*
X145034000Y-81017000D01*
X144187250Y-81017000D01*
X144178250Y-81008000D01*
X143129000Y-81008000D01*
X143129000Y-81028000D01*
X142875000Y-81028000D01*
X142875000Y-81008000D01*
X141825750Y-81008000D01*
X141667000Y-81166750D01*
X141663928Y-81456000D01*
X141676188Y-81580482D01*
X141712498Y-81700180D01*
X141771463Y-81810494D01*
X141850815Y-81907185D01*
X141947506Y-81986537D01*
X142057820Y-82045502D01*
X142177518Y-82081812D01*
X142195780Y-82083611D01*
X142104512Y-82158512D01*
X142025810Y-82254411D01*
X141967329Y-82363821D01*
X141931317Y-82482538D01*
X141919157Y-82605999D01*
X141919157Y-83256001D01*
X141931317Y-83379462D01*
X141967329Y-83498179D01*
X142025810Y-83607589D01*
X142103909Y-83702753D01*
X142091761Y-83710870D01*
X142003870Y-83798761D01*
X141934815Y-83902109D01*
X141887249Y-84016944D01*
X141863000Y-84138852D01*
X141863000Y-84263148D01*
X141887249Y-84385056D01*
X141934815Y-84499891D01*
X142003870Y-84603239D01*
X142091761Y-84691130D01*
X142195109Y-84760185D01*
X142309944Y-84807751D01*
X142431852Y-84832000D01*
X142556148Y-84832000D01*
X142678056Y-84807751D01*
X142792891Y-84760185D01*
X142872488Y-84707000D01*
X143852512Y-84707000D01*
X143932109Y-84760185D01*
X144046944Y-84807751D01*
X144168852Y-84832000D01*
X144293148Y-84832000D01*
X144415056Y-84807751D01*
X144529891Y-84760185D01*
X144633239Y-84691130D01*
X144655001Y-84669368D01*
X144655001Y-84838511D01*
X144601815Y-84918109D01*
X144554249Y-85032944D01*
X144535573Y-85126835D01*
X143490836Y-86171573D01*
X143396944Y-86190249D01*
X143282109Y-86237815D01*
X143248907Y-86260000D01*
X142490843Y-86260000D01*
X142490843Y-85766000D01*
X142483487Y-85691311D01*
X142461701Y-85619492D01*
X142426322Y-85553304D01*
X142378711Y-85495289D01*
X142320696Y-85447678D01*
X142254508Y-85412299D01*
X142182689Y-85390513D01*
X142108000Y-85383157D01*
X140696471Y-85383157D01*
X140677745Y-85321425D01*
X140674948Y-85316192D01*
X140630759Y-85233521D01*
X140567527Y-85156473D01*
X140548215Y-85140624D01*
X140284376Y-84876785D01*
X140268527Y-84857473D01*
X140191479Y-84794241D01*
X140103575Y-84747255D01*
X140008193Y-84718322D01*
X139933854Y-84711000D01*
X139933846Y-84711000D01*
X139909000Y-84708553D01*
X139884154Y-84711000D01*
X136435229Y-84711000D01*
X136416671Y-84649821D01*
X136358190Y-84540411D01*
X136279488Y-84444512D01*
X136188220Y-84369611D01*
X136206482Y-84367812D01*
X136326180Y-84331502D01*
X136436494Y-84272537D01*
X136533185Y-84193185D01*
X136612537Y-84096494D01*
X136671502Y-83986180D01*
X136707812Y-83866482D01*
X136720072Y-83742000D01*
X136717000Y-83452750D01*
X136558250Y-83294000D01*
X135509000Y-83294000D01*
X135509000Y-83314000D01*
X135255000Y-83314000D01*
X135255000Y-83294000D01*
X133223000Y-83294000D01*
X133223000Y-83314000D01*
X132969000Y-83314000D01*
X132969000Y-83294000D01*
X131919750Y-83294000D01*
X131761000Y-83452750D01*
X131757928Y-83742000D01*
X131770188Y-83866482D01*
X131806498Y-83986180D01*
X131865463Y-84096494D01*
X131944815Y-84193185D01*
X132041506Y-84272537D01*
X132151820Y-84331502D01*
X132271518Y-84367812D01*
X132289780Y-84369611D01*
X132198512Y-84444512D01*
X132119810Y-84540411D01*
X132061329Y-84649821D01*
X132025317Y-84768538D01*
X132013157Y-84891999D01*
X132013157Y-85542001D01*
X132025317Y-85665462D01*
X132061329Y-85784179D01*
X132119810Y-85893589D01*
X132198512Y-85989488D01*
X132294411Y-86068190D01*
X132403821Y-86126671D01*
X132522538Y-86162683D01*
X132645999Y-86174843D01*
X133546001Y-86174843D01*
X133669462Y-86162683D01*
X133788179Y-86126671D01*
X133897589Y-86068190D01*
X133993488Y-85989488D01*
X134072190Y-85893589D01*
X134130671Y-85784179D01*
X134149229Y-85723000D01*
X134328771Y-85723000D01*
X134347329Y-85784179D01*
X134405810Y-85893589D01*
X134484512Y-85989488D01*
X134580411Y-86068190D01*
X134689821Y-86126671D01*
X134808538Y-86162683D01*
X134931999Y-86174843D01*
X135832001Y-86174843D01*
X135955462Y-86162683D01*
X136074179Y-86126671D01*
X136183589Y-86068190D01*
X136279488Y-85989488D01*
X136358190Y-85893589D01*
X136416671Y-85784179D01*
X136435229Y-85723000D01*
X137929392Y-85723000D01*
X137925157Y-85766000D01*
X137925157Y-86258000D01*
X134788548Y-86258000D01*
X134784000Y-86257552D01*
X134779452Y-86258000D01*
X134759053Y-86258000D01*
X134684415Y-86265351D01*
X134588657Y-86294399D01*
X134500405Y-86341571D01*
X134423052Y-86405052D01*
X134394203Y-86440205D01*
X133517780Y-87316629D01*
X133498474Y-87332473D01*
X133435242Y-87409521D01*
X133425365Y-87428000D01*
X133388255Y-87497426D01*
X133359322Y-87592808D01*
X133349553Y-87692000D01*
X133352001Y-87716856D01*
X133352000Y-88346755D01*
X133350001Y-88367053D01*
X133350000Y-91064505D01*
X133298815Y-91141109D01*
X133251249Y-91255944D01*
X133227000Y-91377852D01*
X133227000Y-91502148D01*
X133251249Y-91624056D01*
X133298815Y-91738891D01*
X133333669Y-91791054D01*
X133263494Y-91733463D01*
X133153180Y-91674498D01*
X133033482Y-91638188D01*
X132909000Y-91625928D01*
X132812551Y-91626952D01*
X132813751Y-91624056D01*
X132838000Y-91502148D01*
X132838000Y-91377852D01*
X132813751Y-91255944D01*
X132766185Y-91141109D01*
X132713000Y-91061512D01*
X132713000Y-88643488D01*
X132766185Y-88563891D01*
X132813751Y-88449056D01*
X132838000Y-88327148D01*
X132838000Y-88202852D01*
X132813751Y-88080944D01*
X132766185Y-87966109D01*
X132697130Y-87862761D01*
X132609239Y-87774870D01*
X132505891Y-87705815D01*
X132391056Y-87658249D01*
X132269148Y-87634000D01*
X132144852Y-87634000D01*
X132022944Y-87658249D01*
X131908109Y-87705815D01*
X131804761Y-87774870D01*
X131716870Y-87862761D01*
X131647815Y-87966109D01*
X131600249Y-88080944D01*
X131576000Y-88202852D01*
X131576000Y-88327148D01*
X131600249Y-88449056D01*
X131647815Y-88563891D01*
X131701001Y-88643489D01*
X131701000Y-91061512D01*
X131647815Y-91141109D01*
X131600249Y-91255944D01*
X131576000Y-91377852D01*
X131576000Y-91502148D01*
X131600249Y-91624056D01*
X131609274Y-91645846D01*
X131514820Y-91674498D01*
X131404506Y-91733463D01*
X131307815Y-91812815D01*
X131228463Y-91909506D01*
X131169498Y-92019820D01*
X131133188Y-92139518D01*
X131120928Y-92264000D01*
X131124000Y-92678250D01*
X131282750Y-92837000D01*
X132207000Y-92837000D01*
X132207000Y-92817000D01*
X132461000Y-92817000D01*
X132461000Y-92837000D01*
X132481000Y-92837000D01*
X132481000Y-93091000D01*
X132461000Y-93091000D01*
X132461000Y-94140250D01*
X132554750Y-94234000D01*
X132461000Y-94327750D01*
X132461000Y-95377000D01*
X132481000Y-95377000D01*
X132481000Y-95631000D01*
X132461000Y-95631000D01*
X132461000Y-96680250D01*
X132619750Y-96839000D01*
X132909000Y-96842072D01*
X133033482Y-96829812D01*
X133153180Y-96793502D01*
X133263494Y-96734537D01*
X133360185Y-96655185D01*
X133439537Y-96558494D01*
X133498502Y-96448180D01*
X133534812Y-96328482D01*
X133536611Y-96310220D01*
X133611512Y-96401488D01*
X133707411Y-96480190D01*
X133816821Y-96538671D01*
X133935538Y-96574683D01*
X134058999Y-96586843D01*
X134709001Y-96586843D01*
X134832462Y-96574683D01*
X134951179Y-96538671D01*
X135060589Y-96480190D01*
X135156488Y-96401488D01*
X135235190Y-96305589D01*
X135293671Y-96196179D01*
X135329683Y-96077462D01*
X135341843Y-95954001D01*
X135341843Y-95053999D01*
X135329683Y-94930538D01*
X135293671Y-94811821D01*
X135235190Y-94702411D01*
X135156488Y-94606512D01*
X135060589Y-94527810D01*
X134951179Y-94469329D01*
X134892000Y-94451377D01*
X134892000Y-94016623D01*
X134951179Y-93998671D01*
X135060589Y-93940190D01*
X135156488Y-93861488D01*
X135235190Y-93765589D01*
X135293671Y-93656179D01*
X135329683Y-93537462D01*
X135336131Y-93472000D01*
X136775157Y-93472000D01*
X136775157Y-94066000D01*
X136782513Y-94140689D01*
X136804299Y-94212508D01*
X136839678Y-94278696D01*
X136887289Y-94336711D01*
X136945304Y-94384322D01*
X137011492Y-94419701D01*
X137083311Y-94441487D01*
X137158000Y-94448843D01*
X137400001Y-94448843D01*
X137400000Y-98267580D01*
X136818430Y-98849150D01*
X136799053Y-98865052D01*
X136783151Y-98884429D01*
X136783150Y-98884430D01*
X136735571Y-98942405D01*
X136699524Y-99009845D01*
X136688400Y-99030657D01*
X136668227Y-99097157D01*
X136310000Y-99097157D01*
X136235311Y-99104513D01*
X136163492Y-99126299D01*
X136097304Y-99161678D01*
X136039289Y-99209289D01*
X135991678Y-99267304D01*
X135956299Y-99333492D01*
X135934513Y-99405311D01*
X135927157Y-99480000D01*
X135927157Y-100203000D01*
X129363551Y-100203000D01*
X129390711Y-100180711D01*
X129438322Y-100122696D01*
X129473701Y-100056508D01*
X129495487Y-99984689D01*
X129502843Y-99910000D01*
X129502843Y-98210000D01*
X129495487Y-98135311D01*
X129473701Y-98063492D01*
X129438322Y-97997304D01*
X129390711Y-97939289D01*
X129332696Y-97891678D01*
X129266508Y-97856299D01*
X129194689Y-97834513D01*
X129120000Y-97827157D01*
X128963367Y-97827157D01*
X129151355Y-97715178D01*
X129367588Y-97520269D01*
X129541641Y-97286920D01*
X129666825Y-97024099D01*
X129711476Y-96876890D01*
X129590155Y-96647000D01*
X128397000Y-96647000D01*
X128397000Y-96393000D01*
X129590155Y-96393000D01*
X129689896Y-96204000D01*
X131120928Y-96204000D01*
X131133188Y-96328482D01*
X131169498Y-96448180D01*
X131228463Y-96558494D01*
X131307815Y-96655185D01*
X131404506Y-96734537D01*
X131514820Y-96793502D01*
X131634518Y-96829812D01*
X131759000Y-96842072D01*
X132048250Y-96839000D01*
X132207000Y-96680250D01*
X132207000Y-95631000D01*
X131282750Y-95631000D01*
X131124000Y-95789750D01*
X131120928Y-96204000D01*
X129689896Y-96204000D01*
X129711476Y-96163110D01*
X129666825Y-96015901D01*
X129541641Y-95753080D01*
X129367588Y-95519731D01*
X129151355Y-95324822D01*
X128901252Y-95175843D01*
X128738832Y-95118228D01*
X128853097Y-95070898D01*
X129054717Y-94936180D01*
X129226180Y-94764717D01*
X129360898Y-94563097D01*
X129453693Y-94339069D01*
X129501000Y-94101243D01*
X129501000Y-93858757D01*
X129462261Y-93664000D01*
X131120928Y-93664000D01*
X131133188Y-93788482D01*
X131169498Y-93908180D01*
X131228463Y-94018494D01*
X131307815Y-94115185D01*
X131404506Y-94194537D01*
X131478335Y-94234000D01*
X131404506Y-94273463D01*
X131307815Y-94352815D01*
X131228463Y-94449506D01*
X131169498Y-94559820D01*
X131133188Y-94679518D01*
X131120928Y-94804000D01*
X131124000Y-95218250D01*
X131282750Y-95377000D01*
X132207000Y-95377000D01*
X132207000Y-94327750D01*
X132113250Y-94234000D01*
X132207000Y-94140250D01*
X132207000Y-93091000D01*
X131282750Y-93091000D01*
X131124000Y-93249750D01*
X131120928Y-93664000D01*
X129462261Y-93664000D01*
X129453693Y-93620931D01*
X129360898Y-93396903D01*
X129226180Y-93195283D01*
X129054717Y-93023820D01*
X128853097Y-92889102D01*
X128629069Y-92796307D01*
X128397000Y-92750145D01*
X128397000Y-92669855D01*
X128629069Y-92623693D01*
X128853097Y-92530898D01*
X129054717Y-92396180D01*
X129226180Y-92224717D01*
X129360898Y-92023097D01*
X129453693Y-91799069D01*
X129501000Y-91561243D01*
X129501000Y-91318757D01*
X129453693Y-91080931D01*
X129360898Y-90856903D01*
X129226180Y-90655283D01*
X129054717Y-90483820D01*
X128853097Y-90349102D01*
X128629069Y-90256307D01*
X128397000Y-90210145D01*
X128397000Y-90129855D01*
X128629069Y-90083693D01*
X128853097Y-89990898D01*
X129054717Y-89856180D01*
X129226180Y-89684717D01*
X129360898Y-89483097D01*
X129453693Y-89259069D01*
X129501000Y-89021243D01*
X129501000Y-88778757D01*
X129453693Y-88540931D01*
X129360898Y-88316903D01*
X129226180Y-88115283D01*
X129054717Y-87943820D01*
X128853097Y-87809102D01*
X128629069Y-87716307D01*
X128397000Y-87670145D01*
X128397000Y-87589855D01*
X128629069Y-87543693D01*
X128853097Y-87450898D01*
X129054717Y-87316180D01*
X129226180Y-87144717D01*
X129360898Y-86943097D01*
X129453693Y-86719069D01*
X129501000Y-86481243D01*
X129501000Y-86238757D01*
X129453693Y-86000931D01*
X129360898Y-85776903D01*
X129226180Y-85575283D01*
X129054717Y-85403820D01*
X128853097Y-85269102D01*
X128629069Y-85176307D01*
X128397000Y-85130145D01*
X128397000Y-85049855D01*
X128629069Y-85003693D01*
X128853097Y-84910898D01*
X129054717Y-84776180D01*
X129226180Y-84604717D01*
X129360898Y-84403097D01*
X129453693Y-84179069D01*
X129501000Y-83941243D01*
X129501000Y-83698757D01*
X129453693Y-83460931D01*
X129360898Y-83236903D01*
X129226180Y-83035283D01*
X129054717Y-82863820D01*
X128853097Y-82729102D01*
X128629069Y-82636307D01*
X128406326Y-82592000D01*
X131757928Y-82592000D01*
X131761000Y-82881250D01*
X131919750Y-83040000D01*
X132969000Y-83040000D01*
X132969000Y-82115750D01*
X133223000Y-82115750D01*
X133223000Y-83040000D01*
X135255000Y-83040000D01*
X135255000Y-82115750D01*
X135509000Y-82115750D01*
X135509000Y-83040000D01*
X136558250Y-83040000D01*
X136717000Y-82881250D01*
X136720072Y-82592000D01*
X136707812Y-82467518D01*
X136671502Y-82347820D01*
X136612537Y-82237506D01*
X136533185Y-82140815D01*
X136436494Y-82061463D01*
X136326180Y-82002498D01*
X136206482Y-81966188D01*
X136082000Y-81953928D01*
X135667750Y-81957000D01*
X135509000Y-82115750D01*
X135255000Y-82115750D01*
X135096250Y-81957000D01*
X134682000Y-81953928D01*
X134557518Y-81966188D01*
X134437820Y-82002498D01*
X134327506Y-82061463D01*
X134239000Y-82134098D01*
X134150494Y-82061463D01*
X134040180Y-82002498D01*
X133920482Y-81966188D01*
X133796000Y-81953928D01*
X133381750Y-81957000D01*
X133223000Y-82115750D01*
X132969000Y-82115750D01*
X132810250Y-81957000D01*
X132396000Y-81953928D01*
X132271518Y-81966188D01*
X132151820Y-82002498D01*
X132041506Y-82061463D01*
X131944815Y-82140815D01*
X131865463Y-82237506D01*
X131806498Y-82347820D01*
X131770188Y-82467518D01*
X131757928Y-82592000D01*
X128406326Y-82592000D01*
X128397000Y-82590145D01*
X128397000Y-82509855D01*
X128629069Y-82463693D01*
X128853097Y-82370898D01*
X129054717Y-82236180D01*
X129226180Y-82064717D01*
X129360898Y-81863097D01*
X129453693Y-81639069D01*
X129501000Y-81401243D01*
X129501000Y-81158757D01*
X129453693Y-80920931D01*
X129360898Y-80696903D01*
X129226180Y-80495283D01*
X129054717Y-80323820D01*
X128853097Y-80189102D01*
X128629069Y-80096307D01*
X128397000Y-80050145D01*
X128397000Y-79969855D01*
X128629069Y-79923693D01*
X128853097Y-79830898D01*
X129054717Y-79696180D01*
X129226180Y-79524717D01*
X129360898Y-79323097D01*
X129453693Y-79099069D01*
X129501000Y-78861243D01*
X129501000Y-78618757D01*
X129453693Y-78380931D01*
X129360898Y-78156903D01*
X129226180Y-77955283D01*
X129054717Y-77783820D01*
X128853097Y-77649102D01*
X128727311Y-77597000D01*
X135927157Y-77597000D01*
X135927157Y-78320000D01*
G36*
X149106000Y-94741250D02*
G01*
X149264750Y-94900000D01*
X150864000Y-94900000D01*
X150864000Y-94880000D01*
X151003000Y-94880000D01*
X151003000Y-97094000D01*
X150864000Y-97094000D01*
X150864000Y-97074000D01*
X150844000Y-97074000D01*
X150844000Y-96820000D01*
X150864000Y-96820000D01*
X150864000Y-95154000D01*
X149264750Y-95154000D01*
X149106000Y-95312750D01*
X149102928Y-95742000D01*
X149115188Y-95866482D01*
X149151498Y-95986180D01*
X149151936Y-95987000D01*
X149151498Y-95987820D01*
X149115188Y-96107518D01*
X149102928Y-96232000D01*
X149105744Y-96625499D01*
X149048843Y-96580109D01*
X149048843Y-96437000D01*
X149041487Y-96362311D01*
X149026225Y-96312000D01*
X149041487Y-96261689D01*
X149048843Y-96187000D01*
X149048843Y-95787000D01*
X149041487Y-95712311D01*
X149026225Y-95662000D01*
X149041487Y-95611689D01*
X149048843Y-95537000D01*
X149048843Y-95137000D01*
X149041487Y-95062311D01*
X149026225Y-95012000D01*
X149041487Y-94961689D01*
X149048843Y-94887000D01*
X149048843Y-94584500D01*
X149104878Y-94584500D01*
X149106000Y-94741250D01*
G37*
X149106000Y-94741250D02*
X149264750Y-94900000D01*
X150864000Y-94900000D01*
X150864000Y-94880000D01*
X151003000Y-94880000D01*
X151003000Y-97094000D01*
X150864000Y-97094000D01*
X150864000Y-97074000D01*
X150844000Y-97074000D01*
X150844000Y-96820000D01*
X150864000Y-96820000D01*
X150864000Y-95154000D01*
X149264750Y-95154000D01*
X149106000Y-95312750D01*
X149102928Y-95742000D01*
X149115188Y-95866482D01*
X149151498Y-95986180D01*
X149151936Y-95987000D01*
X149151498Y-95987820D01*
X149115188Y-96107518D01*
X149102928Y-96232000D01*
X149105744Y-96625499D01*
X149048843Y-96580109D01*
X149048843Y-96437000D01*
X149041487Y-96362311D01*
X149026225Y-96312000D01*
X149041487Y-96261689D01*
X149048843Y-96187000D01*
X149048843Y-95787000D01*
X149041487Y-95712311D01*
X149026225Y-95662000D01*
X149041487Y-95611689D01*
X149048843Y-95537000D01*
X149048843Y-95137000D01*
X149041487Y-95062311D01*
X149026225Y-95012000D01*
X149041487Y-94961689D01*
X149048843Y-94887000D01*
X149048843Y-94584500D01*
X149104878Y-94584500D01*
X149106000Y-94741250D01*
G36*
X151003000Y-86487000D02*
G01*
X150983000Y-86487000D01*
X150983000Y-86233000D01*
X151003000Y-86233000D01*
X151003000Y-86487000D01*
G37*
X151003000Y-86487000D02*
X150983000Y-86487000D01*
X150983000Y-86233000D01*
X151003000Y-86233000D01*
X151003000Y-86487000D01*
M02*
