G04 #@! TF.GenerationSoftware,KiCad,Pcbnew,(5.1.5)-2*
G04 #@! TF.CreationDate,2019-12-31T22:23:39+04:00*
G04 #@! TF.ProjectId,stm32f042_devboard,73746d33-3266-4303-9432-5f646576626f,1*
G04 #@! TF.SameCoordinates,Original*
G04 #@! TF.FileFunction,Copper,L1,Top*
G04 #@! TF.FilePolarity,Positive*
%FSLAX46Y46*%
G04 Gerber Fmt 4.6, Leading zero omitted, Abs format (unit mm)*
G04 Created by KiCad (PCBNEW (5.1.5)-2) date 2019-12-31 22:23:39*
%MOMM*%
%LPD*%
G04 APERTURE LIST*
%ADD10C,0.100000*%
%ADD11R,1.000000X1.500000*%
%ADD12O,1.700000X1.700000*%
%ADD13R,1.700000X1.700000*%
%ADD14R,2.800000X1.000000*%
%ADD15O,1.700000X1.350000*%
%ADD16O,1.500000X1.100000*%
%ADD17R,0.450000X1.450000*%
%ADD18C,0.500000*%
%ADD19C,0.254000*%
%ADD20C,0.250000*%
G04 APERTURE END LIST*
D10*
G36*
X145688000Y-78313000D02*
G01*
X146188000Y-78313000D01*
X146188000Y-78913000D01*
X145688000Y-78913000D01*
X145688000Y-78313000D01*
G37*
G04 #@! TA.AperFunction,SMDPad,CuDef*
G36*
X145838000Y-79363000D02*
G01*
X145288000Y-79363000D01*
X145288000Y-79362398D01*
X145263466Y-79362398D01*
X145214635Y-79357588D01*
X145166510Y-79348016D01*
X145119555Y-79333772D01*
X145074222Y-79314995D01*
X145030949Y-79291864D01*
X144990150Y-79264604D01*
X144952221Y-79233476D01*
X144917524Y-79198779D01*
X144886396Y-79160850D01*
X144859136Y-79120051D01*
X144836005Y-79076778D01*
X144817228Y-79031445D01*
X144802984Y-78984490D01*
X144793412Y-78936365D01*
X144788602Y-78887534D01*
X144788602Y-78863000D01*
X144788000Y-78863000D01*
X144788000Y-78363000D01*
X144788602Y-78363000D01*
X144788602Y-78338466D01*
X144793412Y-78289635D01*
X144802984Y-78241510D01*
X144817228Y-78194555D01*
X144836005Y-78149222D01*
X144859136Y-78105949D01*
X144886396Y-78065150D01*
X144917524Y-78027221D01*
X144952221Y-77992524D01*
X144990150Y-77961396D01*
X145030949Y-77934136D01*
X145074222Y-77911005D01*
X145119555Y-77892228D01*
X145166510Y-77877984D01*
X145214635Y-77868412D01*
X145263466Y-77863602D01*
X145288000Y-77863602D01*
X145288000Y-77863000D01*
X145838000Y-77863000D01*
X145838000Y-79363000D01*
G37*
G04 #@! TD.AperFunction*
D11*
X146588000Y-78613000D03*
G04 #@! TA.AperFunction,SMDPad,CuDef*
D10*
G36*
X147888000Y-77863602D02*
G01*
X147912534Y-77863602D01*
X147961365Y-77868412D01*
X148009490Y-77877984D01*
X148056445Y-77892228D01*
X148101778Y-77911005D01*
X148145051Y-77934136D01*
X148185850Y-77961396D01*
X148223779Y-77992524D01*
X148258476Y-78027221D01*
X148289604Y-78065150D01*
X148316864Y-78105949D01*
X148339995Y-78149222D01*
X148358772Y-78194555D01*
X148373016Y-78241510D01*
X148382588Y-78289635D01*
X148387398Y-78338466D01*
X148387398Y-78363000D01*
X148388000Y-78363000D01*
X148388000Y-78863000D01*
X148387398Y-78863000D01*
X148387398Y-78887534D01*
X148382588Y-78936365D01*
X148373016Y-78984490D01*
X148358772Y-79031445D01*
X148339995Y-79076778D01*
X148316864Y-79120051D01*
X148289604Y-79160850D01*
X148258476Y-79198779D01*
X148223779Y-79233476D01*
X148185850Y-79264604D01*
X148145051Y-79291864D01*
X148101778Y-79314995D01*
X148056445Y-79333772D01*
X148009490Y-79348016D01*
X147961365Y-79357588D01*
X147912534Y-79362398D01*
X147888000Y-79362398D01*
X147888000Y-79363000D01*
X147338000Y-79363000D01*
X147338000Y-77863000D01*
X147888000Y-77863000D01*
X147888000Y-77863602D01*
G37*
G04 #@! TD.AperFunction*
G04 #@! TA.AperFunction,SMDPad,CuDef*
G36*
X136239505Y-86804204D02*
G01*
X136263773Y-86807804D01*
X136287572Y-86813765D01*
X136310671Y-86822030D01*
X136332850Y-86832520D01*
X136353893Y-86845132D01*
X136373599Y-86859747D01*
X136391777Y-86876223D01*
X136408253Y-86894401D01*
X136422868Y-86914107D01*
X136435480Y-86935150D01*
X136445970Y-86957329D01*
X136454235Y-86980428D01*
X136460196Y-87004227D01*
X136463796Y-87028495D01*
X136465000Y-87052999D01*
X136465000Y-87953001D01*
X136463796Y-87977505D01*
X136460196Y-88001773D01*
X136454235Y-88025572D01*
X136445970Y-88048671D01*
X136435480Y-88070850D01*
X136422868Y-88091893D01*
X136408253Y-88111599D01*
X136391777Y-88129777D01*
X136373599Y-88146253D01*
X136353893Y-88160868D01*
X136332850Y-88173480D01*
X136310671Y-88183970D01*
X136287572Y-88192235D01*
X136263773Y-88198196D01*
X136239505Y-88201796D01*
X136215001Y-88203000D01*
X135564999Y-88203000D01*
X135540495Y-88201796D01*
X135516227Y-88198196D01*
X135492428Y-88192235D01*
X135469329Y-88183970D01*
X135447150Y-88173480D01*
X135426107Y-88160868D01*
X135406401Y-88146253D01*
X135388223Y-88129777D01*
X135371747Y-88111599D01*
X135357132Y-88091893D01*
X135344520Y-88070850D01*
X135334030Y-88048671D01*
X135325765Y-88025572D01*
X135319804Y-88001773D01*
X135316204Y-87977505D01*
X135315000Y-87953001D01*
X135315000Y-87052999D01*
X135316204Y-87028495D01*
X135319804Y-87004227D01*
X135325765Y-86980428D01*
X135334030Y-86957329D01*
X135344520Y-86935150D01*
X135357132Y-86914107D01*
X135371747Y-86894401D01*
X135388223Y-86876223D01*
X135406401Y-86859747D01*
X135426107Y-86845132D01*
X135447150Y-86832520D01*
X135469329Y-86822030D01*
X135492428Y-86813765D01*
X135516227Y-86807804D01*
X135540495Y-86804204D01*
X135564999Y-86803000D01*
X136215001Y-86803000D01*
X136239505Y-86804204D01*
G37*
G04 #@! TD.AperFunction*
G04 #@! TA.AperFunction,SMDPad,CuDef*
G36*
X138289505Y-86804204D02*
G01*
X138313773Y-86807804D01*
X138337572Y-86813765D01*
X138360671Y-86822030D01*
X138382850Y-86832520D01*
X138403893Y-86845132D01*
X138423599Y-86859747D01*
X138441777Y-86876223D01*
X138458253Y-86894401D01*
X138472868Y-86914107D01*
X138485480Y-86935150D01*
X138495970Y-86957329D01*
X138504235Y-86980428D01*
X138510196Y-87004227D01*
X138513796Y-87028495D01*
X138515000Y-87052999D01*
X138515000Y-87953001D01*
X138513796Y-87977505D01*
X138510196Y-88001773D01*
X138504235Y-88025572D01*
X138495970Y-88048671D01*
X138485480Y-88070850D01*
X138472868Y-88091893D01*
X138458253Y-88111599D01*
X138441777Y-88129777D01*
X138423599Y-88146253D01*
X138403893Y-88160868D01*
X138382850Y-88173480D01*
X138360671Y-88183970D01*
X138337572Y-88192235D01*
X138313773Y-88198196D01*
X138289505Y-88201796D01*
X138265001Y-88203000D01*
X137614999Y-88203000D01*
X137590495Y-88201796D01*
X137566227Y-88198196D01*
X137542428Y-88192235D01*
X137519329Y-88183970D01*
X137497150Y-88173480D01*
X137476107Y-88160868D01*
X137456401Y-88146253D01*
X137438223Y-88129777D01*
X137421747Y-88111599D01*
X137407132Y-88091893D01*
X137394520Y-88070850D01*
X137384030Y-88048671D01*
X137375765Y-88025572D01*
X137369804Y-88001773D01*
X137366204Y-87977505D01*
X137365000Y-87953001D01*
X137365000Y-87052999D01*
X137366204Y-87028495D01*
X137369804Y-87004227D01*
X137375765Y-86980428D01*
X137384030Y-86957329D01*
X137394520Y-86935150D01*
X137407132Y-86914107D01*
X137421747Y-86894401D01*
X137438223Y-86876223D01*
X137456401Y-86859747D01*
X137476107Y-86845132D01*
X137497150Y-86832520D01*
X137519329Y-86822030D01*
X137542428Y-86813765D01*
X137566227Y-86807804D01*
X137590495Y-86804204D01*
X137614999Y-86803000D01*
X138265001Y-86803000D01*
X138289505Y-86804204D01*
G37*
G04 #@! TD.AperFunction*
G04 #@! TA.AperFunction,SMDPad,CuDef*
G36*
X132046505Y-95710204D02*
G01*
X132070773Y-95713804D01*
X132094572Y-95719765D01*
X132117671Y-95728030D01*
X132139850Y-95738520D01*
X132160893Y-95751132D01*
X132180599Y-95765747D01*
X132198777Y-95782223D01*
X132215253Y-95800401D01*
X132229868Y-95820107D01*
X132242480Y-95841150D01*
X132252970Y-95863329D01*
X132261235Y-95886428D01*
X132267196Y-95910227D01*
X132270796Y-95934495D01*
X132272000Y-95958999D01*
X132272000Y-96609001D01*
X132270796Y-96633505D01*
X132267196Y-96657773D01*
X132261235Y-96681572D01*
X132252970Y-96704671D01*
X132242480Y-96726850D01*
X132229868Y-96747893D01*
X132215253Y-96767599D01*
X132198777Y-96785777D01*
X132180599Y-96802253D01*
X132160893Y-96816868D01*
X132139850Y-96829480D01*
X132117671Y-96839970D01*
X132094572Y-96848235D01*
X132070773Y-96854196D01*
X132046505Y-96857796D01*
X132022001Y-96859000D01*
X131121999Y-96859000D01*
X131097495Y-96857796D01*
X131073227Y-96854196D01*
X131049428Y-96848235D01*
X131026329Y-96839970D01*
X131004150Y-96829480D01*
X130983107Y-96816868D01*
X130963401Y-96802253D01*
X130945223Y-96785777D01*
X130928747Y-96767599D01*
X130914132Y-96747893D01*
X130901520Y-96726850D01*
X130891030Y-96704671D01*
X130882765Y-96681572D01*
X130876804Y-96657773D01*
X130873204Y-96633505D01*
X130872000Y-96609001D01*
X130872000Y-95958999D01*
X130873204Y-95934495D01*
X130876804Y-95910227D01*
X130882765Y-95886428D01*
X130891030Y-95863329D01*
X130901520Y-95841150D01*
X130914132Y-95820107D01*
X130928747Y-95800401D01*
X130945223Y-95782223D01*
X130963401Y-95765747D01*
X130983107Y-95751132D01*
X131004150Y-95738520D01*
X131026329Y-95728030D01*
X131049428Y-95719765D01*
X131073227Y-95713804D01*
X131097495Y-95710204D01*
X131121999Y-95709000D01*
X132022001Y-95709000D01*
X132046505Y-95710204D01*
G37*
G04 #@! TD.AperFunction*
G04 #@! TA.AperFunction,SMDPad,CuDef*
G36*
X132046505Y-93660204D02*
G01*
X132070773Y-93663804D01*
X132094572Y-93669765D01*
X132117671Y-93678030D01*
X132139850Y-93688520D01*
X132160893Y-93701132D01*
X132180599Y-93715747D01*
X132198777Y-93732223D01*
X132215253Y-93750401D01*
X132229868Y-93770107D01*
X132242480Y-93791150D01*
X132252970Y-93813329D01*
X132261235Y-93836428D01*
X132267196Y-93860227D01*
X132270796Y-93884495D01*
X132272000Y-93908999D01*
X132272000Y-94559001D01*
X132270796Y-94583505D01*
X132267196Y-94607773D01*
X132261235Y-94631572D01*
X132252970Y-94654671D01*
X132242480Y-94676850D01*
X132229868Y-94697893D01*
X132215253Y-94717599D01*
X132198777Y-94735777D01*
X132180599Y-94752253D01*
X132160893Y-94766868D01*
X132139850Y-94779480D01*
X132117671Y-94789970D01*
X132094572Y-94798235D01*
X132070773Y-94804196D01*
X132046505Y-94807796D01*
X132022001Y-94809000D01*
X131121999Y-94809000D01*
X131097495Y-94807796D01*
X131073227Y-94804196D01*
X131049428Y-94798235D01*
X131026329Y-94789970D01*
X131004150Y-94779480D01*
X130983107Y-94766868D01*
X130963401Y-94752253D01*
X130945223Y-94735777D01*
X130928747Y-94717599D01*
X130914132Y-94697893D01*
X130901520Y-94676850D01*
X130891030Y-94654671D01*
X130882765Y-94631572D01*
X130876804Y-94607773D01*
X130873204Y-94583505D01*
X130872000Y-94559001D01*
X130872000Y-93908999D01*
X130873204Y-93884495D01*
X130876804Y-93860227D01*
X130882765Y-93836428D01*
X130891030Y-93813329D01*
X130901520Y-93791150D01*
X130914132Y-93770107D01*
X130928747Y-93750401D01*
X130945223Y-93732223D01*
X130963401Y-93715747D01*
X130983107Y-93701132D01*
X131004150Y-93688520D01*
X131026329Y-93678030D01*
X131049428Y-93669765D01*
X131073227Y-93663804D01*
X131097495Y-93660204D01*
X131121999Y-93659000D01*
X132022001Y-93659000D01*
X132046505Y-93660204D01*
G37*
G04 #@! TD.AperFunction*
D12*
X142240000Y-100330000D03*
X139700000Y-100330000D03*
D13*
X137160000Y-100330000D03*
D12*
X142240000Y-77470000D03*
X139700000Y-77470000D03*
D13*
X137160000Y-77470000D03*
D12*
X128270000Y-78740000D03*
X128270000Y-81280000D03*
X128270000Y-83820000D03*
X128270000Y-86360000D03*
X128270000Y-88900000D03*
X128270000Y-91440000D03*
X128270000Y-93980000D03*
X128270000Y-96520000D03*
D13*
X128270000Y-99060000D03*
D14*
X137308000Y-92488000D03*
X143108000Y-92488000D03*
X137308000Y-96488000D03*
X143108000Y-96488000D03*
G04 #@! TA.AperFunction,SMDPad,CuDef*
D10*
G36*
X136239505Y-84645204D02*
G01*
X136263773Y-84648804D01*
X136287572Y-84654765D01*
X136310671Y-84663030D01*
X136332850Y-84673520D01*
X136353893Y-84686132D01*
X136373599Y-84700747D01*
X136391777Y-84717223D01*
X136408253Y-84735401D01*
X136422868Y-84755107D01*
X136435480Y-84776150D01*
X136445970Y-84798329D01*
X136454235Y-84821428D01*
X136460196Y-84845227D01*
X136463796Y-84869495D01*
X136465000Y-84893999D01*
X136465000Y-85794001D01*
X136463796Y-85818505D01*
X136460196Y-85842773D01*
X136454235Y-85866572D01*
X136445970Y-85889671D01*
X136435480Y-85911850D01*
X136422868Y-85932893D01*
X136408253Y-85952599D01*
X136391777Y-85970777D01*
X136373599Y-85987253D01*
X136353893Y-86001868D01*
X136332850Y-86014480D01*
X136310671Y-86024970D01*
X136287572Y-86033235D01*
X136263773Y-86039196D01*
X136239505Y-86042796D01*
X136215001Y-86044000D01*
X135564999Y-86044000D01*
X135540495Y-86042796D01*
X135516227Y-86039196D01*
X135492428Y-86033235D01*
X135469329Y-86024970D01*
X135447150Y-86014480D01*
X135426107Y-86001868D01*
X135406401Y-85987253D01*
X135388223Y-85970777D01*
X135371747Y-85952599D01*
X135357132Y-85932893D01*
X135344520Y-85911850D01*
X135334030Y-85889671D01*
X135325765Y-85866572D01*
X135319804Y-85842773D01*
X135316204Y-85818505D01*
X135315000Y-85794001D01*
X135315000Y-84893999D01*
X135316204Y-84869495D01*
X135319804Y-84845227D01*
X135325765Y-84821428D01*
X135334030Y-84798329D01*
X135344520Y-84776150D01*
X135357132Y-84755107D01*
X135371747Y-84735401D01*
X135388223Y-84717223D01*
X135406401Y-84700747D01*
X135426107Y-84686132D01*
X135447150Y-84673520D01*
X135469329Y-84663030D01*
X135492428Y-84654765D01*
X135516227Y-84648804D01*
X135540495Y-84645204D01*
X135564999Y-84644000D01*
X136215001Y-84644000D01*
X136239505Y-84645204D01*
G37*
G04 #@! TD.AperFunction*
G04 #@! TA.AperFunction,SMDPad,CuDef*
G36*
X138289505Y-84645204D02*
G01*
X138313773Y-84648804D01*
X138337572Y-84654765D01*
X138360671Y-84663030D01*
X138382850Y-84673520D01*
X138403893Y-84686132D01*
X138423599Y-84700747D01*
X138441777Y-84717223D01*
X138458253Y-84735401D01*
X138472868Y-84755107D01*
X138485480Y-84776150D01*
X138495970Y-84798329D01*
X138504235Y-84821428D01*
X138510196Y-84845227D01*
X138513796Y-84869495D01*
X138515000Y-84893999D01*
X138515000Y-85794001D01*
X138513796Y-85818505D01*
X138510196Y-85842773D01*
X138504235Y-85866572D01*
X138495970Y-85889671D01*
X138485480Y-85911850D01*
X138472868Y-85932893D01*
X138458253Y-85952599D01*
X138441777Y-85970777D01*
X138423599Y-85987253D01*
X138403893Y-86001868D01*
X138382850Y-86014480D01*
X138360671Y-86024970D01*
X138337572Y-86033235D01*
X138313773Y-86039196D01*
X138289505Y-86042796D01*
X138265001Y-86044000D01*
X137614999Y-86044000D01*
X137590495Y-86042796D01*
X137566227Y-86039196D01*
X137542428Y-86033235D01*
X137519329Y-86024970D01*
X137497150Y-86014480D01*
X137476107Y-86001868D01*
X137456401Y-85987253D01*
X137438223Y-85970777D01*
X137421747Y-85952599D01*
X137407132Y-85932893D01*
X137394520Y-85911850D01*
X137384030Y-85889671D01*
X137375765Y-85866572D01*
X137369804Y-85842773D01*
X137366204Y-85818505D01*
X137365000Y-85794001D01*
X137365000Y-84893999D01*
X137366204Y-84869495D01*
X137369804Y-84845227D01*
X137375765Y-84821428D01*
X137384030Y-84798329D01*
X137394520Y-84776150D01*
X137407132Y-84755107D01*
X137421747Y-84735401D01*
X137438223Y-84717223D01*
X137456401Y-84700747D01*
X137476107Y-84686132D01*
X137497150Y-84673520D01*
X137519329Y-84663030D01*
X137542428Y-84654765D01*
X137566227Y-84648804D01*
X137590495Y-84645204D01*
X137614999Y-84644000D01*
X138265001Y-84644000D01*
X138289505Y-84645204D01*
G37*
G04 #@! TD.AperFunction*
G04 #@! TA.AperFunction,SMDPad,CuDef*
G36*
X134078505Y-93642204D02*
G01*
X134102773Y-93645804D01*
X134126572Y-93651765D01*
X134149671Y-93660030D01*
X134171850Y-93670520D01*
X134192893Y-93683132D01*
X134212599Y-93697747D01*
X134230777Y-93714223D01*
X134247253Y-93732401D01*
X134261868Y-93752107D01*
X134274480Y-93773150D01*
X134284970Y-93795329D01*
X134293235Y-93818428D01*
X134299196Y-93842227D01*
X134302796Y-93866495D01*
X134304000Y-93890999D01*
X134304000Y-94541001D01*
X134302796Y-94565505D01*
X134299196Y-94589773D01*
X134293235Y-94613572D01*
X134284970Y-94636671D01*
X134274480Y-94658850D01*
X134261868Y-94679893D01*
X134247253Y-94699599D01*
X134230777Y-94717777D01*
X134212599Y-94734253D01*
X134192893Y-94748868D01*
X134171850Y-94761480D01*
X134149671Y-94771970D01*
X134126572Y-94780235D01*
X134102773Y-94786196D01*
X134078505Y-94789796D01*
X134054001Y-94791000D01*
X133153999Y-94791000D01*
X133129495Y-94789796D01*
X133105227Y-94786196D01*
X133081428Y-94780235D01*
X133058329Y-94771970D01*
X133036150Y-94761480D01*
X133015107Y-94748868D01*
X132995401Y-94734253D01*
X132977223Y-94717777D01*
X132960747Y-94699599D01*
X132946132Y-94679893D01*
X132933520Y-94658850D01*
X132923030Y-94636671D01*
X132914765Y-94613572D01*
X132908804Y-94589773D01*
X132905204Y-94565505D01*
X132904000Y-94541001D01*
X132904000Y-93890999D01*
X132905204Y-93866495D01*
X132908804Y-93842227D01*
X132914765Y-93818428D01*
X132923030Y-93795329D01*
X132933520Y-93773150D01*
X132946132Y-93752107D01*
X132960747Y-93732401D01*
X132977223Y-93714223D01*
X132995401Y-93697747D01*
X133015107Y-93683132D01*
X133036150Y-93670520D01*
X133058329Y-93660030D01*
X133081428Y-93651765D01*
X133105227Y-93645804D01*
X133129495Y-93642204D01*
X133153999Y-93641000D01*
X134054001Y-93641000D01*
X134078505Y-93642204D01*
G37*
G04 #@! TD.AperFunction*
G04 #@! TA.AperFunction,SMDPad,CuDef*
G36*
X134078505Y-95692204D02*
G01*
X134102773Y-95695804D01*
X134126572Y-95701765D01*
X134149671Y-95710030D01*
X134171850Y-95720520D01*
X134192893Y-95733132D01*
X134212599Y-95747747D01*
X134230777Y-95764223D01*
X134247253Y-95782401D01*
X134261868Y-95802107D01*
X134274480Y-95823150D01*
X134284970Y-95845329D01*
X134293235Y-95868428D01*
X134299196Y-95892227D01*
X134302796Y-95916495D01*
X134304000Y-95940999D01*
X134304000Y-96591001D01*
X134302796Y-96615505D01*
X134299196Y-96639773D01*
X134293235Y-96663572D01*
X134284970Y-96686671D01*
X134274480Y-96708850D01*
X134261868Y-96729893D01*
X134247253Y-96749599D01*
X134230777Y-96767777D01*
X134212599Y-96784253D01*
X134192893Y-96798868D01*
X134171850Y-96811480D01*
X134149671Y-96821970D01*
X134126572Y-96830235D01*
X134102773Y-96836196D01*
X134078505Y-96839796D01*
X134054001Y-96841000D01*
X133153999Y-96841000D01*
X133129495Y-96839796D01*
X133105227Y-96836196D01*
X133081428Y-96830235D01*
X133058329Y-96821970D01*
X133036150Y-96811480D01*
X133015107Y-96798868D01*
X132995401Y-96784253D01*
X132977223Y-96767777D01*
X132960747Y-96749599D01*
X132946132Y-96729893D01*
X132933520Y-96708850D01*
X132923030Y-96686671D01*
X132914765Y-96663572D01*
X132908804Y-96639773D01*
X132905204Y-96615505D01*
X132904000Y-96591001D01*
X132904000Y-95940999D01*
X132905204Y-95916495D01*
X132908804Y-95892227D01*
X132914765Y-95868428D01*
X132923030Y-95845329D01*
X132933520Y-95823150D01*
X132946132Y-95802107D01*
X132960747Y-95782401D01*
X132977223Y-95764223D01*
X132995401Y-95747747D01*
X133015107Y-95733132D01*
X133036150Y-95720520D01*
X133058329Y-95710030D01*
X133081428Y-95701765D01*
X133105227Y-95695804D01*
X133129495Y-95692204D01*
X133153999Y-95691000D01*
X134054001Y-95691000D01*
X134078505Y-95692204D01*
G37*
G04 #@! TD.AperFunction*
D12*
X151130000Y-81280000D03*
X151130000Y-83820000D03*
X151130000Y-86360000D03*
D13*
X151130000Y-88900000D03*
G04 #@! TA.AperFunction,SMDPad,CuDef*
D10*
G36*
X136110505Y-81994204D02*
G01*
X136134773Y-81997804D01*
X136158572Y-82003765D01*
X136181671Y-82012030D01*
X136203850Y-82022520D01*
X136224893Y-82035132D01*
X136244599Y-82049747D01*
X136262777Y-82066223D01*
X136279253Y-82084401D01*
X136293868Y-82104107D01*
X136306480Y-82125150D01*
X136316970Y-82147329D01*
X136325235Y-82170428D01*
X136331196Y-82194227D01*
X136334796Y-82218495D01*
X136336000Y-82242999D01*
X136336000Y-82893001D01*
X136334796Y-82917505D01*
X136331196Y-82941773D01*
X136325235Y-82965572D01*
X136316970Y-82988671D01*
X136306480Y-83010850D01*
X136293868Y-83031893D01*
X136279253Y-83051599D01*
X136262777Y-83069777D01*
X136244599Y-83086253D01*
X136224893Y-83100868D01*
X136203850Y-83113480D01*
X136181671Y-83123970D01*
X136158572Y-83132235D01*
X136134773Y-83138196D01*
X136110505Y-83141796D01*
X136086001Y-83143000D01*
X135185999Y-83143000D01*
X135161495Y-83141796D01*
X135137227Y-83138196D01*
X135113428Y-83132235D01*
X135090329Y-83123970D01*
X135068150Y-83113480D01*
X135047107Y-83100868D01*
X135027401Y-83086253D01*
X135009223Y-83069777D01*
X134992747Y-83051599D01*
X134978132Y-83031893D01*
X134965520Y-83010850D01*
X134955030Y-82988671D01*
X134946765Y-82965572D01*
X134940804Y-82941773D01*
X134937204Y-82917505D01*
X134936000Y-82893001D01*
X134936000Y-82242999D01*
X134937204Y-82218495D01*
X134940804Y-82194227D01*
X134946765Y-82170428D01*
X134955030Y-82147329D01*
X134965520Y-82125150D01*
X134978132Y-82104107D01*
X134992747Y-82084401D01*
X135009223Y-82066223D01*
X135027401Y-82049747D01*
X135047107Y-82035132D01*
X135068150Y-82022520D01*
X135090329Y-82012030D01*
X135113428Y-82003765D01*
X135137227Y-81997804D01*
X135161495Y-81994204D01*
X135185999Y-81993000D01*
X136086001Y-81993000D01*
X136110505Y-81994204D01*
G37*
G04 #@! TD.AperFunction*
G04 #@! TA.AperFunction,SMDPad,CuDef*
G36*
X136110505Y-79944204D02*
G01*
X136134773Y-79947804D01*
X136158572Y-79953765D01*
X136181671Y-79962030D01*
X136203850Y-79972520D01*
X136224893Y-79985132D01*
X136244599Y-79999747D01*
X136262777Y-80016223D01*
X136279253Y-80034401D01*
X136293868Y-80054107D01*
X136306480Y-80075150D01*
X136316970Y-80097329D01*
X136325235Y-80120428D01*
X136331196Y-80144227D01*
X136334796Y-80168495D01*
X136336000Y-80192999D01*
X136336000Y-80843001D01*
X136334796Y-80867505D01*
X136331196Y-80891773D01*
X136325235Y-80915572D01*
X136316970Y-80938671D01*
X136306480Y-80960850D01*
X136293868Y-80981893D01*
X136279253Y-81001599D01*
X136262777Y-81019777D01*
X136244599Y-81036253D01*
X136224893Y-81050868D01*
X136203850Y-81063480D01*
X136181671Y-81073970D01*
X136158572Y-81082235D01*
X136134773Y-81088196D01*
X136110505Y-81091796D01*
X136086001Y-81093000D01*
X135185999Y-81093000D01*
X135161495Y-81091796D01*
X135137227Y-81088196D01*
X135113428Y-81082235D01*
X135090329Y-81073970D01*
X135068150Y-81063480D01*
X135047107Y-81050868D01*
X135027401Y-81036253D01*
X135009223Y-81019777D01*
X134992747Y-81001599D01*
X134978132Y-80981893D01*
X134965520Y-80960850D01*
X134955030Y-80938671D01*
X134946765Y-80915572D01*
X134940804Y-80891773D01*
X134937204Y-80867505D01*
X134936000Y-80843001D01*
X134936000Y-80192999D01*
X134937204Y-80168495D01*
X134940804Y-80144227D01*
X134946765Y-80120428D01*
X134955030Y-80097329D01*
X134965520Y-80075150D01*
X134978132Y-80054107D01*
X134992747Y-80034401D01*
X135009223Y-80016223D01*
X135027401Y-79999747D01*
X135047107Y-79985132D01*
X135068150Y-79972520D01*
X135090329Y-79962030D01*
X135113428Y-79953765D01*
X135137227Y-79947804D01*
X135161495Y-79944204D01*
X135185999Y-79943000D01*
X136086001Y-79943000D01*
X136110505Y-79944204D01*
G37*
G04 #@! TD.AperFunction*
D15*
X150721000Y-98717000D03*
X150721000Y-93257000D03*
D16*
X147721000Y-98407000D03*
X147721000Y-93567000D03*
D17*
X146181000Y-88548000D03*
X145531000Y-88548000D03*
X144881000Y-88548000D03*
X144231000Y-88548000D03*
X143581000Y-88548000D03*
X142931000Y-88548000D03*
X142281000Y-88548000D03*
X141631000Y-88548000D03*
X140981000Y-88548000D03*
X140331000Y-88548000D03*
X140331000Y-82648000D03*
X140981000Y-82648000D03*
X141631000Y-82648000D03*
X142281000Y-82648000D03*
X142931000Y-82648000D03*
X143581000Y-82648000D03*
X144231000Y-82648000D03*
X144881000Y-82648000D03*
X145531000Y-82648000D03*
X146181000Y-82648000D03*
D18*
X136271000Y-96520000D03*
X146050000Y-97790000D03*
X137033000Y-82550000D03*
X143108000Y-96488000D03*
X144145000Y-78613000D03*
X143510000Y-90551000D03*
X146558000Y-91567000D03*
X140716000Y-91567000D03*
X143581000Y-86797000D03*
X133858000Y-91440000D03*
X140208000Y-95123000D03*
X145161000Y-85217000D03*
X132207000Y-88265000D03*
X132207000Y-91440000D03*
X142494000Y-84201000D03*
X144231000Y-84201000D03*
X144907000Y-90424000D03*
X145796000Y-90932000D03*
X139700000Y-80391000D03*
D19*
X139507001Y-95942999D02*
X138962000Y-96488000D01*
X138962000Y-96488000D02*
X137308000Y-96488000D01*
X141662999Y-95942999D02*
X139507001Y-95942999D01*
X142208000Y-96488000D02*
X141662999Y-95942999D01*
X143108000Y-96488000D02*
X143108000Y-96488000D01*
X144762000Y-96488000D02*
X146050000Y-97776000D01*
X143108000Y-96488000D02*
X144762000Y-96488000D01*
X146050000Y-97776000D02*
X146050000Y-97790000D01*
X146050000Y-97790000D02*
X146050000Y-97790000D01*
X146667000Y-98407000D02*
X146050000Y-97790000D01*
X147721000Y-98407000D02*
X146667000Y-98407000D01*
X143108000Y-96488000D02*
X142208000Y-96488000D01*
X142240000Y-97356000D02*
X143108000Y-96488000D01*
X142240000Y-100330000D02*
X142240000Y-97356000D01*
D20*
X130556000Y-94234000D02*
X128270000Y-96520000D01*
X131572000Y-94234000D02*
X130556000Y-94234000D01*
X145288000Y-78613000D02*
X144145000Y-78613000D01*
X142931000Y-89523000D02*
X143510000Y-90102000D01*
X142931000Y-88548000D02*
X142931000Y-89523000D01*
X143510000Y-90102000D02*
X143510000Y-90551000D01*
X143510000Y-90551000D02*
X143510000Y-90551000D01*
X135146000Y-82550000D02*
X135128000Y-82568000D01*
X137015000Y-82568000D02*
X137033000Y-82550000D01*
X135636000Y-82568000D02*
X137015000Y-82568000D01*
D19*
X140716000Y-91567000D02*
X146558000Y-91567000D01*
X143581000Y-88548000D02*
X143581000Y-86797000D01*
X143581000Y-86797000D02*
X143581000Y-82648000D01*
X133858000Y-91440000D02*
X133858000Y-91440000D01*
X143581000Y-83627000D02*
X143581000Y-82648000D01*
D20*
X148463000Y-78613000D02*
X151130000Y-81280000D01*
X147888000Y-78613000D02*
X148463000Y-78613000D01*
X139854447Y-95123000D02*
X140208000Y-95123000D01*
X134304000Y-96266000D02*
X135447000Y-95123000D01*
X135447000Y-95123000D02*
X139854447Y-95123000D01*
X133604000Y-96266000D02*
X134304000Y-96266000D01*
X135447000Y-93029000D02*
X135447000Y-95123000D01*
X133858000Y-91440000D02*
X135447000Y-93029000D01*
X133604000Y-96841000D02*
X133604000Y-96266000D01*
X131385000Y-99060000D02*
X133604000Y-96841000D01*
X128270000Y-99060000D02*
X131385000Y-99060000D01*
X151130000Y-81280000D02*
X149098000Y-81280000D01*
X143581000Y-83623000D02*
X143581000Y-82648000D01*
X142128000Y-85344000D02*
X143581000Y-86797000D01*
X137940000Y-85344000D02*
X142128000Y-85344000D01*
X149098000Y-81280000D02*
X146304000Y-84074000D01*
X146304000Y-84074000D02*
X145161000Y-85217000D01*
X145161000Y-85217000D02*
X145161000Y-85217000D01*
D19*
X136436999Y-90862999D02*
X133038001Y-90862999D01*
X137308000Y-92488000D02*
X137308000Y-91734000D01*
X137308000Y-91734000D02*
X136436999Y-90862999D01*
X133038001Y-90862999D02*
X132784001Y-90862999D01*
X137308000Y-92488000D02*
X143108000Y-92488000D01*
X144231000Y-81759398D02*
X142989602Y-80518000D01*
X144231000Y-82648000D02*
X144231000Y-81759398D01*
X142989602Y-80518000D02*
X142989602Y-80510066D01*
X142989602Y-80510066D02*
X142235536Y-79756000D01*
X142235536Y-79756000D02*
X136398000Y-79756000D01*
D20*
X135823000Y-79756000D02*
X136398000Y-79756000D01*
X135636000Y-79943000D02*
X135823000Y-79756000D01*
X135636000Y-80518000D02*
X135636000Y-79943000D01*
X132784001Y-90862999D02*
X132207000Y-91440000D01*
X132207000Y-88265000D02*
X132207000Y-84914011D01*
X132207000Y-84914011D02*
X132920011Y-84201000D01*
X132920011Y-84201000D02*
X142494000Y-84201000D01*
X142494000Y-84201000D02*
X142494000Y-84201000D01*
X144231000Y-84201000D02*
X144231000Y-82648000D01*
X133405990Y-94414010D02*
X133405990Y-94216000D01*
X131572000Y-96284000D02*
X131572000Y-96248000D01*
X131572000Y-96248000D02*
X133405990Y-94414010D01*
X135890000Y-87503000D02*
X135890000Y-85344000D01*
X142281000Y-87573000D02*
X142281000Y-88548000D01*
X142205999Y-87497999D02*
X142281000Y-87573000D01*
X138520001Y-87497999D02*
X142205999Y-87497999D01*
X138515000Y-87503000D02*
X138520001Y-87497999D01*
X137940000Y-87503000D02*
X138515000Y-87503000D01*
D19*
X144231000Y-89527000D02*
X144231000Y-88548000D01*
X144231000Y-89748000D02*
X144231000Y-89527000D01*
X144907000Y-90424000D02*
X144231000Y-89748000D01*
X144881000Y-88548000D02*
X144881000Y-89527000D01*
D20*
X145796000Y-90438000D02*
X145796000Y-90932000D01*
X144881000Y-88548000D02*
X144881000Y-89523000D01*
X144881000Y-89523000D02*
X145796000Y-90438000D01*
D19*
X149930000Y-83820000D02*
X151130000Y-83820000D01*
X146181000Y-87569000D02*
X149930000Y-83820000D01*
X146181000Y-88548000D02*
X146181000Y-87569000D01*
X151130000Y-90004000D02*
X151130000Y-88900000D01*
X150964000Y-90170000D02*
X151130000Y-90004000D01*
X146264398Y-90170000D02*
X150964000Y-90170000D01*
X145531000Y-89436602D02*
X146264398Y-90170000D01*
X145531000Y-88548000D02*
X145531000Y-89436602D01*
X142931000Y-82648000D02*
X142931000Y-81669000D01*
X141653000Y-80391000D02*
X142391000Y-81129000D01*
X139700000Y-80391000D02*
X141653000Y-80391000D01*
X142931000Y-81669000D02*
X142391000Y-81129000D01*
X142391000Y-81129000D02*
X142288000Y-81026000D01*
X144881000Y-81759398D02*
X142315612Y-79194010D01*
X144881000Y-82648000D02*
X144881000Y-81759398D01*
X130355990Y-79194010D02*
X128270000Y-81280000D01*
X142315612Y-79194010D02*
X130355990Y-79194010D01*
X142602000Y-78740000D02*
X145531000Y-81669000D01*
X145531000Y-81669000D02*
X145531000Y-82648000D01*
X128270000Y-78740000D02*
X142602000Y-78740000D01*
X141631000Y-89527000D02*
X141631000Y-88548000D01*
X140787990Y-90370010D02*
X141631000Y-89527000D01*
X131879990Y-90370010D02*
X140787990Y-90370010D01*
X128270000Y-93980000D02*
X131879990Y-90370010D01*
X128270000Y-91440000D02*
X129794000Y-89916000D01*
X140981000Y-89527000D02*
X140981000Y-88548000D01*
X140592000Y-89916000D02*
X140981000Y-89527000D01*
X129794000Y-89916000D02*
X140592000Y-89916000D01*
X139979000Y-88900000D02*
X140331000Y-88548000D01*
X128270000Y-88900000D02*
X139979000Y-88900000D01*
D20*
X146181000Y-79020000D02*
X146588000Y-78613000D01*
X146181000Y-82648000D02*
X146181000Y-79020000D01*
D19*
X132132080Y-83700001D02*
X140462000Y-83700001D01*
X128270000Y-86360000D02*
X129472081Y-86360000D01*
X129472081Y-86360000D02*
X132132080Y-83700001D01*
D20*
X141553999Y-83700001D02*
X141631000Y-83623000D01*
X141631000Y-83623000D02*
X141631000Y-82648000D01*
X140462000Y-83700001D02*
X141553999Y-83700001D01*
X140981000Y-82648000D02*
X140981000Y-81673000D01*
X140905999Y-81597999D02*
X130492001Y-81597999D01*
X140981000Y-81673000D02*
X140905999Y-81597999D01*
X130492001Y-81597999D02*
X128270000Y-83820000D01*
M02*
