G04 #@! TF.GenerationSoftware,KiCad,Pcbnew,(5.1.5)-3*
G04 #@! TF.CreationDate,2019-12-31T17:34:34+04:00*
G04 #@! TF.ProjectId,stm32f042_devboard,73746d33-3266-4303-9432-5f646576626f,1*
G04 #@! TF.SameCoordinates,Original*
G04 #@! TF.FileFunction,Legend,Top*
G04 #@! TF.FilePolarity,Positive*
%FSLAX46Y46*%
G04 Gerber Fmt 4.6, Leading zero omitted, Abs format (unit mm)*
G04 Created by KiCad (PCBNEW (5.1.5)-3) date 2019-12-31 17:34:34*
%MOMM*%
%LPD*%
G04 APERTURE LIST*
%ADD10C,0.120000*%
%ADD11C,0.150000*%
%ADD12C,0.076200*%
G04 APERTURE END LIST*
D10*
X144538000Y-78313000D02*
G75*
G02X145238000Y-77613000I700000J0D01*
G01*
X145238000Y-79613000D02*
G75*
G02X144538000Y-78913000I0J700000D01*
G01*
X148638000Y-78913000D02*
G75*
G02X147938000Y-79613000I-700000J0D01*
G01*
X147938000Y-77613000D02*
G75*
G02X148638000Y-78313000I0J-700000D01*
G01*
X145188000Y-77613000D02*
X147988000Y-77613000D01*
X148638000Y-78313000D02*
X148638000Y-78913000D01*
X147988000Y-79613000D02*
X145188000Y-79613000D01*
X144538000Y-78913000D02*
X144538000Y-78313000D01*
X145388000Y-79813000D02*
X145088000Y-80113000D01*
X145088000Y-80113000D02*
X145688000Y-80113000D01*
X145388000Y-79813000D02*
X145688000Y-80113000D01*
X134168000Y-84763000D02*
X134168000Y-87623000D01*
X136088000Y-84763000D02*
X134168000Y-84763000D01*
X136088000Y-87623000D02*
X136088000Y-84763000D01*
X130612000Y-93399000D02*
X130612000Y-96259000D01*
X132532000Y-93399000D02*
X130612000Y-93399000D01*
X132532000Y-96259000D02*
X132532000Y-93399000D01*
X135830000Y-101660000D02*
X135830000Y-100330000D01*
X137160000Y-101660000D02*
X135830000Y-101660000D01*
X138430000Y-101660000D02*
X138430000Y-99000000D01*
X138430000Y-99000000D02*
X143570000Y-99000000D01*
X138430000Y-101660000D02*
X143570000Y-101660000D01*
X143570000Y-101660000D02*
X143570000Y-99000000D01*
X135830000Y-78800000D02*
X135830000Y-77470000D01*
X137160000Y-78800000D02*
X135830000Y-78800000D01*
X138430000Y-78800000D02*
X138430000Y-76140000D01*
X138430000Y-76140000D02*
X143570000Y-76140000D01*
X138430000Y-78800000D02*
X143570000Y-78800000D01*
X143570000Y-78800000D02*
X143570000Y-76140000D01*
X129600000Y-100390000D02*
X128270000Y-100390000D01*
X129600000Y-99060000D02*
X129600000Y-100390000D01*
X129600000Y-97790000D02*
X126940000Y-97790000D01*
X126940000Y-97790000D02*
X126940000Y-77410000D01*
X129600000Y-97790000D02*
X129600000Y-77410000D01*
X129600000Y-77410000D02*
X126940000Y-77410000D01*
X143418000Y-95688000D02*
X143418000Y-93288000D01*
X143418000Y-97698000D02*
X143418000Y-97288000D01*
X136998000Y-97698000D02*
X143418000Y-97698000D01*
X136998000Y-97288000D02*
X136998000Y-97698000D01*
X136998000Y-93288000D02*
X136998000Y-95688000D01*
X136998000Y-91278000D02*
X136998000Y-91558000D01*
X143418000Y-91278000D02*
X136998000Y-91278000D01*
X143418000Y-91688000D02*
X143418000Y-91278000D01*
X132132000Y-86343748D02*
X132132000Y-86866252D01*
X133552000Y-86343748D02*
X133552000Y-86866252D01*
X134314000Y-95502252D02*
X134314000Y-94979748D01*
X132894000Y-95502252D02*
X132894000Y-94979748D01*
X152460000Y-90230000D02*
X151130000Y-90230000D01*
X152460000Y-88900000D02*
X152460000Y-90230000D01*
X152460000Y-87630000D02*
X149800000Y-87630000D01*
X149800000Y-87630000D02*
X149800000Y-79950000D01*
X152460000Y-87630000D02*
X152460000Y-79950000D01*
X152460000Y-79950000D02*
X149800000Y-79950000D01*
X133620252Y-79808000D02*
X133097748Y-79808000D01*
X133620252Y-81228000D02*
X133097748Y-81228000D01*
D11*
X146706000Y-81848000D02*
X146706000Y-87823000D01*
X139806000Y-83373000D02*
X139806000Y-87823000D01*
D12*
X147150666Y-79858809D02*
X147150666Y-80221666D01*
X147126476Y-80294238D01*
X147078095Y-80342619D01*
X147005523Y-80366809D01*
X146957142Y-80366809D01*
X147610285Y-79858809D02*
X147513523Y-79858809D01*
X147465142Y-79883000D01*
X147440952Y-79907190D01*
X147392571Y-79979761D01*
X147368380Y-80076523D01*
X147368380Y-80270047D01*
X147392571Y-80318428D01*
X147416761Y-80342619D01*
X147465142Y-80366809D01*
X147561904Y-80366809D01*
X147610285Y-80342619D01*
X147634476Y-80318428D01*
X147658666Y-80270047D01*
X147658666Y-80149095D01*
X147634476Y-80100714D01*
X147610285Y-80076523D01*
X147561904Y-80052333D01*
X147465142Y-80052333D01*
X147416761Y-80076523D01*
X147392571Y-80100714D01*
X147368380Y-80149095D01*
X136881809Y-86988952D02*
X136373809Y-86988952D01*
X136373809Y-86868000D01*
X136398000Y-86795428D01*
X136446380Y-86747047D01*
X136494761Y-86722857D01*
X136591523Y-86698666D01*
X136664095Y-86698666D01*
X136760857Y-86722857D01*
X136809238Y-86747047D01*
X136857619Y-86795428D01*
X136881809Y-86868000D01*
X136881809Y-86988952D01*
X136422190Y-86505142D02*
X136398000Y-86480952D01*
X136373809Y-86432571D01*
X136373809Y-86311619D01*
X136398000Y-86263238D01*
X136422190Y-86239047D01*
X136470571Y-86214857D01*
X136518952Y-86214857D01*
X136591523Y-86239047D01*
X136881809Y-86529333D01*
X136881809Y-86214857D01*
X131197047Y-97647809D02*
X131197047Y-97139809D01*
X131318000Y-97139809D01*
X131390571Y-97164000D01*
X131438952Y-97212380D01*
X131463142Y-97260761D01*
X131487333Y-97357523D01*
X131487333Y-97430095D01*
X131463142Y-97526857D01*
X131438952Y-97575238D01*
X131390571Y-97623619D01*
X131318000Y-97647809D01*
X131197047Y-97647809D01*
X131971142Y-97647809D02*
X131680857Y-97647809D01*
X131826000Y-97647809D02*
X131826000Y-97139809D01*
X131777619Y-97212380D01*
X131729238Y-97260761D01*
X131680857Y-97284952D01*
X143975666Y-99035809D02*
X143975666Y-99398666D01*
X143951476Y-99471238D01*
X143903095Y-99519619D01*
X143830523Y-99543809D01*
X143782142Y-99543809D01*
X144459476Y-99035809D02*
X144217571Y-99035809D01*
X144193380Y-99277714D01*
X144217571Y-99253523D01*
X144265952Y-99229333D01*
X144386904Y-99229333D01*
X144435285Y-99253523D01*
X144459476Y-99277714D01*
X144483666Y-99326095D01*
X144483666Y-99447047D01*
X144459476Y-99495428D01*
X144435285Y-99519619D01*
X144386904Y-99543809D01*
X144265952Y-99543809D01*
X144217571Y-99519619D01*
X144193380Y-99495428D01*
X134958666Y-77318809D02*
X134958666Y-77681666D01*
X134934476Y-77754238D01*
X134886095Y-77802619D01*
X134813523Y-77826809D01*
X134765142Y-77826809D01*
X135418285Y-77488142D02*
X135418285Y-77826809D01*
X135297333Y-77294619D02*
X135176380Y-77657476D01*
X135490857Y-77657476D01*
X128100666Y-100813809D02*
X128100666Y-101176666D01*
X128076476Y-101249238D01*
X128028095Y-101297619D01*
X127955523Y-101321809D01*
X127907142Y-101321809D01*
X128294190Y-100813809D02*
X128608666Y-100813809D01*
X128439333Y-101007333D01*
X128511904Y-101007333D01*
X128560285Y-101031523D01*
X128584476Y-101055714D01*
X128608666Y-101104095D01*
X128608666Y-101225047D01*
X128584476Y-101273428D01*
X128560285Y-101297619D01*
X128511904Y-101321809D01*
X128366761Y-101321809D01*
X128318380Y-101297619D01*
X128294190Y-101273428D01*
X139530666Y-90453619D02*
X139603238Y-90477809D01*
X139724190Y-90477809D01*
X139772571Y-90453619D01*
X139796761Y-90429428D01*
X139820952Y-90381047D01*
X139820952Y-90332666D01*
X139796761Y-90284285D01*
X139772571Y-90260095D01*
X139724190Y-90235904D01*
X139627428Y-90211714D01*
X139579047Y-90187523D01*
X139554857Y-90163333D01*
X139530666Y-90114952D01*
X139530666Y-90066571D01*
X139554857Y-90018190D01*
X139579047Y-89994000D01*
X139627428Y-89969809D01*
X139748380Y-89969809D01*
X139820952Y-89994000D01*
X139990285Y-89969809D02*
X140111238Y-90477809D01*
X140208000Y-90114952D01*
X140304761Y-90477809D01*
X140425714Y-89969809D01*
X140885333Y-90477809D02*
X140595047Y-90477809D01*
X140740190Y-90477809D02*
X140740190Y-89969809D01*
X140691809Y-90042380D01*
X140643428Y-90090761D01*
X140595047Y-90114952D01*
X131801809Y-86689666D02*
X131559904Y-86859000D01*
X131801809Y-86979952D02*
X131293809Y-86979952D01*
X131293809Y-86786428D01*
X131318000Y-86738047D01*
X131342190Y-86713857D01*
X131390571Y-86689666D01*
X131463142Y-86689666D01*
X131511523Y-86713857D01*
X131535714Y-86738047D01*
X131559904Y-86786428D01*
X131559904Y-86979952D01*
X131342190Y-86496142D02*
X131318000Y-86471952D01*
X131293809Y-86423571D01*
X131293809Y-86302619D01*
X131318000Y-86254238D01*
X131342190Y-86230047D01*
X131390571Y-86205857D01*
X131438952Y-86205857D01*
X131511523Y-86230047D01*
X131801809Y-86520333D01*
X131801809Y-86205857D01*
X133519333Y-93320809D02*
X133350000Y-93078904D01*
X133229047Y-93320809D02*
X133229047Y-92812809D01*
X133422571Y-92812809D01*
X133470952Y-92837000D01*
X133495142Y-92861190D01*
X133519333Y-92909571D01*
X133519333Y-92982142D01*
X133495142Y-93030523D01*
X133470952Y-93054714D01*
X133422571Y-93078904D01*
X133229047Y-93078904D01*
X134003142Y-93320809D02*
X133712857Y-93320809D01*
X133858000Y-93320809D02*
X133858000Y-92812809D01*
X133809619Y-92885380D01*
X133761238Y-92933761D01*
X133712857Y-92957952D01*
X150960666Y-78969809D02*
X150960666Y-79332666D01*
X150936476Y-79405238D01*
X150888095Y-79453619D01*
X150815523Y-79477809D01*
X150767142Y-79477809D01*
X151178380Y-79018190D02*
X151202571Y-78994000D01*
X151250952Y-78969809D01*
X151371904Y-78969809D01*
X151420285Y-78994000D01*
X151444476Y-79018190D01*
X151468666Y-79066571D01*
X151468666Y-79114952D01*
X151444476Y-79187523D01*
X151154190Y-79477809D01*
X151468666Y-79477809D01*
X135678333Y-81207428D02*
X135654142Y-81231619D01*
X135581571Y-81255809D01*
X135533190Y-81255809D01*
X135460619Y-81231619D01*
X135412238Y-81183238D01*
X135388047Y-81134857D01*
X135363857Y-81038095D01*
X135363857Y-80965523D01*
X135388047Y-80868761D01*
X135412238Y-80820380D01*
X135460619Y-80772000D01*
X135533190Y-80747809D01*
X135581571Y-80747809D01*
X135654142Y-80772000D01*
X135678333Y-80796190D01*
X136137952Y-80747809D02*
X135896047Y-80747809D01*
X135871857Y-80989714D01*
X135896047Y-80965523D01*
X135944428Y-80941333D01*
X136065380Y-80941333D01*
X136113761Y-80965523D01*
X136137952Y-80989714D01*
X136162142Y-81038095D01*
X136162142Y-81159047D01*
X136137952Y-81207428D01*
X136113761Y-81231619D01*
X136065380Y-81255809D01*
X135944428Y-81255809D01*
X135896047Y-81231619D01*
X135871857Y-81207428D01*
X147041809Y-82937047D02*
X147453047Y-82937047D01*
X147501428Y-82912857D01*
X147525619Y-82888666D01*
X147549809Y-82840285D01*
X147549809Y-82743523D01*
X147525619Y-82695142D01*
X147501428Y-82670952D01*
X147453047Y-82646761D01*
X147041809Y-82646761D01*
X147549809Y-82138761D02*
X147549809Y-82429047D01*
X147549809Y-82283904D02*
X147041809Y-82283904D01*
X147114380Y-82332285D01*
X147162761Y-82380666D01*
X147186952Y-82429047D01*
M02*
